%TF.GenerationSoftware,KiCad,Pcbnew,9.0.0*%
%TF.CreationDate,2025-03-06T16:27:56+01:00*%
%TF.ProjectId,mcuDevBoard,6d637544-6576-4426-9f61-72642e6b6963,rev?*%
%TF.SameCoordinates,Original*%
%TF.FileFunction,Copper,L2,Bot*%
%TF.FilePolarity,Positive*%
%FSLAX46Y46*%
G04 Gerber Fmt 4.6, Leading zero omitted, Abs format (unit mm)*
G04 Created by KiCad (PCBNEW 9.0.0) date 2025-03-06 16:27:56*
%MOMM*%
%LPD*%
G01*
G04 APERTURE LIST*
G04 Aperture macros list*
%AMRoundRect*
0 Rectangle with rounded corners*
0 $1 Rounding radius*
0 $2 $3 $4 $5 $6 $7 $8 $9 X,Y pos of 4 corners*
0 Add a 4 corners polygon primitive as box body*
4,1,4,$2,$3,$4,$5,$6,$7,$8,$9,$2,$3,0*
0 Add four circle primitives for the rounded corners*
1,1,$1+$1,$2,$3*
1,1,$1+$1,$4,$5*
1,1,$1+$1,$6,$7*
1,1,$1+$1,$8,$9*
0 Add four rect primitives between the rounded corners*
20,1,$1+$1,$2,$3,$4,$5,0*
20,1,$1+$1,$4,$5,$6,$7,0*
20,1,$1+$1,$6,$7,$8,$9,0*
20,1,$1+$1,$8,$9,$2,$3,0*%
%AMFreePoly0*
4,1,23,0.500000,-0.750000,0.000000,-0.750000,0.000000,-0.745722,-0.065263,-0.745722,-0.191342,-0.711940,-0.304381,-0.646677,-0.396677,-0.554381,-0.461940,-0.441342,-0.495722,-0.315263,-0.495722,-0.250000,-0.500000,-0.250000,-0.500000,0.250000,-0.495722,0.250000,-0.495722,0.315263,-0.461940,0.441342,-0.396677,0.554381,-0.304381,0.646677,-0.191342,0.711940,-0.065263,0.745722,0.000000,0.745722,
0.000000,0.750000,0.500000,0.750000,0.500000,-0.750000,0.500000,-0.750000,$1*%
%AMFreePoly1*
4,1,23,0.000000,0.745722,0.065263,0.745722,0.191342,0.711940,0.304381,0.646677,0.396677,0.554381,0.461940,0.441342,0.495722,0.315263,0.495722,0.250000,0.500000,0.250000,0.500000,-0.250000,0.495722,-0.250000,0.495722,-0.315263,0.461940,-0.441342,0.396677,-0.554381,0.304381,-0.646677,0.191342,-0.711940,0.065263,-0.745722,0.000000,-0.745722,0.000000,-0.750000,-0.500000,-0.750000,
-0.500000,0.750000,0.000000,0.750000,0.000000,0.745722,0.000000,0.745722,$1*%
G04 Aperture macros list end*
%TA.AperFunction,EtchedComponent*%
%ADD10C,0.000000*%
%TD*%
%TA.AperFunction,ComponentPad*%
%ADD11R,1.700000X1.700000*%
%TD*%
%TA.AperFunction,ComponentPad*%
%ADD12O,1.700000X1.700000*%
%TD*%
%TA.AperFunction,ComponentPad*%
%ADD13O,1.000000X2.100000*%
%TD*%
%TA.AperFunction,ComponentPad*%
%ADD14O,1.000000X1.600000*%
%TD*%
%TA.AperFunction,ComponentPad*%
%ADD15R,2.500000X2.500000*%
%TD*%
%TA.AperFunction,ComponentPad*%
%ADD16C,2.500000*%
%TD*%
%TA.AperFunction,SMDPad,CuDef*%
%ADD17FreePoly0,90.000000*%
%TD*%
%TA.AperFunction,SMDPad,CuDef*%
%ADD18FreePoly1,90.000000*%
%TD*%
%TA.AperFunction,SMDPad,CuDef*%
%ADD19RoundRect,0.150000X0.650000X0.150000X-0.650000X0.150000X-0.650000X-0.150000X0.650000X-0.150000X0*%
%TD*%
%TA.AperFunction,SMDPad,CuDef*%
%ADD20FreePoly0,180.000000*%
%TD*%
%TA.AperFunction,SMDPad,CuDef*%
%ADD21FreePoly1,180.000000*%
%TD*%
%TA.AperFunction,SMDPad,CuDef*%
%ADD22RoundRect,0.250000X0.625000X-0.400000X0.625000X0.400000X-0.625000X0.400000X-0.625000X-0.400000X0*%
%TD*%
%TA.AperFunction,SMDPad,CuDef*%
%ADD23RoundRect,0.050000X0.387500X0.050000X-0.387500X0.050000X-0.387500X-0.050000X0.387500X-0.050000X0*%
%TD*%
%TA.AperFunction,SMDPad,CuDef*%
%ADD24RoundRect,0.050000X0.050000X0.387500X-0.050000X0.387500X-0.050000X-0.387500X0.050000X-0.387500X0*%
%TD*%
%TA.AperFunction,HeatsinkPad*%
%ADD25R,3.200000X3.200000*%
%TD*%
%TA.AperFunction,SMDPad,CuDef*%
%ADD26FreePoly0,270.000000*%
%TD*%
%TA.AperFunction,SMDPad,CuDef*%
%ADD27FreePoly1,270.000000*%
%TD*%
%TA.AperFunction,ViaPad*%
%ADD28C,0.600000*%
%TD*%
%TA.AperFunction,Conductor*%
%ADD29C,0.200000*%
%TD*%
%TA.AperFunction,Conductor*%
%ADD30C,0.600000*%
%TD*%
G04 APERTURE END LIST*
D10*
%TA.AperFunction,EtchedComponent*%
%TO.C,JP18*%
G36*
X155400000Y-100400000D02*
G01*
X154900000Y-100400000D01*
X154900000Y-99800000D01*
X155400000Y-99800000D01*
X155400000Y-100400000D01*
G37*
%TD.AperFunction*%
%TA.AperFunction,EtchedComponent*%
%TO.C,JP17*%
G36*
X87565900Y-99250000D02*
G01*
X86965900Y-99250000D01*
X86965900Y-98750000D01*
X87565900Y-98750000D01*
X87565900Y-99250000D01*
G37*
%TD.AperFunction*%
%TD*%
D11*
%TO.P,J1,1,Pin_1*%
%TO.N,GND*%
X131064000Y-74676000D03*
D12*
%TO.P,J1,2,Pin_2*%
%TO.N,Net-(J1-Pin_2)*%
X133604000Y-74676000D03*
%TD*%
D11*
%TO.P,J15,1,Pin_1*%
%TO.N,GND*%
X120100000Y-114300000D03*
D12*
%TO.P,J15,2,Pin_2*%
%TO.N,ledHigh*%
X117560000Y-114300000D03*
%TO.P,J15,3,Pin_3*%
%TO.N,ledVcc*%
X115020000Y-114300000D03*
%TD*%
D11*
%TO.P,J5,1,Pin_1*%
%TO.N,+12V*%
X136118600Y-113030000D03*
D12*
%TO.P,J5,2,Pin_2*%
X138658600Y-113030000D03*
%TO.P,J5,3,Pin_3*%
X141198600Y-113030000D03*
%TO.P,J5,4,Pin_4*%
X143738600Y-113030000D03*
%TO.P,J5,5,Pin_5*%
X146278600Y-113030000D03*
%TO.P,J5,6,Pin_6*%
X148818600Y-113030000D03*
%TO.P,J5,7,Pin_7*%
X151358600Y-113030000D03*
%TO.P,J5,8,Pin_8*%
X153898600Y-113030000D03*
%TO.P,J5,9,Pin_9*%
X156438600Y-113030000D03*
%TO.P,J5,10,Pin_10*%
X158978600Y-113030000D03*
%TO.P,J5,11,Pin_11*%
X161518600Y-113030000D03*
%TO.P,J5,12,Pin_12*%
X164058600Y-113030000D03*
%TO.P,J5,13,Pin_13*%
X166598600Y-113030000D03*
%TO.P,J5,14,Pin_14*%
X169138600Y-113030000D03*
%TO.P,J5,15,Pin_15*%
X171678600Y-113030000D03*
%TO.P,J5,16,Pin_16*%
X174218600Y-113030000D03*
%TD*%
D13*
%TO.P,J3,S1,SHIELD*%
%TO.N,GND*%
X126750000Y-74370000D03*
D14*
X126750000Y-70190000D03*
D13*
X118110000Y-74370000D03*
D14*
X118110000Y-70190000D03*
%TD*%
D11*
%TO.P,J9,1,Pin_1*%
%TO.N,+5V*%
X68097400Y-113030000D03*
D12*
%TO.P,J9,2,Pin_2*%
X70637400Y-113030000D03*
%TO.P,J9,3,Pin_3*%
X73177400Y-113030000D03*
%TO.P,J9,4,Pin_4*%
X75717400Y-113030000D03*
%TO.P,J9,5,Pin_5*%
X78257400Y-113030000D03*
%TO.P,J9,6,Pin_6*%
X80797400Y-113030000D03*
%TO.P,J9,7,Pin_7*%
X83337400Y-113030000D03*
%TO.P,J9,8,Pin_8*%
X85877400Y-113030000D03*
%TO.P,J9,9,Pin_9*%
X88417400Y-113030000D03*
%TO.P,J9,10,Pin_10*%
X90957400Y-113030000D03*
%TO.P,J9,11,Pin_11*%
X93497400Y-113030000D03*
%TO.P,J9,12,Pin_12*%
X96037400Y-113030000D03*
%TO.P,J9,13,Pin_13*%
X98577400Y-113030000D03*
%TO.P,J9,14,Pin_14*%
X101117400Y-113030000D03*
%TO.P,J9,15,Pin_15*%
X103657400Y-113030000D03*
%TO.P,J9,16,Pin_16*%
X106197400Y-113030000D03*
%TD*%
D11*
%TO.P,J4,1,Pin_1*%
%TO.N,GND*%
X136118600Y-115570000D03*
D12*
%TO.P,J4,2,Pin_2*%
X138658600Y-115570000D03*
%TO.P,J4,3,Pin_3*%
X141198600Y-115570000D03*
%TO.P,J4,4,Pin_4*%
X143738600Y-115570000D03*
%TO.P,J4,5,Pin_5*%
X146278600Y-115570000D03*
%TO.P,J4,6,Pin_6*%
X148818600Y-115570000D03*
%TO.P,J4,7,Pin_7*%
X151358600Y-115570000D03*
%TO.P,J4,8,Pin_8*%
X153898600Y-115570000D03*
%TO.P,J4,9,Pin_9*%
X156438600Y-115570000D03*
%TO.P,J4,10,Pin_10*%
X158978600Y-115570000D03*
%TO.P,J4,11,Pin_11*%
X161518600Y-115570000D03*
%TO.P,J4,12,Pin_12*%
X164058600Y-115570000D03*
%TO.P,J4,13,Pin_13*%
X166598600Y-115570000D03*
%TO.P,J4,14,Pin_14*%
X169138600Y-115570000D03*
%TO.P,J4,15,Pin_15*%
X171678600Y-115570000D03*
%TO.P,J4,16,Pin_16*%
X174218600Y-115570000D03*
%TD*%
D11*
%TO.P,J13,1,Pin_1*%
%TO.N,+3.3V*%
X143600000Y-99568000D03*
D12*
%TO.P,J13,2,Pin_2*%
%TO.N,GND*%
X143600000Y-97028000D03*
%TO.P,J13,3,Pin_3*%
%TO.N,GPIO7*%
X143600000Y-94488000D03*
%TO.P,J13,4,Pin_4*%
%TO.N,GPIO6*%
X143600000Y-91948000D03*
%TO.P,J13,5,Pin_5*%
%TO.N,CS_DISPLAY2*%
X143600000Y-89408000D03*
%TO.P,J13,6,Pin_6*%
%TO.N,DC_DISPLAY2*%
X143600000Y-86868000D03*
%TO.P,J13,7,Pin_7*%
%TO.N,GPIO12*%
X143600000Y-84328000D03*
%TD*%
D11*
%TO.P,J12,1,Pin_1*%
%TO.N,+3.3V*%
X138684000Y-99568000D03*
D12*
%TO.P,J12,2,Pin_2*%
%TO.N,GND*%
X138684000Y-97028000D03*
%TO.P,J12,3,Pin_3*%
%TO.N,GPIO7*%
X138684000Y-94488000D03*
%TO.P,J12,4,Pin_4*%
%TO.N,GPIO6*%
X138684000Y-91948000D03*
%TO.P,J12,5,Pin_5*%
%TO.N,CS_DISPLAY1*%
X138684000Y-89408000D03*
%TO.P,J12,6,Pin_6*%
%TO.N,DC_DISPLAY1*%
X138684000Y-86868000D03*
%TO.P,J12,7,Pin_7*%
%TO.N,GPIO11*%
X138684000Y-84328000D03*
%TD*%
D11*
%TO.P,J7,1,Pin_1*%
%TO.N,Net-(J7-Pin_1)*%
X68097400Y-110490000D03*
D12*
%TO.P,J7,2,Pin_2*%
%TO.N,Net-(J7-Pin_2)*%
X70637400Y-110490000D03*
%TO.P,J7,3,Pin_3*%
%TO.N,Net-(J7-Pin_3)*%
X73177400Y-110490000D03*
%TO.P,J7,4,Pin_4*%
%TO.N,Net-(J7-Pin_4)*%
X75717400Y-110490000D03*
%TO.P,J7,5,Pin_5*%
%TO.N,Net-(J7-Pin_5)*%
X78257400Y-110490000D03*
%TO.P,J7,6,Pin_6*%
%TO.N,Net-(J7-Pin_6)*%
X80797400Y-110490000D03*
%TO.P,J7,7,Pin_7*%
%TO.N,Net-(J7-Pin_7)*%
X83337400Y-110490000D03*
%TO.P,J7,8,Pin_8*%
%TO.N,Net-(J7-Pin_8)*%
X85877400Y-110490000D03*
%TO.P,J7,9,Pin_9*%
%TO.N,Net-(J7-Pin_9)*%
X88417400Y-110490000D03*
%TO.P,J7,10,Pin_10*%
%TO.N,Net-(J7-Pin_10)*%
X90957400Y-110490000D03*
%TO.P,J7,11,Pin_11*%
%TO.N,Net-(J7-Pin_11)*%
X93497400Y-110490000D03*
%TO.P,J7,12,Pin_12*%
%TO.N,Net-(J7-Pin_12)*%
X96037400Y-110490000D03*
%TO.P,J7,13,Pin_13*%
%TO.N,Net-(J7-Pin_13)*%
X98577400Y-110490000D03*
%TO.P,J7,14,Pin_14*%
%TO.N,Net-(J7-Pin_14)*%
X101117400Y-110490000D03*
%TO.P,J7,15,Pin_15*%
%TO.N,Net-(J7-Pin_15)*%
X103657400Y-110490000D03*
%TO.P,J7,16,Pin_16*%
%TO.N,Net-(J7-Pin_16)*%
X106197400Y-110490000D03*
%TD*%
D11*
%TO.P,J10,1,Pin_1*%
%TO.N,GND*%
X117600000Y-98500000D03*
D12*
%TO.P,J10,2,Pin_2*%
%TO.N,RX*%
X115060000Y-98500000D03*
%TO.P,J10,3,Pin_3*%
%TO.N,TX*%
X112520000Y-98500000D03*
%TO.P,J10,4,Pin_4*%
%TO.N,+3.3V*%
X109980000Y-98500000D03*
%TD*%
D11*
%TO.P,J2,1,Pin_1*%
%TO.N,Net-(J2-Pin_1)*%
X136118600Y-110490000D03*
D12*
%TO.P,J2,2,Pin_2*%
%TO.N,Net-(J2-Pin_2)*%
X138658600Y-110490000D03*
%TO.P,J2,3,Pin_3*%
%TO.N,Net-(J2-Pin_3)*%
X141198600Y-110490000D03*
%TO.P,J2,4,Pin_4*%
%TO.N,Net-(J2-Pin_4)*%
X143738600Y-110490000D03*
%TO.P,J2,5,Pin_5*%
%TO.N,Net-(J2-Pin_5)*%
X146278600Y-110490000D03*
%TO.P,J2,6,Pin_6*%
%TO.N,Net-(J2-Pin_6)*%
X148818600Y-110490000D03*
%TO.P,J2,7,Pin_7*%
%TO.N,Net-(J2-Pin_7)*%
X151358600Y-110490000D03*
%TO.P,J2,8,Pin_8*%
%TO.N,Net-(J2-Pin_8)*%
X153898600Y-110490000D03*
%TO.P,J2,9,Pin_9*%
%TO.N,Net-(J2-Pin_9)*%
X156438600Y-110490000D03*
%TO.P,J2,10,Pin_10*%
%TO.N,Net-(J2-Pin_10)*%
X158978600Y-110490000D03*
%TO.P,J2,11,Pin_11*%
%TO.N,Net-(J2-Pin_11)*%
X161518600Y-110490000D03*
%TO.P,J2,12,Pin_12*%
%TO.N,Net-(J2-Pin_12)*%
X164058600Y-110490000D03*
%TO.P,J2,13,Pin_13*%
%TO.N,Net-(J2-Pin_13)*%
X166598600Y-110490000D03*
%TO.P,J2,14,Pin_14*%
%TO.N,Net-(J2-Pin_14)*%
X169138600Y-110490000D03*
%TO.P,J2,15,Pin_15*%
%TO.N,Net-(J2-Pin_15)*%
X171678600Y-110490000D03*
%TO.P,J2,16,Pin_16*%
%TO.N,Net-(J2-Pin_16)*%
X174218600Y-110490000D03*
%TD*%
D11*
%TO.P,J8,1,Pin_1*%
%TO.N,GND*%
X68097400Y-115570000D03*
D12*
%TO.P,J8,2,Pin_2*%
X70637400Y-115570000D03*
%TO.P,J8,3,Pin_3*%
X73177400Y-115570000D03*
%TO.P,J8,4,Pin_4*%
X75717400Y-115570000D03*
%TO.P,J8,5,Pin_5*%
X78257400Y-115570000D03*
%TO.P,J8,6,Pin_6*%
X80797400Y-115570000D03*
%TO.P,J8,7,Pin_7*%
X83337400Y-115570000D03*
%TO.P,J8,8,Pin_8*%
X85877400Y-115570000D03*
%TO.P,J8,9,Pin_9*%
X88417400Y-115570000D03*
%TO.P,J8,10,Pin_10*%
X90957400Y-115570000D03*
%TO.P,J8,11,Pin_11*%
X93497400Y-115570000D03*
%TO.P,J8,12,Pin_12*%
X96037400Y-115570000D03*
%TO.P,J8,13,Pin_13*%
X98577400Y-115570000D03*
%TO.P,J8,14,Pin_14*%
X101117400Y-115570000D03*
%TO.P,J8,15,Pin_15*%
X103657400Y-115570000D03*
%TO.P,J8,16,Pin_16*%
X106197400Y-115570000D03*
%TD*%
D15*
%TO.P,J6,1,Pin_1*%
%TO.N,GND*%
X87000000Y-74450000D03*
D16*
%TO.P,J6,2,Pin_2*%
%TO.N,+12V*%
X94500000Y-74450000D03*
%TO.P,J6,3,Pin_3*%
%TO.N,GND*%
X102000000Y-74450000D03*
%TO.P,J6,4,Pin_4*%
%TO.N,+5V*%
X109500000Y-74450000D03*
%TD*%
D17*
%TO.P,JP12,1,A*%
%TO.N,Net-(JP12-A)*%
X161518600Y-82829400D03*
D18*
%TO.P,JP12,2,B*%
%TO.N,GND*%
X161518600Y-81529400D03*
%TD*%
D19*
%TO.P,U5,1,~{CS}*%
%TO.N,QSPI_SS*%
X134410000Y-81990000D03*
%TO.P,U5,2,DO(IO1)*%
%TO.N,QSPI_SD1*%
X134410000Y-83260000D03*
%TO.P,U5,3,IO2*%
%TO.N,QSPI_SD2*%
X134410000Y-84530000D03*
%TO.P,U5,4,GND*%
%TO.N,GND*%
X134410000Y-85800000D03*
%TO.P,U5,5,DI(IO0)*%
%TO.N,QSPI_SD0*%
X127210000Y-85800000D03*
%TO.P,U5,6,CLK*%
%TO.N,QSPI_SCLK*%
X127210000Y-84530000D03*
%TO.P,U5,7,IO3*%
%TO.N,QSPI_SD3*%
X127210000Y-83260000D03*
%TO.P,U5,8,VCC*%
%TO.N,+3.3V*%
X127210000Y-81990000D03*
%TD*%
D17*
%TO.P,JP4,1,A*%
%TO.N,Net-(JP4-A)*%
X91023400Y-82770200D03*
D18*
%TO.P,JP4,2,B*%
%TO.N,GND*%
X91023400Y-81470200D03*
%TD*%
D17*
%TO.P,JP11,1,A*%
%TO.N,Net-(JP11-A)*%
X93563400Y-82740200D03*
D18*
%TO.P,JP11,2,B*%
%TO.N,GND*%
X93563400Y-81440200D03*
%TD*%
D17*
%TO.P,JP2,1,A*%
%TO.N,Net-(JP2-A)*%
X156438600Y-82829400D03*
D18*
%TO.P,JP2,2,B*%
%TO.N,GND*%
X156438600Y-81529400D03*
%TD*%
D17*
%TO.P,JP13,1,A*%
%TO.N,Net-(JP13-A)*%
X87200000Y-95650000D03*
D18*
%TO.P,JP13,2,B*%
%TO.N,M_CLK1*%
X87200000Y-94350000D03*
%TD*%
D20*
%TO.P,JP14,1,A*%
%TO.N,Net-(JP14-A)*%
X155818600Y-97300000D03*
D21*
%TO.P,JP14,2,B*%
%TO.N,M_CLK2*%
X154518600Y-97300000D03*
%TD*%
D17*
%TO.P,JP9,1,A*%
%TO.N,Net-(JP9-A)*%
X80863400Y-82770200D03*
D18*
%TO.P,JP9,2,B*%
%TO.N,GND*%
X80863400Y-81470200D03*
%TD*%
D17*
%TO.P,JP1,1,A*%
%TO.N,Net-(JP1-A)*%
X158978600Y-82829400D03*
D18*
%TO.P,JP1,2,B*%
%TO.N,GND*%
X158978600Y-81529400D03*
%TD*%
D17*
%TO.P,JP6,1,A*%
%TO.N,Net-(JP6-A)*%
X153898600Y-82829400D03*
D18*
%TO.P,JP6,2,B*%
%TO.N,GND*%
X153898600Y-81529400D03*
%TD*%
D17*
%TO.P,JP3,1,A*%
%TO.N,Net-(JP3-A)*%
X88483400Y-82770200D03*
D18*
%TO.P,JP3,2,B*%
%TO.N,GND*%
X88483400Y-81470200D03*
%TD*%
D17*
%TO.P,JP7,1,A*%
%TO.N,Net-(JP7-A)*%
X83403400Y-82770200D03*
D18*
%TO.P,JP7,2,B*%
%TO.N,GND*%
X83403400Y-81470200D03*
%TD*%
D20*
%TO.P,JP18,1,A*%
%TO.N,Net-(JP14-A)*%
X155800000Y-100100000D03*
D21*
%TO.P,JP18,2,B*%
%TO.N,GND*%
X154500000Y-100100000D03*
%TD*%
D17*
%TO.P,JP5,1,A*%
%TO.N,Net-(JP5-A)*%
X85943400Y-82770200D03*
D18*
%TO.P,JP5,2,B*%
%TO.N,GND*%
X85943400Y-81470200D03*
%TD*%
D22*
%TO.P,R32,1*%
%TO.N,QSPI_SS*%
X137414000Y-80036000D03*
%TO.P,R32,2*%
%TO.N,Net-(J1-Pin_2)*%
X137414000Y-76936000D03*
%TD*%
D17*
%TO.P,JP8,1,A*%
%TO.N,Net-(JP8-A)*%
X151358600Y-82829400D03*
D18*
%TO.P,JP8,2,B*%
%TO.N,GND*%
X151358600Y-81529400D03*
%TD*%
D23*
%TO.P,U1,1,IOVDD*%
%TO.N,+3.3V*%
X127508000Y-88824000D03*
%TO.P,U1,2,GPIO0*%
%TO.N,GPIO0*%
X127508000Y-89224000D03*
%TO.P,U1,3,GPIO1*%
%TO.N,GPIO1*%
X127508000Y-89624000D03*
%TO.P,U1,4,GPIO2*%
%TO.N,unconnected-(U1-GPIO2-Pad4)*%
X127508000Y-90024000D03*
%TO.P,U1,5,GPIO3*%
%TO.N,unconnected-(U1-GPIO3-Pad5)*%
X127508000Y-90424000D03*
%TO.P,U1,6,GPIO4*%
%TO.N,M_CLK2*%
X127508000Y-90824000D03*
%TO.P,U1,7,GPIO5*%
%TO.N,unconnected-(U1-GPIO5-Pad7)*%
X127508000Y-91224000D03*
%TO.P,U1,8,GPIO6*%
%TO.N,GPIO6*%
X127508000Y-91624000D03*
%TO.P,U1,9,GPIO7*%
%TO.N,GPIO7*%
X127508000Y-92024000D03*
%TO.P,U1,10,IOVDD*%
%TO.N,+3.3V*%
X127508000Y-92424000D03*
%TO.P,U1,11,GPIO8*%
%TO.N,CS_DISPLAY2*%
X127508000Y-92824000D03*
%TO.P,U1,12,GPIO9*%
%TO.N,DC_DISPLAY1*%
X127508000Y-93224000D03*
%TO.P,U1,13,GPIO10*%
%TO.N,DC_DISPLAY2*%
X127508000Y-93624000D03*
%TO.P,U1,14,GPIO11*%
%TO.N,GPIO11*%
X127508000Y-94024000D03*
D24*
%TO.P,U1,15,GPIO12*%
%TO.N,GPIO12*%
X126670500Y-94861500D03*
%TO.P,U1,16,GPIO13*%
%TO.N,ledLow*%
X126270500Y-94861500D03*
%TO.P,U1,17,GPIO14*%
%TO.N,unconnected-(U1-GPIO14-Pad17)*%
X125870500Y-94861500D03*
%TO.P,U1,18,GPIO15*%
%TO.N,unconnected-(U1-GPIO15-Pad18)*%
X125470500Y-94861500D03*
%TO.P,U1,19,TESTEN*%
%TO.N,unconnected-(U1-TESTEN-Pad19)*%
X125070500Y-94861500D03*
%TO.P,U1,20,XIN*%
%TO.N,XTAL_IN*%
X124670500Y-94861500D03*
%TO.P,U1,21,XOUT*%
%TO.N,XTAL_OUT*%
X124270500Y-94861500D03*
%TO.P,U1,22,IOVDD*%
%TO.N,+3.3V*%
X123870500Y-94861500D03*
%TO.P,U1,23,DVDD*%
%TO.N,+1V1*%
X123470500Y-94861500D03*
%TO.P,U1,24,SWCLK*%
%TO.N,unconnected-(U1-SWCLK-Pad24)*%
X123070500Y-94861500D03*
%TO.P,U1,25,SWD*%
%TO.N,unconnected-(U1-SWD-Pad25)*%
X122670500Y-94861500D03*
%TO.P,U1,26,RUN*%
%TO.N,unconnected-(U1-RUN-Pad26)*%
X122270500Y-94861500D03*
%TO.P,U1,27,GPIO16*%
%TO.N,unconnected-(U1-GPIO16-Pad27)*%
X121870500Y-94861500D03*
%TO.P,U1,28,GPIO17*%
%TO.N,unconnected-(U1-GPIO17-Pad28)*%
X121470500Y-94861500D03*
D23*
%TO.P,U1,29,GPIO18*%
%TO.N,unconnected-(U1-GPIO18-Pad29)*%
X120633000Y-94024000D03*
%TO.P,U1,30,GPIO19*%
%TO.N,RX*%
X120633000Y-93624000D03*
%TO.P,U1,31,GPIO20*%
%TO.N,TX*%
X120633000Y-93224000D03*
%TO.P,U1,32,GPIO21*%
%TO.N,unconnected-(U1-GPIO21-Pad32)*%
X120633000Y-92824000D03*
%TO.P,U1,33,IOVDD*%
%TO.N,+3.3V*%
X120633000Y-92424000D03*
%TO.P,U1,34,GPIO22*%
%TO.N,unconnected-(U1-GPIO22-Pad34)*%
X120633000Y-92024000D03*
%TO.P,U1,35,GPIO23*%
%TO.N,unconnected-(U1-GPIO23-Pad35)*%
X120633000Y-91624000D03*
%TO.P,U1,36,GPIO24*%
%TO.N,unconnected-(U1-GPIO24-Pad36)*%
X120633000Y-91224000D03*
%TO.P,U1,37,GPIO25*%
%TO.N,M_CLK1*%
X120633000Y-90824000D03*
%TO.P,U1,38,GPIO26_ADC0*%
%TO.N,unconnected-(U1-GPIO26_ADC0-Pad38)*%
X120633000Y-90424000D03*
%TO.P,U1,39,GPIO27_ADC1*%
%TO.N,unconnected-(U1-GPIO27_ADC1-Pad39)*%
X120633000Y-90024000D03*
%TO.P,U1,40,GPIO28_ADC2*%
%TO.N,unconnected-(U1-GPIO28_ADC2-Pad40)*%
X120633000Y-89624000D03*
%TO.P,U1,41,GPIO29_ADC3*%
%TO.N,unconnected-(U1-GPIO29_ADC3-Pad41)*%
X120633000Y-89224000D03*
%TO.P,U1,42,IOVDD*%
%TO.N,+3.3V*%
X120633000Y-88824000D03*
D24*
%TO.P,U1,43,ADC_AVDD*%
X121470500Y-87986500D03*
%TO.P,U1,44,VREG_IN*%
X121870500Y-87986500D03*
%TO.P,U1,45,VREG_VOUT*%
%TO.N,+1V1*%
X122270500Y-87986500D03*
%TO.P,U1,46,USB_DM*%
%TO.N,Net-(U1-USB_DM)*%
X122670500Y-87986500D03*
%TO.P,U1,47,USB_DP*%
%TO.N,Net-(U1-USB_DP)*%
X123070500Y-87986500D03*
%TO.P,U1,48,USB_VDD*%
%TO.N,+3.3V*%
X123470500Y-87986500D03*
%TO.P,U1,49,IOVDD*%
X123870500Y-87986500D03*
%TO.P,U1,50,DVDD*%
%TO.N,+1V1*%
X124270500Y-87986500D03*
%TO.P,U1,51,QSPI_SD3*%
%TO.N,QSPI_SD3*%
X124670500Y-87986500D03*
%TO.P,U1,52,QSPI_SCLK*%
%TO.N,QSPI_SCLK*%
X125070500Y-87986500D03*
%TO.P,U1,53,QSPI_SD0*%
%TO.N,QSPI_SD0*%
X125470500Y-87986500D03*
%TO.P,U1,54,QSPI_SD2*%
%TO.N,QSPI_SD2*%
X125870500Y-87986500D03*
%TO.P,U1,55,QSPI_SD1*%
%TO.N,QSPI_SD1*%
X126270500Y-87986500D03*
%TO.P,U1,56,QSPI_SS*%
%TO.N,QSPI_SS*%
X126670500Y-87986500D03*
D25*
%TO.P,U1,57,GND*%
%TO.N,GND*%
X124070500Y-91424000D03*
%TD*%
D26*
%TO.P,JP17,1,A*%
%TO.N,Net-(JP13-A)*%
X87265900Y-98350000D03*
D27*
%TO.P,JP17,2,B*%
%TO.N,GND*%
X87265900Y-99650000D03*
%TD*%
D17*
%TO.P,JP10,1,A*%
%TO.N,Net-(JP10-A)*%
X148818600Y-82829400D03*
D18*
%TO.P,JP10,2,B*%
%TO.N,GND*%
X148818600Y-81529400D03*
%TD*%
D28*
%TO.N,+5V*%
X123760606Y-78868857D03*
X110500000Y-103000000D03*
%TO.N,GND*%
X155383600Y-93268800D03*
X126120000Y-89440000D03*
X132940000Y-86270000D03*
X121880000Y-91640000D03*
X155000000Y-98800000D03*
X126170500Y-90350000D03*
X151968200Y-102412800D03*
X131978400Y-101473000D03*
%TO.N,+3.3V*%
X119600000Y-111800000D03*
X120910000Y-87210000D03*
X128778000Y-81483200D03*
X130400000Y-92100000D03*
X101000000Y-90700000D03*
X123709265Y-96009265D03*
X119812741Y-92414385D03*
X120229500Y-88420500D03*
X127910000Y-88290000D03*
X120770000Y-87800000D03*
X106250000Y-87250000D03*
%TO.N,XTAL_IN*%
X125119968Y-95799000D03*
%TO.N,GPIO1*%
X144279535Y-82235600D03*
X140131800Y-79700000D03*
X156651916Y-94501400D03*
X91922600Y-93319600D03*
%TO.N,GPIO0*%
X156700000Y-93459400D03*
X91948000Y-90398600D03*
%TO.N,DC_DISPLAY1*%
X134200000Y-92900000D03*
%TO.N,CS_DISPLAY2*%
X135300000Y-92300000D03*
X137084527Y-92040000D03*
%TO.N,GPIO11*%
X135128000Y-94996000D03*
%TO.N,QSPI_SS*%
X135839200Y-79171800D03*
%TO.N,XTAL_OUT*%
X124573653Y-96383414D03*
%TO.N,Net-(U1-USB_DP)*%
X123320000Y-85350000D03*
%TO.N,Net-(U1-USB_DM)*%
X122250000Y-85370000D03*
%TO.N,Net-(JP3-A)*%
X88417400Y-87198200D03*
%TO.N,Net-(JP5-A)*%
X85877400Y-87198200D03*
%TO.N,Net-(JP7-A)*%
X83337400Y-87198200D03*
%TO.N,Net-(JP9-A)*%
X80797400Y-87198200D03*
%TO.N,Net-(JP11-A)*%
X93497400Y-86944200D03*
%TO.N,Net-(JP4-A)*%
X90957400Y-87198200D03*
%TO.N,Net-(JP6-A)*%
X153898600Y-87147400D03*
%TO.N,Net-(JP8-A)*%
X151358600Y-87147400D03*
%TO.N,Net-(JP10-A)*%
X148818600Y-87147400D03*
%TO.N,Net-(JP12-A)*%
X161518600Y-86893400D03*
%TO.N,+1V1*%
X123700837Y-86911985D03*
X121798985Y-93801015D03*
X122070500Y-86804113D03*
X122080000Y-95990000D03*
%TO.N,Net-(JP1-A)*%
X158978600Y-87147400D03*
%TO.N,Net-(JP2-A)*%
X156438600Y-87147400D03*
%TO.N,ledLow*%
X125200000Y-108200000D03*
%TO.N,M_CLK1*%
X111000000Y-91000000D03*
X107480200Y-88500000D03*
%TO.N,Net-(JP13-A)*%
X88500000Y-97000000D03*
%TO.N,Net-(JP14-A)*%
X156100000Y-95800000D03*
%TD*%
D29*
%TO.N,TX*%
X120633000Y-93224000D02*
X115818000Y-93224000D01*
X115818000Y-93224000D02*
X112520000Y-96522000D01*
X112520000Y-96522000D02*
X112520000Y-98500000D01*
%TO.N,GND*%
X138684000Y-97028000D02*
X143600000Y-97028000D01*
%TO.N,+3.3V*%
X124174140Y-88824000D02*
X121824000Y-88824000D01*
X121824000Y-88824000D02*
X121470500Y-88470500D01*
X121470500Y-88470500D02*
X121470500Y-87986500D01*
%TO.N,+5V*%
X109780200Y-103000000D02*
X108280200Y-101500000D01*
D30*
X108280200Y-75669800D02*
X109500000Y-74450000D01*
X108280200Y-111556800D02*
X106807000Y-113030000D01*
X106807000Y-113030000D02*
X106197400Y-113030000D01*
X106197400Y-113030000D02*
X68097400Y-113030000D01*
D29*
X123760606Y-78868857D02*
X113918857Y-78868857D01*
X110500000Y-103000000D02*
X109780200Y-103000000D01*
D30*
X108280200Y-101500000D02*
X108280200Y-111556800D01*
D29*
X113918857Y-78868857D02*
X109500000Y-74450000D01*
D30*
X108280200Y-101500000D02*
X108280200Y-75669800D01*
D29*
%TO.N,GND*%
X132918200Y-102412800D02*
X131978400Y-101473000D01*
X124070500Y-91424000D02*
X126084500Y-89410000D01*
X126090000Y-89410000D02*
X126120000Y-89440000D01*
X124070500Y-91424000D02*
X122096000Y-91424000D01*
X155383600Y-81829400D02*
X155683600Y-81529400D01*
X126170500Y-90350000D02*
X125096500Y-91424000D01*
X126084500Y-89410000D02*
X126090000Y-89410000D01*
X148818600Y-81529400D02*
X161518600Y-81529400D01*
X88417400Y-81580200D02*
X87662400Y-81580200D01*
X154500000Y-99300000D02*
X155000000Y-98800000D01*
X133940000Y-86270000D02*
X134410000Y-85800000D01*
X152187200Y-102412800D02*
X151968200Y-102412800D01*
X122096000Y-91424000D02*
X121880000Y-91640000D01*
X154500000Y-100100000D02*
X154500000Y-99300000D01*
X125096500Y-91424000D02*
X124070500Y-91424000D01*
X155683600Y-81529400D02*
X156438600Y-81529400D01*
X80797400Y-81580200D02*
X93497400Y-81580200D01*
X87662400Y-81580200D02*
X87362400Y-81880200D01*
X154500000Y-100100000D02*
X152187200Y-102412800D01*
X155383600Y-93268800D02*
X155383600Y-81829400D01*
X151968200Y-102412800D02*
X132918200Y-102412800D01*
X132940000Y-86270000D02*
X133940000Y-86270000D01*
%TO.N,+3.3V*%
X102800000Y-90700000D02*
X101000000Y-90700000D01*
X126770500Y-89027640D02*
X126770500Y-92220360D01*
X123870500Y-95565186D02*
X123870500Y-94861500D01*
X127508000Y-88824000D02*
X126974140Y-88824000D01*
X126974140Y-92424000D02*
X127508000Y-92424000D01*
X123870500Y-93970500D02*
X123870500Y-94327640D01*
X123870500Y-88520360D02*
X124174140Y-88824000D01*
X130400000Y-92100000D02*
X130076000Y-92424000D01*
X120770000Y-87800000D02*
X121284000Y-87800000D01*
X122170500Y-93324000D02*
X122286500Y-93440000D01*
X119822356Y-92424000D02*
X120633000Y-92424000D01*
X121284000Y-87800000D02*
X121470500Y-87986500D01*
X121924000Y-92424000D02*
X122170500Y-92670500D01*
X106250000Y-87250000D02*
X102800000Y-90700000D01*
X121870500Y-87452640D02*
X121870500Y-87986500D01*
X120229500Y-88420500D02*
X120633000Y-88824000D01*
X143600000Y-99568000D02*
X138684000Y-99568000D01*
X122170500Y-92670500D02*
X122170500Y-93324000D01*
X109980000Y-99180000D02*
X119600000Y-108800000D01*
X121627860Y-87210000D02*
X121870500Y-87452640D01*
X127910000Y-88290000D02*
X127910000Y-88422000D01*
X122286500Y-93440000D02*
X123340000Y-93440000D01*
X123870500Y-94327640D02*
X124818140Y-93380000D01*
X120910000Y-87210000D02*
X121627860Y-87210000D01*
X124174140Y-88824000D02*
X127508000Y-88824000D01*
X121470500Y-87986500D02*
X121870500Y-87986500D01*
X123340000Y-93440000D02*
X123870500Y-93970500D01*
X130076000Y-92424000D02*
X127508000Y-92424000D01*
X119600000Y-108800000D02*
X119600000Y-111800000D01*
X120633000Y-88824000D02*
X121470500Y-87986500D01*
X123709265Y-96009265D02*
X123709265Y-95726421D01*
X126770500Y-92220360D02*
X126974140Y-92424000D01*
X123709265Y-95726421D02*
X123870500Y-95565186D01*
X128271200Y-81990000D02*
X128778000Y-81483200D01*
X126974140Y-88824000D02*
X126770500Y-89027640D01*
X126018140Y-93380000D02*
X126974140Y-92424000D01*
X109980000Y-98500000D02*
X109980000Y-99180000D01*
X124818140Y-93380000D02*
X126018140Y-93380000D01*
X119812741Y-92414385D02*
X119822356Y-92424000D01*
X120633000Y-92424000D02*
X121924000Y-92424000D01*
X123870500Y-94861500D02*
X123870500Y-94327640D01*
X127910000Y-88422000D02*
X127508000Y-88824000D01*
X127210000Y-81990000D02*
X128271200Y-81990000D01*
X123470500Y-87986500D02*
X123870500Y-87986500D01*
X123870500Y-87986500D02*
X123870500Y-88520360D01*
%TO.N,XTAL_IN*%
X125119968Y-95799000D02*
X125000968Y-95680000D01*
X124955140Y-95680000D02*
X124670500Y-95395360D01*
X125000968Y-95680000D02*
X124955140Y-95680000D01*
X124670500Y-95395360D02*
X124670500Y-94861500D01*
D30*
%TO.N,+12V*%
X136118600Y-113030000D02*
X174218600Y-113030000D01*
D29*
%TO.N,GPIO1*%
X108931546Y-72000000D02*
X94715773Y-86215773D01*
X146700000Y-88330800D02*
X146700000Y-84520800D01*
X156457303Y-94700000D02*
X153069200Y-94700000D01*
X136906000Y-83194000D02*
X136906000Y-86491058D01*
X140131800Y-76758800D02*
X135373000Y-72000000D01*
X91389543Y-89902000D02*
X91348000Y-89902000D01*
X136906000Y-86491058D02*
X133319058Y-90078000D01*
X135373000Y-72000000D02*
X108931546Y-72000000D01*
X146700000Y-84520800D02*
X143679200Y-81500000D01*
X131448200Y-89624000D02*
X127508000Y-89624000D01*
X94715773Y-86215773D02*
X94715773Y-86575770D01*
X94715773Y-86575770D02*
X91389543Y-89902000D01*
X140131800Y-79700000D02*
X140131800Y-76758800D01*
X156651916Y-94501400D02*
X156651916Y-94505387D01*
X91348000Y-89902000D02*
X91348000Y-92745000D01*
X91348000Y-92745000D02*
X91922600Y-93319600D01*
X143679200Y-81500000D02*
X138600000Y-81500000D01*
X156651916Y-94505387D02*
X156457303Y-94700000D01*
X153069200Y-94700000D02*
X146700000Y-88330800D01*
X133319058Y-90078000D02*
X131902200Y-90078000D01*
X131902200Y-90078000D02*
X131448200Y-89624000D01*
X138600000Y-81500000D02*
X136906000Y-83194000D01*
%TO.N,GPIO0*%
X109256554Y-72500000D02*
X122209448Y-72500000D01*
X136320000Y-82280000D02*
X137134958Y-81465042D01*
X95116773Y-86741870D02*
X95116773Y-86639781D01*
X137759544Y-78571800D02*
X138589000Y-79401256D01*
X138589000Y-79401256D02*
X138589000Y-80892400D01*
X133607372Y-89224000D02*
X136320000Y-86511372D01*
X156495489Y-93663911D02*
X156700000Y-93459400D01*
X147200000Y-84208000D02*
X147200000Y-87891000D01*
X122209448Y-72500000D02*
X128281248Y-78571800D01*
X156246689Y-93663911D02*
X156495489Y-93663911D01*
X138016358Y-81465042D02*
X137134958Y-81465042D01*
X143884400Y-80892400D02*
X147200000Y-84208000D01*
X153177800Y-93868800D02*
X156041800Y-93868800D01*
X94881873Y-86976770D02*
X95116773Y-86741870D01*
X147200000Y-87891000D02*
X153177800Y-93868800D01*
X95116773Y-86639781D02*
X109256554Y-72500000D01*
X156041800Y-93868800D02*
X156246689Y-93663911D01*
X91948000Y-89910643D02*
X94881873Y-86976770D01*
X127508000Y-89224000D02*
X133607372Y-89224000D01*
X128281248Y-78571800D02*
X137759544Y-78571800D01*
X138589000Y-80892400D02*
X143884400Y-80892400D01*
X138589000Y-80892400D02*
X138016358Y-81465042D01*
X136320000Y-86511372D02*
X136320000Y-82280000D01*
X91948000Y-90398600D02*
X91948000Y-89910643D01*
%TO.N,DC_DISPLAY2*%
X138087654Y-95758000D02*
X135953654Y-93624000D01*
X145200000Y-95300000D02*
X144742000Y-95758000D01*
X144742000Y-95758000D02*
X138087654Y-95758000D01*
X143600000Y-86868000D02*
X145200000Y-88468000D01*
X145200000Y-88468000D02*
X145200000Y-95300000D01*
X135953654Y-93624000D02*
X127508000Y-93624000D01*
%TO.N,DC_DISPLAY1*%
X134200000Y-92900000D02*
X133876000Y-93224000D01*
X133876000Y-93224000D02*
X127508000Y-93224000D01*
%TO.N,GPIO12*%
X143744459Y-101600000D02*
X135648529Y-101600000D01*
X135648529Y-101600000D02*
X128910029Y-94861500D01*
X145800000Y-86628000D02*
X145800000Y-99544459D01*
X145800000Y-99544459D02*
X143744459Y-101600000D01*
X128910029Y-94861500D02*
X126670500Y-94861500D01*
X143500000Y-84328000D02*
X145800000Y-86628000D01*
%TO.N,CS_DISPLAY2*%
X127508000Y-92824000D02*
X133427471Y-92824000D01*
X133427471Y-92824000D02*
X133951471Y-92300000D01*
X144800000Y-90708000D02*
X144800000Y-92400000D01*
X144100000Y-93100000D02*
X138000000Y-93100000D01*
X143500000Y-89408000D02*
X144800000Y-90708000D01*
X137060000Y-92040000D02*
X137084527Y-92040000D01*
X138000000Y-93100000D02*
X137000000Y-92100000D01*
X144800000Y-92400000D02*
X144100000Y-93100000D01*
X133951471Y-92300000D02*
X135300000Y-92300000D01*
X137000000Y-92100000D02*
X137060000Y-92040000D01*
%TO.N,GPIO7*%
X135696000Y-91500000D02*
X138684000Y-94488000D01*
X129800000Y-91500000D02*
X135696000Y-91500000D01*
X127508000Y-92024000D02*
X129276000Y-92024000D01*
X138684000Y-94488000D02*
X142748000Y-94488000D01*
X129276000Y-92024000D02*
X129800000Y-91500000D01*
%TO.N,GPIO6*%
X129500000Y-91100000D02*
X128976000Y-91624000D01*
X143600000Y-91948000D02*
X138684000Y-91948000D01*
X137836000Y-91100000D02*
X129500000Y-91100000D01*
X128976000Y-91624000D02*
X127508000Y-91624000D01*
X138684000Y-91948000D02*
X137836000Y-91100000D01*
%TO.N,GPIO11*%
X127508000Y-94024000D02*
X134156000Y-94024000D01*
X134156000Y-94024000D02*
X135128000Y-94996000D01*
%TO.N,Net-(J1-Pin_2)*%
X135864000Y-76936000D02*
X133604000Y-74676000D01*
X137414000Y-76936000D02*
X135864000Y-76936000D01*
%TO.N,QSPI_SS*%
X135920000Y-82630000D02*
X135280000Y-81990000D01*
X137414000Y-80036000D02*
X136703400Y-80036000D01*
X135920000Y-86345686D02*
X135920000Y-82630000D01*
X134995686Y-87270000D02*
X135920000Y-86345686D01*
X127387000Y-87270000D02*
X134995686Y-87270000D01*
X135280000Y-81990000D02*
X134410000Y-81990000D01*
X136703400Y-80036000D02*
X135839200Y-79171800D01*
X136364000Y-80036000D02*
X134410000Y-81990000D01*
X126670500Y-87986500D02*
X127387000Y-87270000D01*
X137414000Y-80036000D02*
X136364000Y-80036000D01*
%TO.N,XTAL_OUT*%
X124270500Y-95721971D02*
X124270500Y-94861500D01*
X124309265Y-96119026D02*
X124309265Y-95760736D01*
X124309265Y-95760736D02*
X124270500Y-95721971D01*
X124573653Y-96383414D02*
X124309265Y-96119026D01*
%TO.N,Net-(U1-USB_DP)*%
X123070500Y-85599500D02*
X123070500Y-87986500D01*
X123320000Y-85350000D02*
X123070500Y-85599500D01*
%TO.N,Net-(U1-USB_DM)*%
X122250000Y-85370000D02*
X122670500Y-85790500D01*
X122670500Y-85790500D02*
X122670500Y-87986500D01*
%TO.N,Net-(JP3-A)*%
X88417400Y-87198200D02*
X88417400Y-82880200D01*
%TO.N,Net-(JP5-A)*%
X85877400Y-82880200D02*
X85877400Y-87198200D01*
%TO.N,Net-(JP7-A)*%
X83337400Y-87198200D02*
X83337400Y-82880200D01*
%TO.N,Net-(JP9-A)*%
X80797400Y-82880200D02*
X80797400Y-87198200D01*
%TO.N,Net-(JP11-A)*%
X93497400Y-82880200D02*
X93497400Y-86944200D01*
%TO.N,Net-(JP4-A)*%
X90957400Y-82880200D02*
X90957400Y-87198200D01*
%TO.N,Net-(JP6-A)*%
X153898600Y-82829400D02*
X153898600Y-87147400D01*
%TO.N,Net-(JP8-A)*%
X151358600Y-87147400D02*
X151358600Y-82829400D01*
%TO.N,Net-(JP10-A)*%
X148818600Y-82829400D02*
X148818600Y-87147400D01*
%TO.N,Net-(JP12-A)*%
X161518600Y-82829400D02*
X161518600Y-86893400D01*
%TO.N,+1V1*%
X122070500Y-86834069D02*
X122270500Y-87034069D01*
X123729845Y-86911985D02*
X124270500Y-87452640D01*
X123470500Y-95399500D02*
X123470500Y-94861500D01*
X122080000Y-95990000D02*
X122880000Y-95990000D01*
X123700837Y-86911985D02*
X123729845Y-86911985D01*
X122070500Y-86804113D02*
X122070500Y-86834069D01*
X121897970Y-93900000D02*
X121798985Y-93801015D01*
X123042860Y-93900000D02*
X121897970Y-93900000D01*
X123470500Y-94861500D02*
X123470500Y-94327640D01*
X123470500Y-94327640D02*
X123042860Y-93900000D01*
X122270500Y-87034069D02*
X122270500Y-87986500D01*
X122880000Y-95990000D02*
X123470500Y-95399500D01*
X124270500Y-87452640D02*
X124270500Y-87986500D01*
%TO.N,QSPI_SCLK*%
X125070500Y-87986500D02*
X125070500Y-85869501D01*
X126410001Y-84530000D02*
X127210000Y-84530000D01*
X125070500Y-85869501D02*
X126410001Y-84530000D01*
%TO.N,QSPI_SD2*%
X131520000Y-86470000D02*
X133460000Y-84530000D01*
X125870500Y-87986500D02*
X125870500Y-86889500D01*
X126290000Y-86470000D02*
X131520000Y-86470000D01*
X133460000Y-84530000D02*
X134410000Y-84530000D01*
X125870500Y-86889500D02*
X126290000Y-86470000D01*
%TO.N,QSPI_SD3*%
X126410001Y-83260000D02*
X127210000Y-83260000D01*
X124670500Y-84999501D02*
X126410001Y-83260000D01*
X124670500Y-87986500D02*
X124670500Y-84999501D01*
%TO.N,QSPI_SD1*%
X126270500Y-87986500D02*
X126270500Y-87452640D01*
X134830000Y-86870000D02*
X135520000Y-86180000D01*
X126270500Y-87452640D02*
X126853140Y-86870000D01*
X135520000Y-83570001D02*
X135209999Y-83260000D01*
X135209999Y-83260000D02*
X134410000Y-83260000D01*
X135520000Y-86180000D02*
X135520000Y-83570001D01*
X126853140Y-86870000D02*
X134830000Y-86870000D01*
%TO.N,QSPI_SD0*%
X126394314Y-85800000D02*
X125470500Y-86723814D01*
X127210000Y-85800000D02*
X126394314Y-85800000D01*
X125470500Y-86723814D02*
X125470500Y-87986500D01*
%TO.N,Net-(JP1-A)*%
X158978600Y-82829400D02*
X158978600Y-87147400D01*
%TO.N,Net-(JP2-A)*%
X156438600Y-87147400D02*
X156438600Y-82829400D01*
%TO.N,ledLow*%
X125200000Y-96741000D02*
X126270500Y-95670500D01*
X126270500Y-95670500D02*
X126270500Y-94861500D01*
X125200000Y-108200000D02*
X125200000Y-96741000D01*
%TO.N,M_CLK1*%
X102650001Y-94350000D02*
X87200000Y-94350000D01*
X111176000Y-90824000D02*
X111000000Y-91000000D01*
X107500000Y-89500000D02*
X102650001Y-94350000D01*
X120633000Y-90824000D02*
X111176000Y-90824000D01*
X107480200Y-88500000D02*
X107500000Y-88519800D01*
X107500000Y-88519800D02*
X107500000Y-89500000D01*
%TO.N,Net-(JP13-A)*%
X87200000Y-98284100D02*
X87265900Y-98350000D01*
X88500000Y-96950000D02*
X87200000Y-95650000D01*
X88500000Y-97000000D02*
X88500000Y-96950000D01*
X87200000Y-95650000D02*
X87200000Y-98284100D01*
%TO.N,M_CLK2*%
X138700000Y-82100000D02*
X143100000Y-82100000D01*
X128301000Y-90699000D02*
X133265158Y-90699000D01*
X128176000Y-90824000D02*
X128301000Y-90699000D01*
X127508000Y-90824000D02*
X128176000Y-90824000D01*
X146299000Y-94099000D02*
X149500000Y-97300000D01*
X137307000Y-83493000D02*
X138700000Y-82100000D01*
X143100000Y-82100000D02*
X146299000Y-85299000D01*
X146299000Y-85299000D02*
X146299000Y-94099000D01*
X137307000Y-86657158D02*
X137307000Y-83493000D01*
X149500000Y-97300000D02*
X154318600Y-97300000D01*
X154318600Y-97300000D02*
X154518600Y-97500000D01*
X133265158Y-90699000D02*
X137307000Y-86657158D01*
%TO.N,Net-(JP14-A)*%
X155818600Y-97500000D02*
X155818600Y-100081400D01*
X155818600Y-100081400D02*
X155800000Y-100100000D01*
X155818600Y-96081400D02*
X156100000Y-95800000D01*
X155818600Y-97500000D02*
X155818600Y-96081400D01*
%TO.N,RX*%
X117976000Y-93624000D02*
X115060000Y-96540000D01*
X120633000Y-93624000D02*
X117976000Y-93624000D01*
X115060000Y-96540000D02*
X115060000Y-98500000D01*
%TD*%
%TA.AperFunction,Conductor*%
%TO.N,GND*%
G36*
X70171475Y-115377007D02*
G01*
X70137400Y-115504174D01*
X70137400Y-115635826D01*
X70171475Y-115762993D01*
X70204388Y-115820000D01*
X68530412Y-115820000D01*
X68563325Y-115762993D01*
X68597400Y-115635826D01*
X68597400Y-115504174D01*
X68563325Y-115377007D01*
X68530412Y-115320000D01*
X70204388Y-115320000D01*
X70171475Y-115377007D01*
G37*
%TD.AperFunction*%
%TA.AperFunction,Conductor*%
G36*
X72711475Y-115377007D02*
G01*
X72677400Y-115504174D01*
X72677400Y-115635826D01*
X72711475Y-115762993D01*
X72744388Y-115820000D01*
X71070412Y-115820000D01*
X71103325Y-115762993D01*
X71137400Y-115635826D01*
X71137400Y-115504174D01*
X71103325Y-115377007D01*
X71070412Y-115320000D01*
X72744388Y-115320000D01*
X72711475Y-115377007D01*
G37*
%TD.AperFunction*%
%TA.AperFunction,Conductor*%
G36*
X75251475Y-115377007D02*
G01*
X75217400Y-115504174D01*
X75217400Y-115635826D01*
X75251475Y-115762993D01*
X75284388Y-115820000D01*
X73610412Y-115820000D01*
X73643325Y-115762993D01*
X73677400Y-115635826D01*
X73677400Y-115504174D01*
X73643325Y-115377007D01*
X73610412Y-115320000D01*
X75284388Y-115320000D01*
X75251475Y-115377007D01*
G37*
%TD.AperFunction*%
%TA.AperFunction,Conductor*%
G36*
X77791475Y-115377007D02*
G01*
X77757400Y-115504174D01*
X77757400Y-115635826D01*
X77791475Y-115762993D01*
X77824388Y-115820000D01*
X76150412Y-115820000D01*
X76183325Y-115762993D01*
X76217400Y-115635826D01*
X76217400Y-115504174D01*
X76183325Y-115377007D01*
X76150412Y-115320000D01*
X77824388Y-115320000D01*
X77791475Y-115377007D01*
G37*
%TD.AperFunction*%
%TA.AperFunction,Conductor*%
G36*
X80331475Y-115377007D02*
G01*
X80297400Y-115504174D01*
X80297400Y-115635826D01*
X80331475Y-115762993D01*
X80364388Y-115820000D01*
X78690412Y-115820000D01*
X78723325Y-115762993D01*
X78757400Y-115635826D01*
X78757400Y-115504174D01*
X78723325Y-115377007D01*
X78690412Y-115320000D01*
X80364388Y-115320000D01*
X80331475Y-115377007D01*
G37*
%TD.AperFunction*%
%TA.AperFunction,Conductor*%
G36*
X82871475Y-115377007D02*
G01*
X82837400Y-115504174D01*
X82837400Y-115635826D01*
X82871475Y-115762993D01*
X82904388Y-115820000D01*
X81230412Y-115820000D01*
X81263325Y-115762993D01*
X81297400Y-115635826D01*
X81297400Y-115504174D01*
X81263325Y-115377007D01*
X81230412Y-115320000D01*
X82904388Y-115320000D01*
X82871475Y-115377007D01*
G37*
%TD.AperFunction*%
%TA.AperFunction,Conductor*%
G36*
X85411475Y-115377007D02*
G01*
X85377400Y-115504174D01*
X85377400Y-115635826D01*
X85411475Y-115762993D01*
X85444388Y-115820000D01*
X83770412Y-115820000D01*
X83803325Y-115762993D01*
X83837400Y-115635826D01*
X83837400Y-115504174D01*
X83803325Y-115377007D01*
X83770412Y-115320000D01*
X85444388Y-115320000D01*
X85411475Y-115377007D01*
G37*
%TD.AperFunction*%
%TA.AperFunction,Conductor*%
G36*
X87951475Y-115377007D02*
G01*
X87917400Y-115504174D01*
X87917400Y-115635826D01*
X87951475Y-115762993D01*
X87984388Y-115820000D01*
X86310412Y-115820000D01*
X86343325Y-115762993D01*
X86377400Y-115635826D01*
X86377400Y-115504174D01*
X86343325Y-115377007D01*
X86310412Y-115320000D01*
X87984388Y-115320000D01*
X87951475Y-115377007D01*
G37*
%TD.AperFunction*%
%TA.AperFunction,Conductor*%
G36*
X90491475Y-115377007D02*
G01*
X90457400Y-115504174D01*
X90457400Y-115635826D01*
X90491475Y-115762993D01*
X90524388Y-115820000D01*
X88850412Y-115820000D01*
X88883325Y-115762993D01*
X88917400Y-115635826D01*
X88917400Y-115504174D01*
X88883325Y-115377007D01*
X88850412Y-115320000D01*
X90524388Y-115320000D01*
X90491475Y-115377007D01*
G37*
%TD.AperFunction*%
%TA.AperFunction,Conductor*%
G36*
X93031475Y-115377007D02*
G01*
X92997400Y-115504174D01*
X92997400Y-115635826D01*
X93031475Y-115762993D01*
X93064388Y-115820000D01*
X91390412Y-115820000D01*
X91423325Y-115762993D01*
X91457400Y-115635826D01*
X91457400Y-115504174D01*
X91423325Y-115377007D01*
X91390412Y-115320000D01*
X93064388Y-115320000D01*
X93031475Y-115377007D01*
G37*
%TD.AperFunction*%
%TA.AperFunction,Conductor*%
G36*
X95571475Y-115377007D02*
G01*
X95537400Y-115504174D01*
X95537400Y-115635826D01*
X95571475Y-115762993D01*
X95604388Y-115820000D01*
X93930412Y-115820000D01*
X93963325Y-115762993D01*
X93997400Y-115635826D01*
X93997400Y-115504174D01*
X93963325Y-115377007D01*
X93930412Y-115320000D01*
X95604388Y-115320000D01*
X95571475Y-115377007D01*
G37*
%TD.AperFunction*%
%TA.AperFunction,Conductor*%
G36*
X98111475Y-115377007D02*
G01*
X98077400Y-115504174D01*
X98077400Y-115635826D01*
X98111475Y-115762993D01*
X98144388Y-115820000D01*
X96470412Y-115820000D01*
X96503325Y-115762993D01*
X96537400Y-115635826D01*
X96537400Y-115504174D01*
X96503325Y-115377007D01*
X96470412Y-115320000D01*
X98144388Y-115320000D01*
X98111475Y-115377007D01*
G37*
%TD.AperFunction*%
%TA.AperFunction,Conductor*%
G36*
X100651475Y-115377007D02*
G01*
X100617400Y-115504174D01*
X100617400Y-115635826D01*
X100651475Y-115762993D01*
X100684388Y-115820000D01*
X99010412Y-115820000D01*
X99043325Y-115762993D01*
X99077400Y-115635826D01*
X99077400Y-115504174D01*
X99043325Y-115377007D01*
X99010412Y-115320000D01*
X100684388Y-115320000D01*
X100651475Y-115377007D01*
G37*
%TD.AperFunction*%
%TA.AperFunction,Conductor*%
G36*
X103191475Y-115377007D02*
G01*
X103157400Y-115504174D01*
X103157400Y-115635826D01*
X103191475Y-115762993D01*
X103224388Y-115820000D01*
X101550412Y-115820000D01*
X101583325Y-115762993D01*
X101617400Y-115635826D01*
X101617400Y-115504174D01*
X101583325Y-115377007D01*
X101550412Y-115320000D01*
X103224388Y-115320000D01*
X103191475Y-115377007D01*
G37*
%TD.AperFunction*%
%TA.AperFunction,Conductor*%
G36*
X105731475Y-115377007D02*
G01*
X105697400Y-115504174D01*
X105697400Y-115635826D01*
X105731475Y-115762993D01*
X105764388Y-115820000D01*
X104090412Y-115820000D01*
X104123325Y-115762993D01*
X104157400Y-115635826D01*
X104157400Y-115504174D01*
X104123325Y-115377007D01*
X104090412Y-115320000D01*
X105764388Y-115320000D01*
X105731475Y-115377007D01*
G37*
%TD.AperFunction*%
%TA.AperFunction,Conductor*%
G36*
X136045936Y-94584065D02*
G01*
X136094456Y-94614037D01*
X136845443Y-95365025D01*
X137568733Y-96088315D01*
X137602218Y-96149638D01*
X137597234Y-96219330D01*
X137581371Y-96248880D01*
X137529377Y-96320445D01*
X137529376Y-96320447D01*
X137432904Y-96509782D01*
X137367242Y-96711870D01*
X137367242Y-96711873D01*
X137356769Y-96778000D01*
X138250988Y-96778000D01*
X138218075Y-96835007D01*
X138184000Y-96962174D01*
X138184000Y-97093826D01*
X138218075Y-97220993D01*
X138250988Y-97278000D01*
X137356769Y-97278000D01*
X137367242Y-97344126D01*
X137367242Y-97344129D01*
X137432904Y-97546217D01*
X137529379Y-97735557D01*
X137654272Y-97907459D01*
X137654276Y-97907464D01*
X137767946Y-98021134D01*
X137801431Y-98082457D01*
X137796447Y-98152149D01*
X137754575Y-98208082D01*
X137723598Y-98224997D01*
X137591671Y-98274202D01*
X137591664Y-98274206D01*
X137476455Y-98360452D01*
X137476452Y-98360455D01*
X137390206Y-98475664D01*
X137390202Y-98475671D01*
X137339908Y-98610517D01*
X137333501Y-98670116D01*
X137333501Y-98670123D01*
X137333500Y-98670135D01*
X137333500Y-100465870D01*
X137333501Y-100465876D01*
X137339908Y-100525483D01*
X137390202Y-100660328D01*
X137390206Y-100660335D01*
X137476452Y-100775544D01*
X137476453Y-100775544D01*
X137476454Y-100775546D01*
X137477371Y-100776233D01*
X137478058Y-100777150D01*
X137482725Y-100781817D01*
X137482054Y-100782487D01*
X137519243Y-100832165D01*
X137524229Y-100901856D01*
X137490745Y-100963180D01*
X137429422Y-100996666D01*
X137403062Y-100999500D01*
X135948626Y-100999500D01*
X135881587Y-100979815D01*
X135860945Y-100963181D01*
X129733945Y-94836181D01*
X129700460Y-94774858D01*
X129705444Y-94705166D01*
X129747316Y-94649233D01*
X129812780Y-94624816D01*
X129821626Y-94624500D01*
X133855903Y-94624500D01*
X133922942Y-94644185D01*
X133943584Y-94660819D01*
X134293425Y-95010660D01*
X134326910Y-95071983D01*
X134327361Y-95074149D01*
X134358261Y-95229491D01*
X134358264Y-95229501D01*
X134418602Y-95375172D01*
X134418609Y-95375185D01*
X134506210Y-95506288D01*
X134506213Y-95506292D01*
X134617707Y-95617786D01*
X134617711Y-95617789D01*
X134748814Y-95705390D01*
X134748827Y-95705397D01*
X134871802Y-95756334D01*
X134894503Y-95765737D01*
X135010835Y-95788877D01*
X135049153Y-95796499D01*
X135049156Y-95796500D01*
X135049158Y-95796500D01*
X135206844Y-95796500D01*
X135206845Y-95796499D01*
X135361497Y-95765737D01*
X135507179Y-95705394D01*
X135638289Y-95617789D01*
X135749789Y-95506289D01*
X135837394Y-95375179D01*
X135897737Y-95229497D01*
X135928500Y-95074842D01*
X135928500Y-94917158D01*
X135928500Y-94917155D01*
X135928499Y-94917153D01*
X135921224Y-94880579D01*
X135897737Y-94762503D01*
X135892215Y-94749171D01*
X135884746Y-94679702D01*
X135916021Y-94617223D01*
X135976110Y-94581571D01*
X136045936Y-94584065D01*
G37*
%TD.AperFunction*%
%TA.AperFunction,Conductor*%
G36*
X145147425Y-96301025D02*
G01*
X145190617Y-96355946D01*
X145199500Y-96402034D01*
X145199500Y-99244361D01*
X145190855Y-99273801D01*
X145184332Y-99303788D01*
X145180577Y-99308803D01*
X145179815Y-99311400D01*
X145163181Y-99332042D01*
X145162180Y-99333043D01*
X145100857Y-99366528D01*
X145031165Y-99361544D01*
X144975232Y-99319672D01*
X144950815Y-99254208D01*
X144950499Y-99245362D01*
X144950499Y-98670129D01*
X144950498Y-98670123D01*
X144950497Y-98670116D01*
X144944091Y-98610517D01*
X144942513Y-98606287D01*
X144893797Y-98475671D01*
X144893793Y-98475664D01*
X144807547Y-98360455D01*
X144807544Y-98360452D01*
X144692335Y-98274206D01*
X144692328Y-98274202D01*
X144560401Y-98224997D01*
X144504467Y-98183126D01*
X144480050Y-98117662D01*
X144494902Y-98049389D01*
X144516053Y-98021133D01*
X144629728Y-97907458D01*
X144754620Y-97735557D01*
X144851095Y-97546217D01*
X144916757Y-97344129D01*
X144916757Y-97344126D01*
X144927231Y-97278000D01*
X144033012Y-97278000D01*
X144065925Y-97220993D01*
X144100000Y-97093826D01*
X144100000Y-96962174D01*
X144065925Y-96835007D01*
X144033012Y-96778000D01*
X144927231Y-96778000D01*
X144916757Y-96711873D01*
X144916757Y-96711870D01*
X144851096Y-96509784D01*
X144849184Y-96506032D01*
X144836285Y-96437364D01*
X144862559Y-96372622D01*
X144919664Y-96332363D01*
X144927543Y-96329967D01*
X144973785Y-96317577D01*
X145013499Y-96294647D01*
X145081398Y-96278174D01*
X145147425Y-96301025D01*
G37*
%TD.AperFunction*%
%TA.AperFunction,Conductor*%
G36*
X142294427Y-96378185D02*
G01*
X142340182Y-96430989D01*
X142350126Y-96500147D01*
X142345319Y-96520818D01*
X142283242Y-96711870D01*
X142283242Y-96711873D01*
X142272769Y-96778000D01*
X143166988Y-96778000D01*
X143134075Y-96835007D01*
X143100000Y-96962174D01*
X143100000Y-97093826D01*
X143134075Y-97220993D01*
X143166988Y-97278000D01*
X142272769Y-97278000D01*
X142283242Y-97344126D01*
X142283242Y-97344129D01*
X142348904Y-97546217D01*
X142445379Y-97735557D01*
X142570272Y-97907459D01*
X142570276Y-97907464D01*
X142683946Y-98021134D01*
X142717431Y-98082457D01*
X142712447Y-98152149D01*
X142670575Y-98208082D01*
X142639598Y-98224997D01*
X142507671Y-98274202D01*
X142507664Y-98274206D01*
X142392455Y-98360452D01*
X142392452Y-98360455D01*
X142306206Y-98475664D01*
X142306202Y-98475671D01*
X142255908Y-98610517D01*
X142249501Y-98670116D01*
X142249501Y-98670123D01*
X142249500Y-98670135D01*
X142249500Y-98843500D01*
X142229815Y-98910539D01*
X142177011Y-98956294D01*
X142125500Y-98967500D01*
X140158499Y-98967500D01*
X140091460Y-98947815D01*
X140045705Y-98895011D01*
X140034499Y-98843500D01*
X140034499Y-98670129D01*
X140034498Y-98670123D01*
X140034497Y-98670116D01*
X140028091Y-98610517D01*
X140026513Y-98606287D01*
X139977797Y-98475671D01*
X139977793Y-98475664D01*
X139891547Y-98360455D01*
X139891544Y-98360452D01*
X139776335Y-98274206D01*
X139776328Y-98274202D01*
X139644401Y-98224997D01*
X139588467Y-98183126D01*
X139564050Y-98117662D01*
X139578902Y-98049389D01*
X139600053Y-98021133D01*
X139713728Y-97907458D01*
X139838620Y-97735557D01*
X139935095Y-97546217D01*
X140000757Y-97344129D01*
X140000757Y-97344126D01*
X140011231Y-97278000D01*
X139117012Y-97278000D01*
X139149925Y-97220993D01*
X139184000Y-97093826D01*
X139184000Y-96962174D01*
X139149925Y-96835007D01*
X139117012Y-96778000D01*
X140011231Y-96778000D01*
X140000757Y-96711873D01*
X140000757Y-96711870D01*
X139938681Y-96520818D01*
X139936686Y-96450977D01*
X139972767Y-96391144D01*
X140035468Y-96360316D01*
X140056612Y-96358500D01*
X142227388Y-96358500D01*
X142294427Y-96378185D01*
G37*
%TD.AperFunction*%
%TA.AperFunction,Conductor*%
G36*
X117223115Y-73120185D02*
G01*
X117268870Y-73172989D01*
X117278814Y-73242147D01*
X117259178Y-73293391D01*
X117223814Y-73346315D01*
X117223807Y-73346328D01*
X117148430Y-73528306D01*
X117148427Y-73528318D01*
X117110000Y-73721504D01*
X117110000Y-74120000D01*
X117810000Y-74120000D01*
X117810000Y-74620000D01*
X117110000Y-74620000D01*
X117110000Y-75018495D01*
X117148427Y-75211681D01*
X117148430Y-75211693D01*
X117223807Y-75393671D01*
X117223814Y-75393684D01*
X117333248Y-75557462D01*
X117333251Y-75557466D01*
X117472533Y-75696748D01*
X117472537Y-75696751D01*
X117636315Y-75806185D01*
X117636328Y-75806192D01*
X117818308Y-75881569D01*
X117860000Y-75889862D01*
X117860000Y-75086988D01*
X117869940Y-75104205D01*
X117925795Y-75160060D01*
X117994204Y-75199556D01*
X118070504Y-75220000D01*
X118149496Y-75220000D01*
X118225796Y-75199556D01*
X118294205Y-75160060D01*
X118350060Y-75104205D01*
X118360000Y-75086988D01*
X118360000Y-75889862D01*
X118401690Y-75881569D01*
X118401692Y-75881569D01*
X118583671Y-75806192D01*
X118583684Y-75806185D01*
X118747462Y-75696751D01*
X118747466Y-75696748D01*
X118886748Y-75557466D01*
X118886751Y-75557462D01*
X118996185Y-75393684D01*
X118996192Y-75393671D01*
X119071569Y-75211693D01*
X119071572Y-75211681D01*
X119109999Y-75018495D01*
X119110000Y-75018492D01*
X119110000Y-74620000D01*
X118410000Y-74620000D01*
X118410000Y-74120000D01*
X118965536Y-74120000D01*
X119032575Y-74139685D01*
X119072923Y-74182000D01*
X119079482Y-74193361D01*
X119079484Y-74193364D01*
X119079485Y-74193365D01*
X119186635Y-74300515D01*
X119317865Y-74376281D01*
X119464234Y-74415500D01*
X119464236Y-74415500D01*
X119615764Y-74415500D01*
X119615766Y-74415500D01*
X119762135Y-74376281D01*
X119893365Y-74300515D01*
X120000515Y-74193365D01*
X120076281Y-74062135D01*
X120115500Y-73915766D01*
X120115500Y-73764234D01*
X120076281Y-73617865D01*
X120000515Y-73486635D01*
X119893365Y-73379485D01*
X119810922Y-73331886D01*
X119762708Y-73281319D01*
X119749486Y-73212712D01*
X119775454Y-73147848D01*
X119832368Y-73107320D01*
X119872924Y-73100500D01*
X121909351Y-73100500D01*
X121976390Y-73120185D01*
X121997032Y-73136819D01*
X127796387Y-78936174D01*
X127796397Y-78936185D01*
X127800727Y-78940515D01*
X127800728Y-78940516D01*
X127912532Y-79052320D01*
X127912534Y-79052321D01*
X127912538Y-79052324D01*
X127982915Y-79092956D01*
X127982919Y-79092957D01*
X127982920Y-79092958D01*
X128049463Y-79131377D01*
X128202191Y-79172301D01*
X128202194Y-79172301D01*
X128367901Y-79172301D01*
X128367917Y-79172300D01*
X134921352Y-79172300D01*
X134988391Y-79191985D01*
X135034146Y-79244789D01*
X135042969Y-79272108D01*
X135069461Y-79405291D01*
X135069464Y-79405301D01*
X135129802Y-79550972D01*
X135129809Y-79550985D01*
X135217410Y-79682088D01*
X135217413Y-79682092D01*
X135328910Y-79793589D01*
X135460006Y-79881184D01*
X135504811Y-79934796D01*
X135513518Y-80004121D01*
X135483364Y-80067148D01*
X135478796Y-80071967D01*
X134397584Y-81153181D01*
X134336261Y-81186666D01*
X134309903Y-81189500D01*
X133694298Y-81189500D01*
X133657432Y-81192401D01*
X133657426Y-81192402D01*
X133499606Y-81238254D01*
X133499603Y-81238255D01*
X133358137Y-81321917D01*
X133358129Y-81321923D01*
X133241923Y-81438129D01*
X133241917Y-81438137D01*
X133158255Y-81579603D01*
X133158254Y-81579606D01*
X133112402Y-81737426D01*
X133112401Y-81737432D01*
X133109500Y-81774298D01*
X133109500Y-82205701D01*
X133112401Y-82242567D01*
X133112402Y-82242573D01*
X133158254Y-82400393D01*
X133158255Y-82400396D01*
X133241917Y-82541862D01*
X133246702Y-82548031D01*
X133244256Y-82549927D01*
X133270857Y-82598642D01*
X133265873Y-82668334D01*
X133245069Y-82700703D01*
X133246702Y-82701969D01*
X133241917Y-82708137D01*
X133158255Y-82849603D01*
X133158254Y-82849606D01*
X133112402Y-83007426D01*
X133112401Y-83007432D01*
X133109500Y-83044298D01*
X133109500Y-83475701D01*
X133112401Y-83512567D01*
X133112402Y-83512573D01*
X133158254Y-83670393D01*
X133158255Y-83670396D01*
X133244548Y-83816311D01*
X133261731Y-83884035D01*
X133239571Y-83950298D01*
X133199816Y-83986819D01*
X133091287Y-84049477D01*
X133091282Y-84049481D01*
X132979478Y-84161286D01*
X131307584Y-85833181D01*
X131246261Y-85866666D01*
X131219903Y-85869500D01*
X128634500Y-85869500D01*
X128567461Y-85849815D01*
X128521706Y-85797011D01*
X128510500Y-85745500D01*
X128510500Y-85584313D01*
X128510499Y-85584298D01*
X128507598Y-85547432D01*
X128507597Y-85547426D01*
X128461745Y-85389606D01*
X128461744Y-85389603D01*
X128461744Y-85389602D01*
X128378081Y-85248135D01*
X128378078Y-85248132D01*
X128373298Y-85241969D01*
X128375750Y-85240066D01*
X128349155Y-85191421D01*
X128354104Y-85121726D01*
X128374940Y-85089304D01*
X128373298Y-85088031D01*
X128378075Y-85081870D01*
X128378081Y-85081865D01*
X128461744Y-84940398D01*
X128497107Y-84818678D01*
X128507597Y-84782573D01*
X128507598Y-84782567D01*
X128509144Y-84762922D01*
X128510500Y-84745694D01*
X128510500Y-84314306D01*
X128507598Y-84277431D01*
X128491410Y-84221713D01*
X128461745Y-84119606D01*
X128461744Y-84119603D01*
X128461744Y-84119602D01*
X128378081Y-83978135D01*
X128378078Y-83978132D01*
X128373298Y-83971969D01*
X128375750Y-83970066D01*
X128349155Y-83921421D01*
X128354104Y-83851726D01*
X128374940Y-83819304D01*
X128373298Y-83818031D01*
X128378075Y-83811870D01*
X128378081Y-83811865D01*
X128461744Y-83670398D01*
X128507598Y-83512569D01*
X128510500Y-83475694D01*
X128510500Y-83044306D01*
X128507598Y-83007431D01*
X128505253Y-82999360D01*
X128461745Y-82849606D01*
X128461744Y-82849603D01*
X128461744Y-82849602D01*
X128397381Y-82740769D01*
X128380198Y-82673044D01*
X128402358Y-82606782D01*
X128452024Y-82565119D01*
X128461702Y-82560638D01*
X128502985Y-82549577D01*
X128568442Y-82511785D01*
X128639916Y-82470520D01*
X128751720Y-82358716D01*
X128751720Y-82358714D01*
X128761922Y-82348513D01*
X128761925Y-82348508D01*
X128792663Y-82317771D01*
X128853986Y-82284288D01*
X128856151Y-82283838D01*
X128931052Y-82268938D01*
X129011497Y-82252937D01*
X129157179Y-82192594D01*
X129288289Y-82104989D01*
X129399789Y-81993489D01*
X129487394Y-81862379D01*
X129547737Y-81716697D01*
X129578500Y-81562042D01*
X129578500Y-81404358D01*
X129578500Y-81404355D01*
X129578499Y-81404353D01*
X129547737Y-81249703D01*
X129531460Y-81210406D01*
X129487397Y-81104027D01*
X129487390Y-81104014D01*
X129399789Y-80972911D01*
X129399786Y-80972907D01*
X129288292Y-80861413D01*
X129288288Y-80861410D01*
X129157185Y-80773809D01*
X129157172Y-80773802D01*
X129011501Y-80713464D01*
X129011489Y-80713461D01*
X128856845Y-80682700D01*
X128856842Y-80682700D01*
X128699158Y-80682700D01*
X128699155Y-80682700D01*
X128544510Y-80713461D01*
X128544498Y-80713464D01*
X128398827Y-80773802D01*
X128398814Y-80773809D01*
X128267711Y-80861410D01*
X128267707Y-80861413D01*
X128156213Y-80972907D01*
X128156210Y-80972911D01*
X128068609Y-81104014D01*
X128068603Y-81104025D01*
X128064279Y-81114465D01*
X128020436Y-81168866D01*
X127954140Y-81190928D01*
X127939993Y-81190625D01*
X127925704Y-81189500D01*
X127925694Y-81189500D01*
X126494306Y-81189500D01*
X126494298Y-81189500D01*
X126457432Y-81192401D01*
X126457426Y-81192402D01*
X126299606Y-81238254D01*
X126299603Y-81238255D01*
X126158137Y-81321917D01*
X126158129Y-81321923D01*
X126041923Y-81438129D01*
X126041917Y-81438137D01*
X125958255Y-81579603D01*
X125958254Y-81579606D01*
X125912402Y-81737426D01*
X125912401Y-81737432D01*
X125909500Y-81774298D01*
X125909500Y-82205701D01*
X125912401Y-82242567D01*
X125912402Y-82242573D01*
X125958254Y-82400393D01*
X125958255Y-82400396D01*
X126041917Y-82541862D01*
X126046702Y-82548031D01*
X126044256Y-82549927D01*
X126070857Y-82598642D01*
X126065873Y-82668334D01*
X126056060Y-82688731D01*
X126048193Y-82701860D01*
X126041919Y-82708135D01*
X125958256Y-82849602D01*
X125956920Y-82854199D01*
X125950370Y-82865132D01*
X125943912Y-82871092D01*
X125931702Y-82889062D01*
X125929501Y-82891264D01*
X125929481Y-82891284D01*
X124189981Y-84630783D01*
X124189979Y-84630786D01*
X124156903Y-84688076D01*
X124156865Y-84688142D01*
X124156648Y-84688519D01*
X124110923Y-84767716D01*
X124110098Y-84770794D01*
X124104675Y-84780379D01*
X124084819Y-84799642D01*
X124067458Y-84821180D01*
X124060095Y-84823629D01*
X124054528Y-84829031D01*
X124027414Y-84834501D01*
X124001161Y-84843235D01*
X123993642Y-84841314D01*
X123986039Y-84842849D01*
X123960270Y-84832791D01*
X123933464Y-84825945D01*
X123924111Y-84818678D01*
X123920951Y-84817445D01*
X123918920Y-84814644D01*
X123909073Y-84806994D01*
X123830292Y-84728213D01*
X123830288Y-84728210D01*
X123699185Y-84640609D01*
X123699172Y-84640602D01*
X123553501Y-84580264D01*
X123553489Y-84580261D01*
X123398845Y-84549500D01*
X123398842Y-84549500D01*
X123241158Y-84549500D01*
X123241155Y-84549500D01*
X123086510Y-84580261D01*
X123086498Y-84580264D01*
X122940827Y-84640602D01*
X122940814Y-84640609D01*
X122838925Y-84708690D01*
X122772247Y-84729568D01*
X122704867Y-84711083D01*
X122701143Y-84708690D01*
X122629185Y-84660609D01*
X122629172Y-84660602D01*
X122483501Y-84600264D01*
X122483489Y-84600261D01*
X122328845Y-84569500D01*
X122328842Y-84569500D01*
X122171158Y-84569500D01*
X122171155Y-84569500D01*
X122016510Y-84600261D01*
X122016498Y-84600264D01*
X121870827Y-84660602D01*
X121870814Y-84660609D01*
X121739711Y-84748210D01*
X121739707Y-84748213D01*
X121628213Y-84859707D01*
X121628210Y-84859711D01*
X121540609Y-84990814D01*
X121540602Y-84990827D01*
X121480264Y-85136498D01*
X121480261Y-85136510D01*
X121449500Y-85291153D01*
X121449500Y-85448846D01*
X121480261Y-85603489D01*
X121480264Y-85603501D01*
X121540602Y-85749172D01*
X121540609Y-85749185D01*
X121628210Y-85880288D01*
X121628213Y-85880292D01*
X121675189Y-85927268D01*
X121708674Y-85988591D01*
X121703690Y-86058283D01*
X121661818Y-86114216D01*
X121656400Y-86118050D01*
X121560213Y-86182321D01*
X121560207Y-86182326D01*
X121448713Y-86293820D01*
X121448710Y-86293824D01*
X121362448Y-86422923D01*
X121308835Y-86467728D01*
X121239510Y-86476435D01*
X121211894Y-86468593D01*
X121143501Y-86440264D01*
X121143489Y-86440261D01*
X120988845Y-86409500D01*
X120988842Y-86409500D01*
X120831158Y-86409500D01*
X120831155Y-86409500D01*
X120676510Y-86440261D01*
X120676498Y-86440264D01*
X120530827Y-86500602D01*
X120530814Y-86500609D01*
X120399711Y-86588210D01*
X120399707Y-86588213D01*
X120288213Y-86699707D01*
X120288210Y-86699711D01*
X120200609Y-86830814D01*
X120200602Y-86830827D01*
X120140264Y-86976498D01*
X120140261Y-86976510D01*
X120109500Y-87131153D01*
X120109500Y-87288843D01*
X120110097Y-87294906D01*
X120107489Y-87295162D01*
X120102236Y-87353445D01*
X120089979Y-87376860D01*
X120060607Y-87420819D01*
X120060602Y-87420828D01*
X120000264Y-87566498D01*
X120000261Y-87566507D01*
X119995310Y-87591400D01*
X119962924Y-87653311D01*
X119921147Y-87681767D01*
X119850329Y-87711101D01*
X119850314Y-87711109D01*
X119719211Y-87798710D01*
X119719207Y-87798713D01*
X119607713Y-87910207D01*
X119607710Y-87910211D01*
X119520109Y-88041314D01*
X119520102Y-88041327D01*
X119459764Y-88186998D01*
X119459761Y-88187010D01*
X119429000Y-88341653D01*
X119429000Y-88499346D01*
X119459761Y-88653989D01*
X119459764Y-88654001D01*
X119520102Y-88799672D01*
X119520109Y-88799685D01*
X119607710Y-88930788D01*
X119607713Y-88930792D01*
X119664474Y-88987553D01*
X119697959Y-89048876D01*
X119699909Y-89090016D01*
X119695000Y-89130898D01*
X119695000Y-89317102D01*
X119699333Y-89353187D01*
X119706061Y-89409217D01*
X119706061Y-89438783D01*
X119702018Y-89472453D01*
X119695000Y-89530898D01*
X119695000Y-89717102D01*
X119695858Y-89724243D01*
X119706061Y-89809217D01*
X119706061Y-89838783D01*
X119700218Y-89887440D01*
X119695000Y-89930898D01*
X119695000Y-89930903D01*
X119695000Y-90099500D01*
X119675315Y-90166539D01*
X119622511Y-90212294D01*
X119571000Y-90223500D01*
X111262668Y-90223500D01*
X111255061Y-90223499D01*
X111255058Y-90223499D01*
X111211701Y-90223499D01*
X111211699Y-90223498D01*
X111187512Y-90221116D01*
X111143161Y-90212294D01*
X111078844Y-90199500D01*
X111078842Y-90199500D01*
X110921158Y-90199500D01*
X110921155Y-90199500D01*
X110766510Y-90230261D01*
X110766498Y-90230264D01*
X110620827Y-90290602D01*
X110620814Y-90290609D01*
X110489711Y-90378210D01*
X110489707Y-90378213D01*
X110378213Y-90489707D01*
X110378210Y-90489711D01*
X110290609Y-90620814D01*
X110290602Y-90620827D01*
X110230264Y-90766498D01*
X110230261Y-90766510D01*
X110199500Y-90921153D01*
X110199500Y-91078846D01*
X110230261Y-91233489D01*
X110230264Y-91233501D01*
X110290602Y-91379172D01*
X110290609Y-91379185D01*
X110378210Y-91510288D01*
X110378213Y-91510292D01*
X110489707Y-91621786D01*
X110489711Y-91621789D01*
X110620814Y-91709390D01*
X110620827Y-91709397D01*
X110721294Y-91751011D01*
X110766503Y-91769737D01*
X110921153Y-91800499D01*
X110921156Y-91800500D01*
X110921158Y-91800500D01*
X111078844Y-91800500D01*
X111078845Y-91800499D01*
X111233497Y-91769737D01*
X111379179Y-91709394D01*
X111510289Y-91621789D01*
X111621789Y-91510289D01*
X111628330Y-91500500D01*
X111642289Y-91479609D01*
X111695901Y-91434804D01*
X111745391Y-91424500D01*
X119487338Y-91424500D01*
X119554377Y-91444185D01*
X119600132Y-91496989D01*
X119610076Y-91566147D01*
X119581051Y-91629703D01*
X119534790Y-91663061D01*
X119433568Y-91704987D01*
X119433555Y-91704994D01*
X119302452Y-91792595D01*
X119302448Y-91792598D01*
X119190954Y-91904092D01*
X119190951Y-91904096D01*
X119103350Y-92035199D01*
X119103343Y-92035212D01*
X119043005Y-92180883D01*
X119043002Y-92180895D01*
X119012241Y-92335538D01*
X119012241Y-92499319D01*
X119009369Y-92499319D01*
X118998697Y-92555887D01*
X118950680Y-92606643D01*
X118888259Y-92623500D01*
X115738939Y-92623500D01*
X115708021Y-92631784D01*
X115708022Y-92631785D01*
X115586214Y-92664423D01*
X115586209Y-92664426D01*
X115449290Y-92743475D01*
X115449282Y-92743481D01*
X112039479Y-96153284D01*
X112013091Y-96198992D01*
X111998943Y-96223497D01*
X111960423Y-96290215D01*
X111919499Y-96442943D01*
X111919499Y-96442945D01*
X111919499Y-96611046D01*
X111919500Y-96611059D01*
X111919500Y-97214281D01*
X111899815Y-97281320D01*
X111851795Y-97324765D01*
X111812185Y-97344947D01*
X111812184Y-97344948D01*
X111640213Y-97469890D01*
X111489890Y-97620213D01*
X111364949Y-97792182D01*
X111360484Y-97800946D01*
X111312509Y-97851742D01*
X111244688Y-97868536D01*
X111178553Y-97845998D01*
X111139516Y-97800946D01*
X111135050Y-97792182D01*
X111010109Y-97620213D01*
X110859786Y-97469890D01*
X110687820Y-97344951D01*
X110498414Y-97248444D01*
X110498413Y-97248443D01*
X110498412Y-97248443D01*
X110296243Y-97182754D01*
X110296241Y-97182753D01*
X110296240Y-97182753D01*
X110134957Y-97157208D01*
X110086287Y-97149500D01*
X109873713Y-97149500D01*
X109825042Y-97157208D01*
X109663760Y-97182753D01*
X109663757Y-97182754D01*
X109507612Y-97233489D01*
X109461585Y-97248444D01*
X109272184Y-97344948D01*
X109269485Y-97346603D01*
X109268319Y-97346918D01*
X109267843Y-97347161D01*
X109267791Y-97347060D01*
X109202038Y-97364843D01*
X109135437Y-97343724D01*
X109090826Y-97289950D01*
X109080700Y-97240872D01*
X109080700Y-76301797D01*
X109100385Y-76234758D01*
X109153189Y-76189003D01*
X109220883Y-76178858D01*
X109367234Y-76198126D01*
X109381460Y-76199999D01*
X109385266Y-76200500D01*
X109385273Y-76200500D01*
X109614727Y-76200500D01*
X109614734Y-76200500D01*
X109842238Y-76170548D01*
X110063887Y-76111158D01*
X110162728Y-76070215D01*
X110232196Y-76062747D01*
X110294675Y-76094021D01*
X110297861Y-76097096D01*
X113433996Y-79233231D01*
X113434006Y-79233242D01*
X113438336Y-79237572D01*
X113438337Y-79237573D01*
X113550141Y-79349377D01*
X113550143Y-79349378D01*
X113550147Y-79349381D01*
X113646998Y-79405297D01*
X113687073Y-79428434D01*
X113798876Y-79458391D01*
X113839799Y-79469357D01*
X113839800Y-79469357D01*
X123180840Y-79469357D01*
X123247879Y-79489042D01*
X123249731Y-79490255D01*
X123381420Y-79578247D01*
X123381433Y-79578254D01*
X123485002Y-79621153D01*
X123527109Y-79638594D01*
X123681759Y-79669356D01*
X123681762Y-79669357D01*
X123681764Y-79669357D01*
X123839450Y-79669357D01*
X123839451Y-79669356D01*
X123994103Y-79638594D01*
X124139785Y-79578251D01*
X124270895Y-79490646D01*
X124382395Y-79379146D01*
X124470000Y-79248036D01*
X124530343Y-79102354D01*
X124561106Y-78947699D01*
X124561106Y-78790015D01*
X124561106Y-78790012D01*
X124561105Y-78790010D01*
X124530344Y-78635367D01*
X124530343Y-78635360D01*
X124530341Y-78635355D01*
X124470003Y-78489684D01*
X124469996Y-78489671D01*
X124382395Y-78358568D01*
X124382392Y-78358564D01*
X124270898Y-78247070D01*
X124270894Y-78247067D01*
X124139791Y-78159466D01*
X124139778Y-78159459D01*
X123994107Y-78099121D01*
X123994095Y-78099118D01*
X123839451Y-78068357D01*
X123839448Y-78068357D01*
X123681764Y-78068357D01*
X123681761Y-78068357D01*
X123527116Y-78099118D01*
X123527104Y-78099121D01*
X123381433Y-78159459D01*
X123381420Y-78159466D01*
X123249731Y-78247459D01*
X123183053Y-78268337D01*
X123180840Y-78268357D01*
X114218954Y-78268357D01*
X114151915Y-78248672D01*
X114131273Y-78232038D01*
X111147096Y-75247861D01*
X111113611Y-75186538D01*
X111118595Y-75116846D01*
X111120200Y-75112764D01*
X111161158Y-75013887D01*
X111220548Y-74792238D01*
X111250500Y-74564734D01*
X111250500Y-74335266D01*
X111220548Y-74107762D01*
X111161158Y-73886113D01*
X111092976Y-73721508D01*
X111073349Y-73674123D01*
X111073346Y-73674117D01*
X111073344Y-73674112D01*
X110958611Y-73475388D01*
X110958608Y-73475385D01*
X110958607Y-73475382D01*
X110848894Y-73332403D01*
X110824019Y-73299986D01*
X110798825Y-73234818D01*
X110812863Y-73166373D01*
X110861677Y-73116383D01*
X110922395Y-73100500D01*
X117156076Y-73100500D01*
X117223115Y-73120185D01*
G37*
%TD.AperFunction*%
%TA.AperFunction,Conductor*%
G36*
X121727088Y-89419716D02*
G01*
X121744942Y-89424500D01*
X121744943Y-89424500D01*
X121744944Y-89424500D01*
X124095079Y-89424500D01*
X124095083Y-89424501D01*
X124253198Y-89424501D01*
X124253202Y-89424500D01*
X126046000Y-89424500D01*
X126113039Y-89444185D01*
X126158794Y-89496989D01*
X126170000Y-89548500D01*
X126170000Y-92133690D01*
X126169999Y-92133708D01*
X126169999Y-92299414D01*
X126171060Y-92307472D01*
X126167911Y-92307886D01*
X126166607Y-92362797D01*
X126136174Y-92412729D01*
X125805722Y-92743182D01*
X125744401Y-92776666D01*
X125718043Y-92779500D01*
X124739080Y-92779500D01*
X124698159Y-92790464D01*
X124698159Y-92790465D01*
X124660891Y-92800451D01*
X124586354Y-92820423D01*
X124586349Y-92820426D01*
X124449430Y-92899475D01*
X124449422Y-92899481D01*
X124337618Y-93011286D01*
X124136750Y-93212153D01*
X124128804Y-93216491D01*
X124123379Y-93223739D01*
X124098619Y-93232973D01*
X124075427Y-93245638D01*
X124066397Y-93244992D01*
X124057915Y-93248156D01*
X124032094Y-93242539D01*
X124005735Y-93240654D01*
X123996681Y-93234835D01*
X123989642Y-93233304D01*
X123961388Y-93212153D01*
X123827590Y-93078355D01*
X123827588Y-93078352D01*
X123708717Y-92959481D01*
X123708716Y-92959480D01*
X123621904Y-92909360D01*
X123621904Y-92909359D01*
X123621900Y-92909358D01*
X123571785Y-92880423D01*
X123419057Y-92839499D01*
X123260943Y-92839499D01*
X123253347Y-92839499D01*
X123253331Y-92839500D01*
X122895001Y-92839500D01*
X122827962Y-92819815D01*
X122782207Y-92767011D01*
X122771001Y-92715500D01*
X122771001Y-92591444D01*
X122771001Y-92591443D01*
X122730077Y-92438716D01*
X122654304Y-92307472D01*
X122651024Y-92301790D01*
X122651018Y-92301782D01*
X122572736Y-92223500D01*
X122421960Y-92072725D01*
X122421959Y-92072723D01*
X122292717Y-91943481D01*
X122292716Y-91943480D01*
X122191998Y-91885331D01*
X122191997Y-91885330D01*
X122155783Y-91864422D01*
X122099881Y-91849443D01*
X122003057Y-91823499D01*
X121844943Y-91823499D01*
X121837347Y-91823499D01*
X121837331Y-91823500D01*
X121695000Y-91823500D01*
X121627961Y-91803815D01*
X121582206Y-91751011D01*
X121571000Y-91699500D01*
X121571000Y-91530897D01*
X121569069Y-91514821D01*
X121560377Y-91442436D01*
X121560376Y-91442434D01*
X121559938Y-91438785D01*
X121559938Y-91409215D01*
X121560376Y-91405565D01*
X121560377Y-91405564D01*
X121571000Y-91317102D01*
X121571000Y-91130898D01*
X121560377Y-91042436D01*
X121560376Y-91042434D01*
X121559938Y-91038785D01*
X121559938Y-91009215D01*
X121560376Y-91005565D01*
X121560377Y-91005564D01*
X121571000Y-90917102D01*
X121571000Y-90730898D01*
X121560377Y-90642436D01*
X121560376Y-90642434D01*
X121559938Y-90638785D01*
X121559938Y-90609215D01*
X121560376Y-90605565D01*
X121560377Y-90605564D01*
X121571000Y-90517102D01*
X121571000Y-90330898D01*
X121560377Y-90242436D01*
X121560376Y-90242434D01*
X121559938Y-90238785D01*
X121559938Y-90209215D01*
X121560376Y-90205565D01*
X121560377Y-90205564D01*
X121571000Y-90117102D01*
X121571000Y-89930898D01*
X121560377Y-89842436D01*
X121560376Y-89842434D01*
X121559938Y-89838785D01*
X121559938Y-89809215D01*
X121560376Y-89805565D01*
X121560377Y-89805564D01*
X121571000Y-89717102D01*
X121571000Y-89539492D01*
X121590685Y-89472453D01*
X121643489Y-89426698D01*
X121712647Y-89416754D01*
X121727088Y-89419716D01*
G37*
%TD.AperFunction*%
%TA.AperFunction,Conductor*%
G36*
X135139942Y-72620185D02*
G01*
X135160584Y-72636819D01*
X138097584Y-75573819D01*
X138131069Y-75635142D01*
X138126085Y-75704834D01*
X138084213Y-75760767D01*
X138018749Y-75785184D01*
X138009903Y-75785500D01*
X136738998Y-75785500D01*
X136738981Y-75785501D01*
X136636203Y-75796000D01*
X136636200Y-75796001D01*
X136469668Y-75851185D01*
X136469663Y-75851187D01*
X136320342Y-75943289D01*
X136196288Y-76067343D01*
X136196285Y-76067347D01*
X136144440Y-76151401D01*
X136092492Y-76198126D01*
X136023530Y-76209347D01*
X135959448Y-76181504D01*
X135951221Y-76173985D01*
X134937757Y-75160522D01*
X134904272Y-75099199D01*
X134907507Y-75034523D01*
X134921246Y-74992243D01*
X134954500Y-74782287D01*
X134954500Y-74569713D01*
X134921246Y-74359757D01*
X134855557Y-74157588D01*
X134759051Y-73968184D01*
X134759049Y-73968181D01*
X134759048Y-73968179D01*
X134634109Y-73796213D01*
X134483786Y-73645890D01*
X134311820Y-73520951D01*
X134122414Y-73424444D01*
X134122413Y-73424443D01*
X134122412Y-73424443D01*
X133920243Y-73358754D01*
X133920241Y-73358753D01*
X133920240Y-73358753D01*
X133758957Y-73333208D01*
X133710287Y-73325500D01*
X133497713Y-73325500D01*
X133449042Y-73333208D01*
X133287760Y-73358753D01*
X133085585Y-73424444D01*
X132896179Y-73520951D01*
X132724215Y-73645889D01*
X132610285Y-73759819D01*
X132548962Y-73793303D01*
X132479270Y-73788319D01*
X132423337Y-73746447D01*
X132406422Y-73715470D01*
X132357354Y-73583913D01*
X132357350Y-73583906D01*
X132271190Y-73468812D01*
X132271187Y-73468809D01*
X132156093Y-73382649D01*
X132156086Y-73382645D01*
X132021379Y-73332403D01*
X132021372Y-73332401D01*
X131961844Y-73326000D01*
X131314000Y-73326000D01*
X131314000Y-74242988D01*
X131256993Y-74210075D01*
X131129826Y-74176000D01*
X130998174Y-74176000D01*
X130871007Y-74210075D01*
X130814000Y-74242988D01*
X130814000Y-73326000D01*
X130166155Y-73326000D01*
X130106627Y-73332401D01*
X130106620Y-73332403D01*
X129971913Y-73382645D01*
X129971906Y-73382649D01*
X129856812Y-73468809D01*
X129856809Y-73468812D01*
X129770649Y-73583906D01*
X129770645Y-73583913D01*
X129720403Y-73718620D01*
X129720401Y-73718627D01*
X129714000Y-73778155D01*
X129714000Y-74426000D01*
X130630988Y-74426000D01*
X130598075Y-74483007D01*
X130564000Y-74610174D01*
X130564000Y-74741826D01*
X130598075Y-74868993D01*
X130630988Y-74926000D01*
X129714000Y-74926000D01*
X129714000Y-75573844D01*
X129720401Y-75633372D01*
X129720403Y-75633379D01*
X129770645Y-75768086D01*
X129770649Y-75768093D01*
X129856809Y-75883187D01*
X129856812Y-75883190D01*
X129971906Y-75969350D01*
X129971913Y-75969354D01*
X130106620Y-76019596D01*
X130106627Y-76019598D01*
X130166155Y-76025999D01*
X130166172Y-76026000D01*
X130814000Y-76026000D01*
X130814000Y-75109012D01*
X130871007Y-75141925D01*
X130998174Y-75176000D01*
X131129826Y-75176000D01*
X131256993Y-75141925D01*
X131314000Y-75109012D01*
X131314000Y-76026000D01*
X131961828Y-76026000D01*
X131961844Y-76025999D01*
X132021372Y-76019598D01*
X132021379Y-76019596D01*
X132156086Y-75969354D01*
X132156093Y-75969350D01*
X132271187Y-75883190D01*
X132271190Y-75883187D01*
X132357350Y-75768093D01*
X132357354Y-75768086D01*
X132406422Y-75636529D01*
X132448293Y-75580595D01*
X132513757Y-75556178D01*
X132582030Y-75571030D01*
X132610285Y-75592181D01*
X132724213Y-75706109D01*
X132896179Y-75831048D01*
X132896181Y-75831049D01*
X132896184Y-75831051D01*
X133085588Y-75927557D01*
X133287757Y-75993246D01*
X133497713Y-76026500D01*
X133497714Y-76026500D01*
X133710286Y-76026500D01*
X133710287Y-76026500D01*
X133920243Y-75993246D01*
X133962523Y-75979507D01*
X134032362Y-75977511D01*
X134088521Y-76009756D01*
X135495284Y-77416520D01*
X135495286Y-77416521D01*
X135495290Y-77416524D01*
X135632209Y-77495573D01*
X135632216Y-77495577D01*
X135784943Y-77536501D01*
X135784945Y-77536501D01*
X135950654Y-77536501D01*
X135950670Y-77536500D01*
X135975267Y-77536500D01*
X136042306Y-77556185D01*
X136088061Y-77608989D01*
X136092972Y-77621494D01*
X136104186Y-77655334D01*
X136104187Y-77655336D01*
X136104189Y-77655340D01*
X136182439Y-77782204D01*
X136200879Y-77849596D01*
X136179956Y-77916260D01*
X136126314Y-77961029D01*
X136076900Y-77971300D01*
X128581345Y-77971300D01*
X128514306Y-77951615D01*
X128493664Y-77934981D01*
X126536319Y-75977636D01*
X126502834Y-75916313D01*
X126500000Y-75889955D01*
X126500000Y-75086988D01*
X126509940Y-75104205D01*
X126565795Y-75160060D01*
X126634204Y-75199556D01*
X126710504Y-75220000D01*
X126789496Y-75220000D01*
X126865796Y-75199556D01*
X126934205Y-75160060D01*
X126990060Y-75104205D01*
X127000000Y-75086988D01*
X127000000Y-75889862D01*
X127041690Y-75881569D01*
X127041692Y-75881569D01*
X127223671Y-75806192D01*
X127223684Y-75806185D01*
X127387462Y-75696751D01*
X127387466Y-75696748D01*
X127526748Y-75557466D01*
X127526751Y-75557462D01*
X127636185Y-75393684D01*
X127636192Y-75393671D01*
X127711569Y-75211693D01*
X127711572Y-75211681D01*
X127749999Y-75018495D01*
X127750000Y-75018492D01*
X127750000Y-74620000D01*
X127050000Y-74620000D01*
X127050000Y-74120000D01*
X127750000Y-74120000D01*
X127750000Y-73721508D01*
X127749999Y-73721504D01*
X127711572Y-73528318D01*
X127711569Y-73528306D01*
X127636192Y-73346328D01*
X127636185Y-73346315D01*
X127526751Y-73182537D01*
X127526748Y-73182533D01*
X127387466Y-73043251D01*
X127387462Y-73043248D01*
X127223684Y-72933814D01*
X127223671Y-72933807D01*
X127041693Y-72858430D01*
X127041681Y-72858427D01*
X126979794Y-72846117D01*
X126917883Y-72813733D01*
X126883309Y-72753017D01*
X126887048Y-72683247D01*
X126927914Y-72626575D01*
X126992932Y-72600994D01*
X127003985Y-72600500D01*
X135072903Y-72600500D01*
X135139942Y-72620185D01*
G37*
%TD.AperFunction*%
%TA.AperFunction,Conductor*%
G36*
X126450000Y-74620000D02*
G01*
X125750000Y-74620000D01*
X125750000Y-74891955D01*
X125730315Y-74958994D01*
X125677511Y-75004749D01*
X125608353Y-75014693D01*
X125544797Y-74985668D01*
X125538319Y-74979636D01*
X125185864Y-74627181D01*
X125152379Y-74565858D01*
X125157363Y-74496166D01*
X125199235Y-74440233D01*
X125264699Y-74415816D01*
X125273545Y-74415500D01*
X125395764Y-74415500D01*
X125395766Y-74415500D01*
X125542135Y-74376281D01*
X125673365Y-74300515D01*
X125780515Y-74193365D01*
X125787077Y-74182000D01*
X125837644Y-74133784D01*
X125894464Y-74120000D01*
X126450000Y-74120000D01*
X126450000Y-74620000D01*
G37*
%TD.AperFunction*%
%TA.AperFunction,Conductor*%
G36*
X138192675Y-115377007D02*
G01*
X138158600Y-115504174D01*
X138158600Y-115635826D01*
X138192675Y-115762993D01*
X138225588Y-115820000D01*
X136551612Y-115820000D01*
X136584525Y-115762993D01*
X136618600Y-115635826D01*
X136618600Y-115504174D01*
X136584525Y-115377007D01*
X136551612Y-115320000D01*
X138225588Y-115320000D01*
X138192675Y-115377007D01*
G37*
%TD.AperFunction*%
%TA.AperFunction,Conductor*%
G36*
X140732675Y-115377007D02*
G01*
X140698600Y-115504174D01*
X140698600Y-115635826D01*
X140732675Y-115762993D01*
X140765588Y-115820000D01*
X139091612Y-115820000D01*
X139124525Y-115762993D01*
X139158600Y-115635826D01*
X139158600Y-115504174D01*
X139124525Y-115377007D01*
X139091612Y-115320000D01*
X140765588Y-115320000D01*
X140732675Y-115377007D01*
G37*
%TD.AperFunction*%
%TA.AperFunction,Conductor*%
G36*
X143272675Y-115377007D02*
G01*
X143238600Y-115504174D01*
X143238600Y-115635826D01*
X143272675Y-115762993D01*
X143305588Y-115820000D01*
X141631612Y-115820000D01*
X141664525Y-115762993D01*
X141698600Y-115635826D01*
X141698600Y-115504174D01*
X141664525Y-115377007D01*
X141631612Y-115320000D01*
X143305588Y-115320000D01*
X143272675Y-115377007D01*
G37*
%TD.AperFunction*%
%TA.AperFunction,Conductor*%
G36*
X145812675Y-115377007D02*
G01*
X145778600Y-115504174D01*
X145778600Y-115635826D01*
X145812675Y-115762993D01*
X145845588Y-115820000D01*
X144171612Y-115820000D01*
X144204525Y-115762993D01*
X144238600Y-115635826D01*
X144238600Y-115504174D01*
X144204525Y-115377007D01*
X144171612Y-115320000D01*
X145845588Y-115320000D01*
X145812675Y-115377007D01*
G37*
%TD.AperFunction*%
%TA.AperFunction,Conductor*%
G36*
X148352675Y-115377007D02*
G01*
X148318600Y-115504174D01*
X148318600Y-115635826D01*
X148352675Y-115762993D01*
X148385588Y-115820000D01*
X146711612Y-115820000D01*
X146744525Y-115762993D01*
X146778600Y-115635826D01*
X146778600Y-115504174D01*
X146744525Y-115377007D01*
X146711612Y-115320000D01*
X148385588Y-115320000D01*
X148352675Y-115377007D01*
G37*
%TD.AperFunction*%
%TA.AperFunction,Conductor*%
G36*
X150892675Y-115377007D02*
G01*
X150858600Y-115504174D01*
X150858600Y-115635826D01*
X150892675Y-115762993D01*
X150925588Y-115820000D01*
X149251612Y-115820000D01*
X149284525Y-115762993D01*
X149318600Y-115635826D01*
X149318600Y-115504174D01*
X149284525Y-115377007D01*
X149251612Y-115320000D01*
X150925588Y-115320000D01*
X150892675Y-115377007D01*
G37*
%TD.AperFunction*%
%TA.AperFunction,Conductor*%
G36*
X153432675Y-115377007D02*
G01*
X153398600Y-115504174D01*
X153398600Y-115635826D01*
X153432675Y-115762993D01*
X153465588Y-115820000D01*
X151791612Y-115820000D01*
X151824525Y-115762993D01*
X151858600Y-115635826D01*
X151858600Y-115504174D01*
X151824525Y-115377007D01*
X151791612Y-115320000D01*
X153465588Y-115320000D01*
X153432675Y-115377007D01*
G37*
%TD.AperFunction*%
%TA.AperFunction,Conductor*%
G36*
X155972675Y-115377007D02*
G01*
X155938600Y-115504174D01*
X155938600Y-115635826D01*
X155972675Y-115762993D01*
X156005588Y-115820000D01*
X154331612Y-115820000D01*
X154364525Y-115762993D01*
X154398600Y-115635826D01*
X154398600Y-115504174D01*
X154364525Y-115377007D01*
X154331612Y-115320000D01*
X156005588Y-115320000D01*
X155972675Y-115377007D01*
G37*
%TD.AperFunction*%
%TA.AperFunction,Conductor*%
G36*
X158512675Y-115377007D02*
G01*
X158478600Y-115504174D01*
X158478600Y-115635826D01*
X158512675Y-115762993D01*
X158545588Y-115820000D01*
X156871612Y-115820000D01*
X156904525Y-115762993D01*
X156938600Y-115635826D01*
X156938600Y-115504174D01*
X156904525Y-115377007D01*
X156871612Y-115320000D01*
X158545588Y-115320000D01*
X158512675Y-115377007D01*
G37*
%TD.AperFunction*%
%TA.AperFunction,Conductor*%
G36*
X161052675Y-115377007D02*
G01*
X161018600Y-115504174D01*
X161018600Y-115635826D01*
X161052675Y-115762993D01*
X161085588Y-115820000D01*
X159411612Y-115820000D01*
X159444525Y-115762993D01*
X159478600Y-115635826D01*
X159478600Y-115504174D01*
X159444525Y-115377007D01*
X159411612Y-115320000D01*
X161085588Y-115320000D01*
X161052675Y-115377007D01*
G37*
%TD.AperFunction*%
%TA.AperFunction,Conductor*%
G36*
X163592675Y-115377007D02*
G01*
X163558600Y-115504174D01*
X163558600Y-115635826D01*
X163592675Y-115762993D01*
X163625588Y-115820000D01*
X161951612Y-115820000D01*
X161984525Y-115762993D01*
X162018600Y-115635826D01*
X162018600Y-115504174D01*
X161984525Y-115377007D01*
X161951612Y-115320000D01*
X163625588Y-115320000D01*
X163592675Y-115377007D01*
G37*
%TD.AperFunction*%
%TA.AperFunction,Conductor*%
G36*
X166132675Y-115377007D02*
G01*
X166098600Y-115504174D01*
X166098600Y-115635826D01*
X166132675Y-115762993D01*
X166165588Y-115820000D01*
X164491612Y-115820000D01*
X164524525Y-115762993D01*
X164558600Y-115635826D01*
X164558600Y-115504174D01*
X164524525Y-115377007D01*
X164491612Y-115320000D01*
X166165588Y-115320000D01*
X166132675Y-115377007D01*
G37*
%TD.AperFunction*%
%TA.AperFunction,Conductor*%
G36*
X168672675Y-115377007D02*
G01*
X168638600Y-115504174D01*
X168638600Y-115635826D01*
X168672675Y-115762993D01*
X168705588Y-115820000D01*
X167031612Y-115820000D01*
X167064525Y-115762993D01*
X167098600Y-115635826D01*
X167098600Y-115504174D01*
X167064525Y-115377007D01*
X167031612Y-115320000D01*
X168705588Y-115320000D01*
X168672675Y-115377007D01*
G37*
%TD.AperFunction*%
%TA.AperFunction,Conductor*%
G36*
X171212675Y-115377007D02*
G01*
X171178600Y-115504174D01*
X171178600Y-115635826D01*
X171212675Y-115762993D01*
X171245588Y-115820000D01*
X169571612Y-115820000D01*
X169604525Y-115762993D01*
X169638600Y-115635826D01*
X169638600Y-115504174D01*
X169604525Y-115377007D01*
X169571612Y-115320000D01*
X171245588Y-115320000D01*
X171212675Y-115377007D01*
G37*
%TD.AperFunction*%
%TA.AperFunction,Conductor*%
G36*
X173752675Y-115377007D02*
G01*
X173718600Y-115504174D01*
X173718600Y-115635826D01*
X173752675Y-115762993D01*
X173785588Y-115820000D01*
X172111612Y-115820000D01*
X172144525Y-115762993D01*
X172178600Y-115635826D01*
X172178600Y-115504174D01*
X172144525Y-115377007D01*
X172111612Y-115320000D01*
X173785588Y-115320000D01*
X173752675Y-115377007D01*
G37*
%TD.AperFunction*%
%TA.AperFunction,Conductor*%
G36*
X176442539Y-68520185D02*
G01*
X176488294Y-68572989D01*
X176499500Y-68624500D01*
X176499500Y-118375500D01*
X176479815Y-118442539D01*
X176427011Y-118488294D01*
X176375500Y-118499500D01*
X65624500Y-118499500D01*
X65557461Y-118479815D01*
X65511706Y-118427011D01*
X65500500Y-118375500D01*
X65500500Y-109592135D01*
X66746900Y-109592135D01*
X66746900Y-111387870D01*
X66746901Y-111387876D01*
X66753308Y-111447483D01*
X66803602Y-111582328D01*
X66803603Y-111582330D01*
X66880978Y-111685689D01*
X66905395Y-111751153D01*
X66890544Y-111819426D01*
X66880978Y-111834311D01*
X66803603Y-111937669D01*
X66803602Y-111937671D01*
X66753308Y-112072517D01*
X66746901Y-112132116D01*
X66746900Y-112132135D01*
X66746900Y-113927870D01*
X66746901Y-113927876D01*
X66753308Y-113987483D01*
X66803602Y-114122328D01*
X66803606Y-114122335D01*
X66881289Y-114226105D01*
X66905707Y-114291569D01*
X66890856Y-114359842D01*
X66881290Y-114374727D01*
X66804047Y-114477910D01*
X66804045Y-114477913D01*
X66753803Y-114612620D01*
X66753801Y-114612627D01*
X66747400Y-114672155D01*
X66747400Y-115320000D01*
X67664388Y-115320000D01*
X67631475Y-115377007D01*
X67597400Y-115504174D01*
X67597400Y-115635826D01*
X67631475Y-115762993D01*
X67664388Y-115820000D01*
X66747400Y-115820000D01*
X66747400Y-116467844D01*
X66753801Y-116527372D01*
X66753803Y-116527379D01*
X66804045Y-116662086D01*
X66804049Y-116662093D01*
X66890209Y-116777187D01*
X66890212Y-116777190D01*
X67005306Y-116863350D01*
X67005313Y-116863354D01*
X67140020Y-116913596D01*
X67140027Y-116913598D01*
X67199555Y-116919999D01*
X67199572Y-116920000D01*
X67847400Y-116920000D01*
X67847400Y-116003012D01*
X67904407Y-116035925D01*
X68031574Y-116070000D01*
X68163226Y-116070000D01*
X68290393Y-116035925D01*
X68347400Y-116003012D01*
X68347400Y-116920000D01*
X68995228Y-116920000D01*
X68995244Y-116919999D01*
X69054772Y-116913598D01*
X69054779Y-116913596D01*
X69189486Y-116863354D01*
X69189493Y-116863350D01*
X69304587Y-116777190D01*
X69304590Y-116777187D01*
X69390750Y-116662093D01*
X69390754Y-116662086D01*
X69440014Y-116530013D01*
X69481885Y-116474079D01*
X69547349Y-116449662D01*
X69615622Y-116464513D01*
X69643877Y-116485665D01*
X69757935Y-116599723D01*
X69757940Y-116599727D01*
X69929842Y-116724620D01*
X70119182Y-116821095D01*
X70321271Y-116886757D01*
X70387400Y-116897231D01*
X70387400Y-116003012D01*
X70444407Y-116035925D01*
X70571574Y-116070000D01*
X70703226Y-116070000D01*
X70830393Y-116035925D01*
X70887400Y-116003012D01*
X70887400Y-116897230D01*
X70953526Y-116886757D01*
X70953529Y-116886757D01*
X71155617Y-116821095D01*
X71344957Y-116724620D01*
X71516859Y-116599727D01*
X71516864Y-116599723D01*
X71667123Y-116449464D01*
X71667127Y-116449459D01*
X71792020Y-116277558D01*
X71796914Y-116267954D01*
X71844888Y-116217157D01*
X71912708Y-116200361D01*
X71978844Y-116222897D01*
X72017886Y-116267954D01*
X72022779Y-116277558D01*
X72147672Y-116449459D01*
X72147676Y-116449464D01*
X72297935Y-116599723D01*
X72297940Y-116599727D01*
X72469842Y-116724620D01*
X72659182Y-116821095D01*
X72861271Y-116886757D01*
X72927400Y-116897231D01*
X72927400Y-116003012D01*
X72984407Y-116035925D01*
X73111574Y-116070000D01*
X73243226Y-116070000D01*
X73370393Y-116035925D01*
X73427400Y-116003012D01*
X73427400Y-116897230D01*
X73493526Y-116886757D01*
X73493529Y-116886757D01*
X73695617Y-116821095D01*
X73884957Y-116724620D01*
X74056859Y-116599727D01*
X74056864Y-116599723D01*
X74207123Y-116449464D01*
X74207127Y-116449459D01*
X74332020Y-116277558D01*
X74336914Y-116267954D01*
X74384888Y-116217157D01*
X74452708Y-116200361D01*
X74518844Y-116222897D01*
X74557886Y-116267954D01*
X74562779Y-116277558D01*
X74687672Y-116449459D01*
X74687676Y-116449464D01*
X74837935Y-116599723D01*
X74837940Y-116599727D01*
X75009842Y-116724620D01*
X75199182Y-116821095D01*
X75401271Y-116886757D01*
X75467400Y-116897231D01*
X75467400Y-116003012D01*
X75524407Y-116035925D01*
X75651574Y-116070000D01*
X75783226Y-116070000D01*
X75910393Y-116035925D01*
X75967400Y-116003012D01*
X75967400Y-116897230D01*
X76033526Y-116886757D01*
X76033529Y-116886757D01*
X76235617Y-116821095D01*
X76424957Y-116724620D01*
X76596859Y-116599727D01*
X76596864Y-116599723D01*
X76747123Y-116449464D01*
X76747127Y-116449459D01*
X76872020Y-116277558D01*
X76876914Y-116267954D01*
X76924888Y-116217157D01*
X76992708Y-116200361D01*
X77058844Y-116222897D01*
X77097886Y-116267954D01*
X77102779Y-116277558D01*
X77227672Y-116449459D01*
X77227676Y-116449464D01*
X77377935Y-116599723D01*
X77377940Y-116599727D01*
X77549842Y-116724620D01*
X77739182Y-116821095D01*
X77941271Y-116886757D01*
X78007400Y-116897231D01*
X78007400Y-116003012D01*
X78064407Y-116035925D01*
X78191574Y-116070000D01*
X78323226Y-116070000D01*
X78450393Y-116035925D01*
X78507400Y-116003012D01*
X78507400Y-116897230D01*
X78573526Y-116886757D01*
X78573529Y-116886757D01*
X78775617Y-116821095D01*
X78964957Y-116724620D01*
X79136859Y-116599727D01*
X79136864Y-116599723D01*
X79287123Y-116449464D01*
X79287127Y-116449459D01*
X79412020Y-116277558D01*
X79416914Y-116267954D01*
X79464888Y-116217157D01*
X79532708Y-116200361D01*
X79598844Y-116222897D01*
X79637886Y-116267954D01*
X79642779Y-116277558D01*
X79767672Y-116449459D01*
X79767676Y-116449464D01*
X79917935Y-116599723D01*
X79917940Y-116599727D01*
X80089842Y-116724620D01*
X80279182Y-116821095D01*
X80481271Y-116886757D01*
X80547400Y-116897231D01*
X80547400Y-116003012D01*
X80604407Y-116035925D01*
X80731574Y-116070000D01*
X80863226Y-116070000D01*
X80990393Y-116035925D01*
X81047400Y-116003012D01*
X81047400Y-116897231D01*
X81113526Y-116886757D01*
X81113529Y-116886757D01*
X81315617Y-116821095D01*
X81504957Y-116724620D01*
X81676859Y-116599727D01*
X81676864Y-116599723D01*
X81827123Y-116449464D01*
X81827127Y-116449459D01*
X81952020Y-116277558D01*
X81956914Y-116267954D01*
X82004888Y-116217157D01*
X82072708Y-116200361D01*
X82138844Y-116222897D01*
X82177886Y-116267954D01*
X82182779Y-116277558D01*
X82307672Y-116449459D01*
X82307676Y-116449464D01*
X82457935Y-116599723D01*
X82457940Y-116599727D01*
X82629842Y-116724620D01*
X82819182Y-116821095D01*
X83021271Y-116886757D01*
X83087400Y-116897231D01*
X83087400Y-116003012D01*
X83144407Y-116035925D01*
X83271574Y-116070000D01*
X83403226Y-116070000D01*
X83530393Y-116035925D01*
X83587400Y-116003012D01*
X83587400Y-116897231D01*
X83653526Y-116886757D01*
X83653529Y-116886757D01*
X83855617Y-116821095D01*
X84044957Y-116724620D01*
X84216859Y-116599727D01*
X84216864Y-116599723D01*
X84367123Y-116449464D01*
X84367127Y-116449459D01*
X84492020Y-116277558D01*
X84496914Y-116267954D01*
X84544888Y-116217157D01*
X84612708Y-116200361D01*
X84678844Y-116222897D01*
X84717886Y-116267954D01*
X84722779Y-116277558D01*
X84847672Y-116449459D01*
X84847676Y-116449464D01*
X84997935Y-116599723D01*
X84997940Y-116599727D01*
X85169842Y-116724620D01*
X85359182Y-116821095D01*
X85561271Y-116886757D01*
X85627400Y-116897231D01*
X85627400Y-116003012D01*
X85684407Y-116035925D01*
X85811574Y-116070000D01*
X85943226Y-116070000D01*
X86070393Y-116035925D01*
X86127400Y-116003012D01*
X86127400Y-116897231D01*
X86193526Y-116886757D01*
X86193529Y-116886757D01*
X86395617Y-116821095D01*
X86584957Y-116724620D01*
X86756859Y-116599727D01*
X86756864Y-116599723D01*
X86907123Y-116449464D01*
X86907127Y-116449459D01*
X87032020Y-116277558D01*
X87036914Y-116267954D01*
X87084888Y-116217157D01*
X87152708Y-116200361D01*
X87218844Y-116222897D01*
X87257886Y-116267954D01*
X87262779Y-116277558D01*
X87387672Y-116449459D01*
X87387676Y-116449464D01*
X87537935Y-116599723D01*
X87537940Y-116599727D01*
X87709842Y-116724620D01*
X87899182Y-116821095D01*
X88101271Y-116886757D01*
X88167400Y-116897231D01*
X88167400Y-116003012D01*
X88224407Y-116035925D01*
X88351574Y-116070000D01*
X88483226Y-116070000D01*
X88610393Y-116035925D01*
X88667400Y-116003012D01*
X88667400Y-116897230D01*
X88733526Y-116886757D01*
X88733529Y-116886757D01*
X88935617Y-116821095D01*
X89124957Y-116724620D01*
X89296859Y-116599727D01*
X89296864Y-116599723D01*
X89447123Y-116449464D01*
X89447127Y-116449459D01*
X89572020Y-116277558D01*
X89576914Y-116267954D01*
X89624888Y-116217157D01*
X89692708Y-116200361D01*
X89758844Y-116222897D01*
X89797886Y-116267954D01*
X89802779Y-116277558D01*
X89927672Y-116449459D01*
X89927676Y-116449464D01*
X90077935Y-116599723D01*
X90077940Y-116599727D01*
X90249842Y-116724620D01*
X90439182Y-116821095D01*
X90641271Y-116886757D01*
X90707400Y-116897231D01*
X90707400Y-116003012D01*
X90764407Y-116035925D01*
X90891574Y-116070000D01*
X91023226Y-116070000D01*
X91150393Y-116035925D01*
X91207400Y-116003012D01*
X91207400Y-116897231D01*
X91273526Y-116886757D01*
X91273529Y-116886757D01*
X91475617Y-116821095D01*
X91664957Y-116724620D01*
X91836859Y-116599727D01*
X91836864Y-116599723D01*
X91987123Y-116449464D01*
X91987127Y-116449459D01*
X92112020Y-116277558D01*
X92116914Y-116267954D01*
X92164888Y-116217157D01*
X92232708Y-116200361D01*
X92298844Y-116222897D01*
X92337886Y-116267954D01*
X92342779Y-116277558D01*
X92467672Y-116449459D01*
X92467676Y-116449464D01*
X92617935Y-116599723D01*
X92617940Y-116599727D01*
X92789842Y-116724620D01*
X92979182Y-116821095D01*
X93181271Y-116886757D01*
X93247400Y-116897231D01*
X93247400Y-116003012D01*
X93304407Y-116035925D01*
X93431574Y-116070000D01*
X93563226Y-116070000D01*
X93690393Y-116035925D01*
X93747400Y-116003012D01*
X93747400Y-116897231D01*
X93813526Y-116886757D01*
X93813529Y-116886757D01*
X94015617Y-116821095D01*
X94204957Y-116724620D01*
X94376859Y-116599727D01*
X94376864Y-116599723D01*
X94527123Y-116449464D01*
X94527127Y-116449459D01*
X94652020Y-116277558D01*
X94656914Y-116267954D01*
X94704888Y-116217157D01*
X94772708Y-116200361D01*
X94838844Y-116222897D01*
X94877886Y-116267954D01*
X94882779Y-116277558D01*
X95007672Y-116449459D01*
X95007676Y-116449464D01*
X95157935Y-116599723D01*
X95157940Y-116599727D01*
X95329842Y-116724620D01*
X95519182Y-116821095D01*
X95721271Y-116886757D01*
X95787400Y-116897231D01*
X95787400Y-116003012D01*
X95844407Y-116035925D01*
X95971574Y-116070000D01*
X96103226Y-116070000D01*
X96230393Y-116035925D01*
X96287400Y-116003012D01*
X96287400Y-116897230D01*
X96353526Y-116886757D01*
X96353529Y-116886757D01*
X96555617Y-116821095D01*
X96744957Y-116724620D01*
X96916859Y-116599727D01*
X96916864Y-116599723D01*
X97067123Y-116449464D01*
X97067127Y-116449459D01*
X97192020Y-116277558D01*
X97196914Y-116267954D01*
X97244888Y-116217157D01*
X97312708Y-116200361D01*
X97378844Y-116222897D01*
X97417886Y-116267954D01*
X97422779Y-116277558D01*
X97547672Y-116449459D01*
X97547676Y-116449464D01*
X97697935Y-116599723D01*
X97697940Y-116599727D01*
X97869842Y-116724620D01*
X98059182Y-116821095D01*
X98261271Y-116886757D01*
X98327400Y-116897231D01*
X98327400Y-116003012D01*
X98384407Y-116035925D01*
X98511574Y-116070000D01*
X98643226Y-116070000D01*
X98770393Y-116035925D01*
X98827400Y-116003012D01*
X98827400Y-116897230D01*
X98893526Y-116886757D01*
X98893529Y-116886757D01*
X99095617Y-116821095D01*
X99284957Y-116724620D01*
X99456859Y-116599727D01*
X99456864Y-116599723D01*
X99607123Y-116449464D01*
X99607127Y-116449459D01*
X99732020Y-116277558D01*
X99736914Y-116267954D01*
X99784888Y-116217157D01*
X99852708Y-116200361D01*
X99918844Y-116222897D01*
X99957886Y-116267954D01*
X99962779Y-116277558D01*
X100087672Y-116449459D01*
X100087676Y-116449464D01*
X100237935Y-116599723D01*
X100237940Y-116599727D01*
X100409842Y-116724620D01*
X100599182Y-116821095D01*
X100801271Y-116886757D01*
X100867400Y-116897231D01*
X100867400Y-116003012D01*
X100924407Y-116035925D01*
X101051574Y-116070000D01*
X101183226Y-116070000D01*
X101310393Y-116035925D01*
X101367400Y-116003012D01*
X101367400Y-116897230D01*
X101433526Y-116886757D01*
X101433529Y-116886757D01*
X101635617Y-116821095D01*
X101824957Y-116724620D01*
X101996859Y-116599727D01*
X101996864Y-116599723D01*
X102147123Y-116449464D01*
X102147127Y-116449459D01*
X102272020Y-116277558D01*
X102276914Y-116267954D01*
X102324888Y-116217157D01*
X102392708Y-116200361D01*
X102458844Y-116222897D01*
X102497886Y-116267954D01*
X102502779Y-116277558D01*
X102627672Y-116449459D01*
X102627676Y-116449464D01*
X102777935Y-116599723D01*
X102777940Y-116599727D01*
X102949842Y-116724620D01*
X103139182Y-116821095D01*
X103341271Y-116886757D01*
X103407400Y-116897231D01*
X103407400Y-116003012D01*
X103464407Y-116035925D01*
X103591574Y-116070000D01*
X103723226Y-116070000D01*
X103850393Y-116035925D01*
X103907400Y-116003012D01*
X103907400Y-116897231D01*
X103973526Y-116886757D01*
X103973529Y-116886757D01*
X104175617Y-116821095D01*
X104364957Y-116724620D01*
X104536859Y-116599727D01*
X104536864Y-116599723D01*
X104687123Y-116449464D01*
X104687127Y-116449459D01*
X104812020Y-116277558D01*
X104816914Y-116267954D01*
X104864888Y-116217157D01*
X104932708Y-116200361D01*
X104998844Y-116222897D01*
X105037886Y-116267954D01*
X105042779Y-116277558D01*
X105167672Y-116449459D01*
X105167676Y-116449464D01*
X105317935Y-116599723D01*
X105317940Y-116599727D01*
X105489842Y-116724620D01*
X105679182Y-116821095D01*
X105881271Y-116886757D01*
X105947400Y-116897231D01*
X105947400Y-116003012D01*
X106004407Y-116035925D01*
X106131574Y-116070000D01*
X106263226Y-116070000D01*
X106390393Y-116035925D01*
X106447400Y-116003012D01*
X106447400Y-116897231D01*
X106513526Y-116886757D01*
X106513529Y-116886757D01*
X106715617Y-116821095D01*
X106904957Y-116724620D01*
X107076859Y-116599727D01*
X107076864Y-116599723D01*
X107227123Y-116449464D01*
X107227127Y-116449459D01*
X107352020Y-116277557D01*
X107448495Y-116088217D01*
X107514157Y-115886129D01*
X107514157Y-115886126D01*
X107524631Y-115820000D01*
X106630412Y-115820000D01*
X106663325Y-115762993D01*
X106697400Y-115635826D01*
X106697400Y-115504174D01*
X106663325Y-115377007D01*
X106630412Y-115320000D01*
X107524631Y-115320000D01*
X107514157Y-115253873D01*
X107514157Y-115253870D01*
X107448495Y-115051782D01*
X107352020Y-114862442D01*
X107227127Y-114690540D01*
X107227123Y-114690535D01*
X107076864Y-114540276D01*
X107076859Y-114540272D01*
X106904955Y-114415377D01*
X106895900Y-114410763D01*
X106893146Y-114408162D01*
X106889470Y-114407244D01*
X106867942Y-114384357D01*
X106845106Y-114362788D01*
X106844195Y-114359110D01*
X106841599Y-114356350D01*
X106835861Y-114325454D01*
X106828312Y-114294966D01*
X106829533Y-114291380D01*
X106828842Y-114287655D01*
X106840717Y-114258565D01*
X106850851Y-114228832D01*
X106854234Y-114225455D01*
X106855250Y-114222968D01*
X106863349Y-114216359D01*
X106880959Y-114198786D01*
X106888108Y-114193767D01*
X106888214Y-114193713D01*
X113669500Y-114193713D01*
X113669500Y-114406286D01*
X113702753Y-114616239D01*
X113768444Y-114818414D01*
X113864951Y-115007820D01*
X113989890Y-115179786D01*
X114140213Y-115330109D01*
X114312179Y-115455048D01*
X114312181Y-115455049D01*
X114312184Y-115455051D01*
X114501588Y-115551557D01*
X114703757Y-115617246D01*
X114913713Y-115650500D01*
X114913714Y-115650500D01*
X115126286Y-115650500D01*
X115126287Y-115650500D01*
X115336243Y-115617246D01*
X115538412Y-115551557D01*
X115727816Y-115455051D01*
X115814478Y-115392088D01*
X115899786Y-115330109D01*
X115899788Y-115330106D01*
X115899792Y-115330104D01*
X116050104Y-115179792D01*
X116050106Y-115179788D01*
X116050109Y-115179786D01*
X116175048Y-115007820D01*
X116175047Y-115007820D01*
X116175051Y-115007816D01*
X116179514Y-114999054D01*
X116227488Y-114948259D01*
X116295308Y-114931463D01*
X116361444Y-114953999D01*
X116400486Y-114999056D01*
X116404951Y-115007820D01*
X116529890Y-115179786D01*
X116680213Y-115330109D01*
X116852179Y-115455048D01*
X116852181Y-115455049D01*
X116852184Y-115455051D01*
X117041588Y-115551557D01*
X117243757Y-115617246D01*
X117453713Y-115650500D01*
X117453714Y-115650500D01*
X117666286Y-115650500D01*
X117666287Y-115650500D01*
X117876243Y-115617246D01*
X118078412Y-115551557D01*
X118267816Y-115455051D01*
X118354478Y-115392088D01*
X118439784Y-115330110D01*
X118439784Y-115330109D01*
X118439792Y-115330104D01*
X118553717Y-115216178D01*
X118615036Y-115182696D01*
X118684728Y-115187680D01*
X118740662Y-115229551D01*
X118757577Y-115260528D01*
X118806646Y-115392088D01*
X118806649Y-115392093D01*
X118892809Y-115507187D01*
X118892812Y-115507190D01*
X119007906Y-115593350D01*
X119007913Y-115593354D01*
X119142620Y-115643596D01*
X119142627Y-115643598D01*
X119202155Y-115649999D01*
X119202172Y-115650000D01*
X119850000Y-115650000D01*
X119850000Y-114733012D01*
X119907007Y-114765925D01*
X120034174Y-114800000D01*
X120165826Y-114800000D01*
X120292993Y-114765925D01*
X120350000Y-114733012D01*
X120350000Y-115650000D01*
X120997828Y-115650000D01*
X120997844Y-115649999D01*
X121041092Y-115645349D01*
X121057372Y-115643598D01*
X121057379Y-115643596D01*
X121192086Y-115593354D01*
X121192093Y-115593350D01*
X121307187Y-115507190D01*
X121307190Y-115507187D01*
X121393350Y-115392093D01*
X121393354Y-115392086D01*
X121443596Y-115257379D01*
X121443598Y-115257372D01*
X121449999Y-115197844D01*
X121450000Y-115197827D01*
X121450000Y-114550000D01*
X120533012Y-114550000D01*
X120565925Y-114492993D01*
X120600000Y-114365826D01*
X120600000Y-114234174D01*
X120565925Y-114107007D01*
X120533012Y-114050000D01*
X121450000Y-114050000D01*
X121450000Y-113402172D01*
X121449999Y-113402155D01*
X121443598Y-113342627D01*
X121443596Y-113342620D01*
X121393354Y-113207913D01*
X121393350Y-113207906D01*
X121307190Y-113092812D01*
X121307187Y-113092809D01*
X121192093Y-113006649D01*
X121192086Y-113006645D01*
X121057379Y-112956403D01*
X121057372Y-112956401D01*
X120997844Y-112950000D01*
X120350000Y-112950000D01*
X120350000Y-113866988D01*
X120292993Y-113834075D01*
X120165826Y-113800000D01*
X120034174Y-113800000D01*
X119907007Y-113834075D01*
X119850000Y-113866988D01*
X119850000Y-112950000D01*
X119202155Y-112950000D01*
X119142627Y-112956401D01*
X119142620Y-112956403D01*
X119007913Y-113006645D01*
X119007906Y-113006649D01*
X118892812Y-113092809D01*
X118892809Y-113092812D01*
X118806649Y-113207906D01*
X118806646Y-113207912D01*
X118757577Y-113339471D01*
X118715705Y-113395404D01*
X118650241Y-113419821D01*
X118581968Y-113404969D01*
X118553714Y-113383818D01*
X118439786Y-113269890D01*
X118267820Y-113144951D01*
X118078414Y-113048444D01*
X118078413Y-113048443D01*
X118078412Y-113048443D01*
X117876243Y-112982754D01*
X117876241Y-112982753D01*
X117876240Y-112982753D01*
X117714957Y-112957208D01*
X117666287Y-112949500D01*
X117453713Y-112949500D01*
X117405042Y-112957208D01*
X117243760Y-112982753D01*
X117041585Y-113048444D01*
X116852179Y-113144951D01*
X116680213Y-113269890D01*
X116529890Y-113420213D01*
X116404949Y-113592182D01*
X116400484Y-113600946D01*
X116352509Y-113651742D01*
X116284688Y-113668536D01*
X116218553Y-113645998D01*
X116179516Y-113600946D01*
X116175050Y-113592182D01*
X116050109Y-113420213D01*
X115899786Y-113269890D01*
X115727820Y-113144951D01*
X115538414Y-113048444D01*
X115538413Y-113048443D01*
X115538412Y-113048443D01*
X115336243Y-112982754D01*
X115336241Y-112982753D01*
X115336240Y-112982753D01*
X115174957Y-112957208D01*
X115126287Y-112949500D01*
X114913713Y-112949500D01*
X114865042Y-112957208D01*
X114703760Y-112982753D01*
X114501585Y-113048444D01*
X114312179Y-113144951D01*
X114140213Y-113269890D01*
X113989890Y-113420213D01*
X113864951Y-113592179D01*
X113768444Y-113781585D01*
X113702753Y-113983760D01*
X113669500Y-114193713D01*
X106888214Y-114193713D01*
X106905216Y-114185051D01*
X107077192Y-114060104D01*
X107227504Y-113909792D01*
X107227506Y-113909788D01*
X107227509Y-113909786D01*
X107352448Y-113737820D01*
X107352447Y-113737820D01*
X107352451Y-113737816D01*
X107448957Y-113548412D01*
X107453373Y-113534818D01*
X107483622Y-113485454D01*
X108901988Y-112067090D01*
X108924432Y-112033501D01*
X108927105Y-112029501D01*
X108927105Y-112029500D01*
X108946890Y-111999890D01*
X108989594Y-111935979D01*
X109049937Y-111790297D01*
X109065362Y-111712754D01*
X109080700Y-111635643D01*
X109080700Y-111477958D01*
X109080700Y-103449097D01*
X109086938Y-103427851D01*
X109088518Y-103405763D01*
X109096590Y-103394979D01*
X109100385Y-103382058D01*
X109117118Y-103367558D01*
X109130390Y-103349830D01*
X109143010Y-103345122D01*
X109153189Y-103336303D01*
X109175106Y-103333151D01*
X109195854Y-103325413D01*
X109209014Y-103328275D01*
X109222347Y-103326359D01*
X109242490Y-103335558D01*
X109264127Y-103340265D01*
X109281852Y-103353533D01*
X109285903Y-103355384D01*
X109292381Y-103361416D01*
X109295339Y-103364374D01*
X109295349Y-103364385D01*
X109299679Y-103368715D01*
X109299680Y-103368716D01*
X109411484Y-103480520D01*
X109411486Y-103480521D01*
X109411490Y-103480524D01*
X109548409Y-103559573D01*
X109548416Y-103559577D01*
X109660219Y-103589534D01*
X109701142Y-103600500D01*
X109701143Y-103600500D01*
X109920234Y-103600500D01*
X109987273Y-103620185D01*
X109989125Y-103621398D01*
X110120814Y-103709390D01*
X110120827Y-103709397D01*
X110266498Y-103769735D01*
X110266503Y-103769737D01*
X110421153Y-103800499D01*
X110421156Y-103800500D01*
X110421158Y-103800500D01*
X110578844Y-103800500D01*
X110578845Y-103800499D01*
X110733497Y-103769737D01*
X110879179Y-103709394D01*
X111010289Y-103621789D01*
X111121789Y-103510289D01*
X111209394Y-103379179D01*
X111269737Y-103233497D01*
X111300500Y-103078842D01*
X111300500Y-102921158D01*
X111300500Y-102921155D01*
X111300499Y-102921153D01*
X111269738Y-102766510D01*
X111269737Y-102766503D01*
X111269735Y-102766498D01*
X111209397Y-102620827D01*
X111209390Y-102620814D01*
X111121789Y-102489711D01*
X111121786Y-102489707D01*
X111010292Y-102378213D01*
X111010288Y-102378210D01*
X110879185Y-102290609D01*
X110879172Y-102290602D01*
X110733501Y-102230264D01*
X110733489Y-102230261D01*
X110578845Y-102199500D01*
X110578842Y-102199500D01*
X110421158Y-102199500D01*
X110421155Y-102199500D01*
X110266510Y-102230261D01*
X110266498Y-102230264D01*
X110120828Y-102290602D01*
X110120814Y-102290610D01*
X110085072Y-102314491D01*
X110018394Y-102335367D01*
X109951014Y-102316881D01*
X109928503Y-102299068D01*
X109117019Y-101487584D01*
X109083534Y-101426261D01*
X109080700Y-101399903D01*
X109080700Y-99759127D01*
X109100385Y-99692088D01*
X109153189Y-99646333D01*
X109222347Y-99636389D01*
X109269496Y-99653403D01*
X109272171Y-99655041D01*
X109272184Y-99655051D01*
X109374507Y-99707187D01*
X109461583Y-99751555D01*
X109461585Y-99751555D01*
X109461588Y-99751557D01*
X109561948Y-99784166D01*
X109663750Y-99817244D01*
X109663751Y-99817244D01*
X109663757Y-99817246D01*
X109747839Y-99830562D01*
X109810970Y-99860490D01*
X109816119Y-99865354D01*
X118963181Y-109012416D01*
X118996666Y-109073739D01*
X118999500Y-109100097D01*
X118999500Y-111220234D01*
X118979815Y-111287273D01*
X118978602Y-111289125D01*
X118890609Y-111420814D01*
X118890602Y-111420827D01*
X118830264Y-111566498D01*
X118830261Y-111566510D01*
X118799500Y-111721153D01*
X118799500Y-111878846D01*
X118830261Y-112033489D01*
X118830264Y-112033501D01*
X118890602Y-112179172D01*
X118890609Y-112179185D01*
X118978210Y-112310288D01*
X118978213Y-112310292D01*
X119089707Y-112421786D01*
X119089711Y-112421789D01*
X119220814Y-112509390D01*
X119220827Y-112509397D01*
X119366498Y-112569735D01*
X119366503Y-112569737D01*
X119521153Y-112600499D01*
X119521156Y-112600500D01*
X119521158Y-112600500D01*
X119678844Y-112600500D01*
X119678845Y-112600499D01*
X119833497Y-112569737D01*
X119973882Y-112511588D01*
X119979172Y-112509397D01*
X119979172Y-112509396D01*
X119979179Y-112509394D01*
X120110289Y-112421789D01*
X120221789Y-112310289D01*
X120309394Y-112179179D01*
X120309723Y-112178386D01*
X120323067Y-112146166D01*
X120369737Y-112033497D01*
X120400500Y-111878842D01*
X120400500Y-111721158D01*
X120400500Y-111721155D01*
X120400499Y-111721153D01*
X120393445Y-111685689D01*
X120369737Y-111566503D01*
X120320438Y-111447483D01*
X120309397Y-111420827D01*
X120309390Y-111420814D01*
X120221398Y-111289125D01*
X120200520Y-111222447D01*
X120200500Y-111220234D01*
X120200500Y-109592135D01*
X134768100Y-109592135D01*
X134768100Y-111387870D01*
X134768101Y-111387876D01*
X134774508Y-111447483D01*
X134824802Y-111582328D01*
X134824803Y-111582330D01*
X134902178Y-111685689D01*
X134926595Y-111751153D01*
X134911744Y-111819426D01*
X134902178Y-111834311D01*
X134824803Y-111937669D01*
X134824802Y-111937671D01*
X134774508Y-112072517D01*
X134768101Y-112132116D01*
X134768100Y-112132135D01*
X134768100Y-113927870D01*
X134768101Y-113927876D01*
X134774508Y-113987483D01*
X134824802Y-114122328D01*
X134824806Y-114122335D01*
X134902489Y-114226105D01*
X134926907Y-114291569D01*
X134912056Y-114359842D01*
X134902490Y-114374727D01*
X134825247Y-114477910D01*
X134825245Y-114477913D01*
X134775003Y-114612620D01*
X134775001Y-114612627D01*
X134768600Y-114672155D01*
X134768600Y-115320000D01*
X135685588Y-115320000D01*
X135652675Y-115377007D01*
X135618600Y-115504174D01*
X135618600Y-115635826D01*
X135652675Y-115762993D01*
X135685588Y-115820000D01*
X134768600Y-115820000D01*
X134768600Y-116467844D01*
X134775001Y-116527372D01*
X134775003Y-116527379D01*
X134825245Y-116662086D01*
X134825249Y-116662093D01*
X134911409Y-116777187D01*
X134911412Y-116777190D01*
X135026506Y-116863350D01*
X135026513Y-116863354D01*
X135161220Y-116913596D01*
X135161227Y-116913598D01*
X135220755Y-116919999D01*
X135220772Y-116920000D01*
X135868600Y-116920000D01*
X135868600Y-116003012D01*
X135925607Y-116035925D01*
X136052774Y-116070000D01*
X136184426Y-116070000D01*
X136311593Y-116035925D01*
X136368600Y-116003012D01*
X136368600Y-116920000D01*
X137016428Y-116920000D01*
X137016444Y-116919999D01*
X137075972Y-116913598D01*
X137075979Y-116913596D01*
X137210686Y-116863354D01*
X137210693Y-116863350D01*
X137325787Y-116777190D01*
X137325790Y-116777187D01*
X137411950Y-116662093D01*
X137411954Y-116662086D01*
X137461214Y-116530013D01*
X137503085Y-116474079D01*
X137568549Y-116449662D01*
X137636822Y-116464513D01*
X137665077Y-116485665D01*
X137779135Y-116599723D01*
X137779140Y-116599727D01*
X137951042Y-116724620D01*
X138140382Y-116821095D01*
X138342471Y-116886757D01*
X138408600Y-116897231D01*
X138408600Y-116003012D01*
X138465607Y-116035925D01*
X138592774Y-116070000D01*
X138724426Y-116070000D01*
X138851593Y-116035925D01*
X138908600Y-116003012D01*
X138908600Y-116897231D01*
X138974726Y-116886757D01*
X138974729Y-116886757D01*
X139176817Y-116821095D01*
X139366157Y-116724620D01*
X139538059Y-116599727D01*
X139538064Y-116599723D01*
X139688323Y-116449464D01*
X139688327Y-116449459D01*
X139813220Y-116277558D01*
X139818114Y-116267954D01*
X139866088Y-116217157D01*
X139933908Y-116200361D01*
X140000044Y-116222897D01*
X140039086Y-116267954D01*
X140043979Y-116277558D01*
X140168872Y-116449459D01*
X140168876Y-116449464D01*
X140319135Y-116599723D01*
X140319140Y-116599727D01*
X140491042Y-116724620D01*
X140680382Y-116821095D01*
X140882471Y-116886757D01*
X140948600Y-116897231D01*
X140948600Y-116003012D01*
X141005607Y-116035925D01*
X141132774Y-116070000D01*
X141264426Y-116070000D01*
X141391593Y-116035925D01*
X141448600Y-116003012D01*
X141448600Y-116897230D01*
X141514726Y-116886757D01*
X141514729Y-116886757D01*
X141716817Y-116821095D01*
X141906157Y-116724620D01*
X142078059Y-116599727D01*
X142078064Y-116599723D01*
X142228323Y-116449464D01*
X142228327Y-116449459D01*
X142353220Y-116277558D01*
X142358114Y-116267954D01*
X142406088Y-116217157D01*
X142473908Y-116200361D01*
X142540044Y-116222897D01*
X142579086Y-116267954D01*
X142583979Y-116277558D01*
X142708872Y-116449459D01*
X142708876Y-116449464D01*
X142859135Y-116599723D01*
X142859140Y-116599727D01*
X143031042Y-116724620D01*
X143220382Y-116821095D01*
X143422471Y-116886757D01*
X143488600Y-116897231D01*
X143488600Y-116003012D01*
X143545607Y-116035925D01*
X143672774Y-116070000D01*
X143804426Y-116070000D01*
X143931593Y-116035925D01*
X143988600Y-116003012D01*
X143988600Y-116897230D01*
X144054726Y-116886757D01*
X144054729Y-116886757D01*
X144256817Y-116821095D01*
X144446157Y-116724620D01*
X144618059Y-116599727D01*
X144618064Y-116599723D01*
X144768323Y-116449464D01*
X144768327Y-116449459D01*
X144893220Y-116277558D01*
X144898114Y-116267954D01*
X144946088Y-116217157D01*
X145013908Y-116200361D01*
X145080044Y-116222897D01*
X145119086Y-116267954D01*
X145123979Y-116277558D01*
X145248872Y-116449459D01*
X145248876Y-116449464D01*
X145399135Y-116599723D01*
X145399140Y-116599727D01*
X145571042Y-116724620D01*
X145760382Y-116821095D01*
X145962471Y-116886757D01*
X146028600Y-116897231D01*
X146028600Y-116003012D01*
X146085607Y-116035925D01*
X146212774Y-116070000D01*
X146344426Y-116070000D01*
X146471593Y-116035925D01*
X146528600Y-116003012D01*
X146528600Y-116897231D01*
X146594726Y-116886757D01*
X146594729Y-116886757D01*
X146796817Y-116821095D01*
X146986157Y-116724620D01*
X147158059Y-116599727D01*
X147158064Y-116599723D01*
X147308323Y-116449464D01*
X147308327Y-116449459D01*
X147433220Y-116277558D01*
X147438114Y-116267954D01*
X147486088Y-116217157D01*
X147553908Y-116200361D01*
X147620044Y-116222897D01*
X147659086Y-116267954D01*
X147663979Y-116277558D01*
X147788872Y-116449459D01*
X147788876Y-116449464D01*
X147939135Y-116599723D01*
X147939140Y-116599727D01*
X148111042Y-116724620D01*
X148300382Y-116821095D01*
X148502471Y-116886757D01*
X148568600Y-116897231D01*
X148568600Y-116003012D01*
X148625607Y-116035925D01*
X148752774Y-116070000D01*
X148884426Y-116070000D01*
X149011593Y-116035925D01*
X149068600Y-116003012D01*
X149068600Y-116897230D01*
X149134726Y-116886757D01*
X149134729Y-116886757D01*
X149336817Y-116821095D01*
X149526157Y-116724620D01*
X149698059Y-116599727D01*
X149698064Y-116599723D01*
X149848323Y-116449464D01*
X149848327Y-116449459D01*
X149973220Y-116277558D01*
X149978114Y-116267954D01*
X150026088Y-116217157D01*
X150093908Y-116200361D01*
X150160044Y-116222897D01*
X150199086Y-116267954D01*
X150203979Y-116277558D01*
X150328872Y-116449459D01*
X150328876Y-116449464D01*
X150479135Y-116599723D01*
X150479140Y-116599727D01*
X150651042Y-116724620D01*
X150840382Y-116821095D01*
X151042471Y-116886757D01*
X151108600Y-116897231D01*
X151108600Y-116003012D01*
X151165607Y-116035925D01*
X151292774Y-116070000D01*
X151424426Y-116070000D01*
X151551593Y-116035925D01*
X151608600Y-116003012D01*
X151608600Y-116897231D01*
X151674726Y-116886757D01*
X151674729Y-116886757D01*
X151876817Y-116821095D01*
X152066157Y-116724620D01*
X152238059Y-116599727D01*
X152238064Y-116599723D01*
X152388323Y-116449464D01*
X152388327Y-116449459D01*
X152513220Y-116277558D01*
X152518114Y-116267954D01*
X152566088Y-116217157D01*
X152633908Y-116200361D01*
X152700044Y-116222897D01*
X152739086Y-116267954D01*
X152743979Y-116277558D01*
X152868872Y-116449459D01*
X152868876Y-116449464D01*
X153019135Y-116599723D01*
X153019140Y-116599727D01*
X153191042Y-116724620D01*
X153380382Y-116821095D01*
X153582471Y-116886757D01*
X153648600Y-116897231D01*
X153648600Y-116003012D01*
X153705607Y-116035925D01*
X153832774Y-116070000D01*
X153964426Y-116070000D01*
X154091593Y-116035925D01*
X154148600Y-116003012D01*
X154148600Y-116897231D01*
X154214726Y-116886757D01*
X154214729Y-116886757D01*
X154416817Y-116821095D01*
X154606157Y-116724620D01*
X154778059Y-116599727D01*
X154778064Y-116599723D01*
X154928323Y-116449464D01*
X154928327Y-116449459D01*
X155053220Y-116277558D01*
X155058114Y-116267954D01*
X155106088Y-116217157D01*
X155173908Y-116200361D01*
X155240044Y-116222897D01*
X155279086Y-116267954D01*
X155283979Y-116277558D01*
X155408872Y-116449459D01*
X155408876Y-116449464D01*
X155559135Y-116599723D01*
X155559140Y-116599727D01*
X155731042Y-116724620D01*
X155920382Y-116821095D01*
X156122471Y-116886757D01*
X156188600Y-116897231D01*
X156188600Y-116003012D01*
X156245607Y-116035925D01*
X156372774Y-116070000D01*
X156504426Y-116070000D01*
X156631593Y-116035925D01*
X156688600Y-116003012D01*
X156688600Y-116897231D01*
X156754726Y-116886757D01*
X156754729Y-116886757D01*
X156956817Y-116821095D01*
X157146157Y-116724620D01*
X157318059Y-116599727D01*
X157318064Y-116599723D01*
X157468323Y-116449464D01*
X157468327Y-116449459D01*
X157593220Y-116277558D01*
X157598114Y-116267954D01*
X157646088Y-116217157D01*
X157713908Y-116200361D01*
X157780044Y-116222897D01*
X157819086Y-116267954D01*
X157823979Y-116277558D01*
X157948872Y-116449459D01*
X157948876Y-116449464D01*
X158099135Y-116599723D01*
X158099140Y-116599727D01*
X158271042Y-116724620D01*
X158460382Y-116821095D01*
X158662471Y-116886757D01*
X158728600Y-116897231D01*
X158728600Y-116003012D01*
X158785607Y-116035925D01*
X158912774Y-116070000D01*
X159044426Y-116070000D01*
X159171593Y-116035925D01*
X159228600Y-116003012D01*
X159228600Y-116897231D01*
X159294726Y-116886757D01*
X159294729Y-116886757D01*
X159496817Y-116821095D01*
X159686157Y-116724620D01*
X159858059Y-116599727D01*
X159858064Y-116599723D01*
X160008323Y-116449464D01*
X160008327Y-116449459D01*
X160133220Y-116277558D01*
X160138114Y-116267954D01*
X160186088Y-116217157D01*
X160253908Y-116200361D01*
X160320044Y-116222897D01*
X160359086Y-116267954D01*
X160363979Y-116277558D01*
X160488872Y-116449459D01*
X160488876Y-116449464D01*
X160639135Y-116599723D01*
X160639140Y-116599727D01*
X160811042Y-116724620D01*
X161000382Y-116821095D01*
X161202471Y-116886757D01*
X161268600Y-116897231D01*
X161268600Y-116003012D01*
X161325607Y-116035925D01*
X161452774Y-116070000D01*
X161584426Y-116070000D01*
X161711593Y-116035925D01*
X161768600Y-116003012D01*
X161768600Y-116897230D01*
X161834726Y-116886757D01*
X161834729Y-116886757D01*
X162036817Y-116821095D01*
X162226157Y-116724620D01*
X162398059Y-116599727D01*
X162398064Y-116599723D01*
X162548323Y-116449464D01*
X162548327Y-116449459D01*
X162673220Y-116277558D01*
X162678114Y-116267954D01*
X162726088Y-116217157D01*
X162793908Y-116200361D01*
X162860044Y-116222897D01*
X162899086Y-116267954D01*
X162903979Y-116277558D01*
X163028872Y-116449459D01*
X163028876Y-116449464D01*
X163179135Y-116599723D01*
X163179140Y-116599727D01*
X163351042Y-116724620D01*
X163540382Y-116821095D01*
X163742471Y-116886757D01*
X163808600Y-116897231D01*
X163808600Y-116003012D01*
X163865607Y-116035925D01*
X163992774Y-116070000D01*
X164124426Y-116070000D01*
X164251593Y-116035925D01*
X164308600Y-116003012D01*
X164308600Y-116897231D01*
X164374726Y-116886757D01*
X164374729Y-116886757D01*
X164576817Y-116821095D01*
X164766157Y-116724620D01*
X164938059Y-116599727D01*
X164938064Y-116599723D01*
X165088323Y-116449464D01*
X165088327Y-116449459D01*
X165213220Y-116277558D01*
X165218114Y-116267954D01*
X165266088Y-116217157D01*
X165333908Y-116200361D01*
X165400044Y-116222897D01*
X165439086Y-116267954D01*
X165443979Y-116277558D01*
X165568872Y-116449459D01*
X165568876Y-116449464D01*
X165719135Y-116599723D01*
X165719140Y-116599727D01*
X165891042Y-116724620D01*
X166080382Y-116821095D01*
X166282471Y-116886757D01*
X166348600Y-116897231D01*
X166348600Y-116003012D01*
X166405607Y-116035925D01*
X166532774Y-116070000D01*
X166664426Y-116070000D01*
X166791593Y-116035925D01*
X166848600Y-116003012D01*
X166848600Y-116897230D01*
X166914726Y-116886757D01*
X166914729Y-116886757D01*
X167116817Y-116821095D01*
X167306157Y-116724620D01*
X167478059Y-116599727D01*
X167478064Y-116599723D01*
X167628323Y-116449464D01*
X167628327Y-116449459D01*
X167753220Y-116277558D01*
X167758114Y-116267954D01*
X167806088Y-116217157D01*
X167873908Y-116200361D01*
X167940044Y-116222897D01*
X167979086Y-116267954D01*
X167983979Y-116277558D01*
X168108872Y-116449459D01*
X168108876Y-116449464D01*
X168259135Y-116599723D01*
X168259140Y-116599727D01*
X168431042Y-116724620D01*
X168620382Y-116821095D01*
X168822471Y-116886757D01*
X168888600Y-116897231D01*
X168888600Y-116003012D01*
X168945607Y-116035925D01*
X169072774Y-116070000D01*
X169204426Y-116070000D01*
X169331593Y-116035925D01*
X169388600Y-116003012D01*
X169388600Y-116897230D01*
X169454726Y-116886757D01*
X169454729Y-116886757D01*
X169656817Y-116821095D01*
X169846157Y-116724620D01*
X170018059Y-116599727D01*
X170018064Y-116599723D01*
X170168323Y-116449464D01*
X170168327Y-116449459D01*
X170293220Y-116277558D01*
X170298114Y-116267954D01*
X170346088Y-116217157D01*
X170413908Y-116200361D01*
X170480044Y-116222897D01*
X170519086Y-116267954D01*
X170523979Y-116277558D01*
X170648872Y-116449459D01*
X170648876Y-116449464D01*
X170799135Y-116599723D01*
X170799140Y-116599727D01*
X170971042Y-116724620D01*
X171160382Y-116821095D01*
X171362471Y-116886757D01*
X171428600Y-116897231D01*
X171428600Y-116003012D01*
X171485607Y-116035925D01*
X171612774Y-116070000D01*
X171744426Y-116070000D01*
X171871593Y-116035925D01*
X171928600Y-116003012D01*
X171928600Y-116897231D01*
X171994726Y-116886757D01*
X171994729Y-116886757D01*
X172196817Y-116821095D01*
X172386157Y-116724620D01*
X172558059Y-116599727D01*
X172558064Y-116599723D01*
X172708323Y-116449464D01*
X172708327Y-116449459D01*
X172833220Y-116277558D01*
X172838114Y-116267954D01*
X172886088Y-116217157D01*
X172953908Y-116200361D01*
X173020044Y-116222897D01*
X173059086Y-116267954D01*
X173063979Y-116277558D01*
X173188872Y-116449459D01*
X173188876Y-116449464D01*
X173339135Y-116599723D01*
X173339140Y-116599727D01*
X173511042Y-116724620D01*
X173700382Y-116821095D01*
X173902471Y-116886757D01*
X173968600Y-116897231D01*
X173968600Y-116003012D01*
X174025607Y-116035925D01*
X174152774Y-116070000D01*
X174284426Y-116070000D01*
X174411593Y-116035925D01*
X174468600Y-116003012D01*
X174468600Y-116897230D01*
X174534726Y-116886757D01*
X174534729Y-116886757D01*
X174736817Y-116821095D01*
X174926157Y-116724620D01*
X175098059Y-116599727D01*
X175098064Y-116599723D01*
X175248323Y-116449464D01*
X175248327Y-116449459D01*
X175373220Y-116277557D01*
X175469695Y-116088217D01*
X175535357Y-115886129D01*
X175535357Y-115886126D01*
X175545831Y-115820000D01*
X174651612Y-115820000D01*
X174684525Y-115762993D01*
X174718600Y-115635826D01*
X174718600Y-115504174D01*
X174684525Y-115377007D01*
X174651612Y-115320000D01*
X175545831Y-115320000D01*
X175535357Y-115253873D01*
X175535357Y-115253870D01*
X175469695Y-115051782D01*
X175373220Y-114862442D01*
X175248327Y-114690540D01*
X175248323Y-114690535D01*
X175098064Y-114540276D01*
X175098059Y-114540272D01*
X174926155Y-114415377D01*
X174917100Y-114410763D01*
X174866306Y-114362788D01*
X174849512Y-114294966D01*
X174872051Y-114228832D01*
X174917108Y-114189793D01*
X174926416Y-114185051D01*
X175060116Y-114087913D01*
X175098386Y-114060109D01*
X175098388Y-114060106D01*
X175098392Y-114060104D01*
X175248704Y-113909792D01*
X175248706Y-113909788D01*
X175248709Y-113909786D01*
X175373648Y-113737820D01*
X175373647Y-113737820D01*
X175373651Y-113737816D01*
X175470157Y-113548412D01*
X175535846Y-113346243D01*
X175569100Y-113136287D01*
X175569100Y-112923713D01*
X175535846Y-112713757D01*
X175470157Y-112511588D01*
X175373651Y-112322184D01*
X175373649Y-112322181D01*
X175373648Y-112322179D01*
X175248709Y-112150213D01*
X175098386Y-111999890D01*
X174926420Y-111874951D01*
X174925715Y-111874591D01*
X174917654Y-111870485D01*
X174866859Y-111822512D01*
X174850063Y-111754692D01*
X174872599Y-111688556D01*
X174917654Y-111649515D01*
X174926416Y-111645051D01*
X174948389Y-111629086D01*
X175098386Y-111520109D01*
X175098388Y-111520106D01*
X175098392Y-111520104D01*
X175248704Y-111369792D01*
X175248706Y-111369788D01*
X175248709Y-111369786D01*
X175373648Y-111197820D01*
X175373647Y-111197820D01*
X175373651Y-111197816D01*
X175470157Y-111008412D01*
X175535846Y-110806243D01*
X175569100Y-110596287D01*
X175569100Y-110383713D01*
X175535846Y-110173757D01*
X175470157Y-109971588D01*
X175373651Y-109782184D01*
X175373649Y-109782181D01*
X175373648Y-109782179D01*
X175248709Y-109610213D01*
X175098386Y-109459890D01*
X174926420Y-109334951D01*
X174737014Y-109238444D01*
X174737013Y-109238443D01*
X174737012Y-109238443D01*
X174534843Y-109172754D01*
X174534841Y-109172753D01*
X174534840Y-109172753D01*
X174373557Y-109147208D01*
X174324887Y-109139500D01*
X174112313Y-109139500D01*
X174063642Y-109147208D01*
X173902360Y-109172753D01*
X173700185Y-109238444D01*
X173510779Y-109334951D01*
X173338813Y-109459890D01*
X173188490Y-109610213D01*
X173063549Y-109782182D01*
X173059084Y-109790946D01*
X173011109Y-109841742D01*
X172943288Y-109858536D01*
X172877153Y-109835998D01*
X172838116Y-109790946D01*
X172833650Y-109782182D01*
X172708709Y-109610213D01*
X172558386Y-109459890D01*
X172386420Y-109334951D01*
X172197014Y-109238444D01*
X172197013Y-109238443D01*
X172197012Y-109238443D01*
X171994843Y-109172754D01*
X171994841Y-109172753D01*
X171994840Y-109172753D01*
X171833557Y-109147208D01*
X171784887Y-109139500D01*
X171572313Y-109139500D01*
X171523642Y-109147208D01*
X171362360Y-109172753D01*
X171160185Y-109238444D01*
X170970779Y-109334951D01*
X170798813Y-109459890D01*
X170648490Y-109610213D01*
X170523549Y-109782182D01*
X170519084Y-109790946D01*
X170471109Y-109841742D01*
X170403288Y-109858536D01*
X170337153Y-109835998D01*
X170298116Y-109790946D01*
X170293650Y-109782182D01*
X170168709Y-109610213D01*
X170018386Y-109459890D01*
X169846420Y-109334951D01*
X169657014Y-109238444D01*
X169657013Y-109238443D01*
X169657012Y-109238443D01*
X169454843Y-109172754D01*
X169454841Y-109172753D01*
X169454840Y-109172753D01*
X169293557Y-109147208D01*
X169244887Y-109139500D01*
X169032313Y-109139500D01*
X168983642Y-109147208D01*
X168822360Y-109172753D01*
X168620185Y-109238444D01*
X168430779Y-109334951D01*
X168258813Y-109459890D01*
X168108490Y-109610213D01*
X167983549Y-109782182D01*
X167979084Y-109790946D01*
X167931109Y-109841742D01*
X167863288Y-109858536D01*
X167797153Y-109835998D01*
X167758116Y-109790946D01*
X167753650Y-109782182D01*
X167628709Y-109610213D01*
X167478386Y-109459890D01*
X167306420Y-109334951D01*
X167117014Y-109238444D01*
X167117013Y-109238443D01*
X167117012Y-109238443D01*
X166914843Y-109172754D01*
X166914841Y-109172753D01*
X166914840Y-109172753D01*
X166753557Y-109147208D01*
X166704887Y-109139500D01*
X166492313Y-109139500D01*
X166443642Y-109147208D01*
X166282360Y-109172753D01*
X166080185Y-109238444D01*
X165890779Y-109334951D01*
X165718813Y-109459890D01*
X165568490Y-109610213D01*
X165443549Y-109782182D01*
X165439084Y-109790946D01*
X165391109Y-109841742D01*
X165323288Y-109858536D01*
X165257153Y-109835998D01*
X165218116Y-109790946D01*
X165213650Y-109782182D01*
X165088709Y-109610213D01*
X164938386Y-109459890D01*
X164766420Y-109334951D01*
X164577014Y-109238444D01*
X164577013Y-109238443D01*
X164577012Y-109238443D01*
X164374843Y-109172754D01*
X164374841Y-109172753D01*
X164374840Y-109172753D01*
X164213557Y-109147208D01*
X164164887Y-109139500D01*
X163952313Y-109139500D01*
X163903642Y-109147208D01*
X163742360Y-109172753D01*
X163540185Y-109238444D01*
X163350779Y-109334951D01*
X163178813Y-109459890D01*
X163028490Y-109610213D01*
X162903549Y-109782182D01*
X162899084Y-109790946D01*
X162851109Y-109841742D01*
X162783288Y-109858536D01*
X162717153Y-109835998D01*
X162678116Y-109790946D01*
X162673650Y-109782182D01*
X162548709Y-109610213D01*
X162398386Y-109459890D01*
X162226420Y-109334951D01*
X162037014Y-109238444D01*
X162037013Y-109238443D01*
X162037012Y-109238443D01*
X161834843Y-109172754D01*
X161834841Y-109172753D01*
X161834840Y-109172753D01*
X161673557Y-109147208D01*
X161624887Y-109139500D01*
X161412313Y-109139500D01*
X161363642Y-109147208D01*
X161202360Y-109172753D01*
X161000185Y-109238444D01*
X160810779Y-109334951D01*
X160638813Y-109459890D01*
X160488490Y-109610213D01*
X160363549Y-109782182D01*
X160359084Y-109790946D01*
X160311109Y-109841742D01*
X160243288Y-109858536D01*
X160177153Y-109835998D01*
X160138116Y-109790946D01*
X160133650Y-109782182D01*
X160008709Y-109610213D01*
X159858386Y-109459890D01*
X159686420Y-109334951D01*
X159497014Y-109238444D01*
X159497013Y-109238443D01*
X159497012Y-109238443D01*
X159294843Y-109172754D01*
X159294841Y-109172753D01*
X159294840Y-109172753D01*
X159133557Y-109147208D01*
X159084887Y-109139500D01*
X158872313Y-109139500D01*
X158823642Y-109147208D01*
X158662360Y-109172753D01*
X158460185Y-109238444D01*
X158270779Y-109334951D01*
X158098813Y-109459890D01*
X157948490Y-109610213D01*
X157823549Y-109782182D01*
X157819084Y-109790946D01*
X157771109Y-109841742D01*
X157703288Y-109858536D01*
X157637153Y-109835998D01*
X157598116Y-109790946D01*
X157593650Y-109782182D01*
X157468709Y-109610213D01*
X157318386Y-109459890D01*
X157146420Y-109334951D01*
X156957014Y-109238444D01*
X156957013Y-109238443D01*
X156957012Y-109238443D01*
X156754843Y-109172754D01*
X156754841Y-109172753D01*
X156754840Y-109172753D01*
X156593557Y-109147208D01*
X156544887Y-109139500D01*
X156332313Y-109139500D01*
X156283642Y-109147208D01*
X156122360Y-109172753D01*
X155920185Y-109238444D01*
X155730779Y-109334951D01*
X155558813Y-109459890D01*
X155408490Y-109610213D01*
X155283549Y-109782182D01*
X155279084Y-109790946D01*
X155231109Y-109841742D01*
X155163288Y-109858536D01*
X155097153Y-109835998D01*
X155058116Y-109790946D01*
X155053650Y-109782182D01*
X154928709Y-109610213D01*
X154778386Y-109459890D01*
X154606420Y-109334951D01*
X154417014Y-109238444D01*
X154417013Y-109238443D01*
X154417012Y-109238443D01*
X154214843Y-109172754D01*
X154214841Y-109172753D01*
X154214840Y-109172753D01*
X154053557Y-109147208D01*
X154004887Y-109139500D01*
X153792313Y-109139500D01*
X153743642Y-109147208D01*
X153582360Y-109172753D01*
X153380185Y-109238444D01*
X153190779Y-109334951D01*
X153018813Y-109459890D01*
X152868490Y-109610213D01*
X152743549Y-109782182D01*
X152739084Y-109790946D01*
X152691109Y-109841742D01*
X152623288Y-109858536D01*
X152557153Y-109835998D01*
X152518116Y-109790946D01*
X152513650Y-109782182D01*
X152388709Y-109610213D01*
X152238386Y-109459890D01*
X152066420Y-109334951D01*
X151877014Y-109238444D01*
X151877013Y-109238443D01*
X151877012Y-109238443D01*
X151674843Y-109172754D01*
X151674841Y-109172753D01*
X151674840Y-109172753D01*
X151513557Y-109147208D01*
X151464887Y-109139500D01*
X151252313Y-109139500D01*
X151203642Y-109147208D01*
X151042360Y-109172753D01*
X150840185Y-109238444D01*
X150650779Y-109334951D01*
X150478813Y-109459890D01*
X150328490Y-109610213D01*
X150203549Y-109782182D01*
X150199084Y-109790946D01*
X150151109Y-109841742D01*
X150083288Y-109858536D01*
X150017153Y-109835998D01*
X149978116Y-109790946D01*
X149973650Y-109782182D01*
X149848709Y-109610213D01*
X149698386Y-109459890D01*
X149526420Y-109334951D01*
X149337014Y-109238444D01*
X149337013Y-109238443D01*
X149337012Y-109238443D01*
X149134843Y-109172754D01*
X149134841Y-109172753D01*
X149134840Y-109172753D01*
X148973557Y-109147208D01*
X148924887Y-109139500D01*
X148712313Y-109139500D01*
X148663642Y-109147208D01*
X148502360Y-109172753D01*
X148300185Y-109238444D01*
X148110779Y-109334951D01*
X147938813Y-109459890D01*
X147788490Y-109610213D01*
X147663549Y-109782182D01*
X147659084Y-109790946D01*
X147611109Y-109841742D01*
X147543288Y-109858536D01*
X147477153Y-109835998D01*
X147438116Y-109790946D01*
X147433650Y-109782182D01*
X147308709Y-109610213D01*
X147158386Y-109459890D01*
X146986420Y-109334951D01*
X146797014Y-109238444D01*
X146797013Y-109238443D01*
X146797012Y-109238443D01*
X146594843Y-109172754D01*
X146594841Y-109172753D01*
X146594840Y-109172753D01*
X146433557Y-109147208D01*
X146384887Y-109139500D01*
X146172313Y-109139500D01*
X146123642Y-109147208D01*
X145962360Y-109172753D01*
X145760185Y-109238444D01*
X145570779Y-109334951D01*
X145398813Y-109459890D01*
X145248490Y-109610213D01*
X145123549Y-109782182D01*
X145119084Y-109790946D01*
X145071109Y-109841742D01*
X145003288Y-109858536D01*
X144937153Y-109835998D01*
X144898116Y-109790946D01*
X144893650Y-109782182D01*
X144768709Y-109610213D01*
X144618386Y-109459890D01*
X144446420Y-109334951D01*
X144257014Y-109238444D01*
X144257013Y-109238443D01*
X144257012Y-109238443D01*
X144054843Y-109172754D01*
X144054841Y-109172753D01*
X144054840Y-109172753D01*
X143893557Y-109147208D01*
X143844887Y-109139500D01*
X143632313Y-109139500D01*
X143583642Y-109147208D01*
X143422360Y-109172753D01*
X143220185Y-109238444D01*
X143030779Y-109334951D01*
X142858813Y-109459890D01*
X142708490Y-109610213D01*
X142583549Y-109782182D01*
X142579084Y-109790946D01*
X142531109Y-109841742D01*
X142463288Y-109858536D01*
X142397153Y-109835998D01*
X142358116Y-109790946D01*
X142353650Y-109782182D01*
X142228709Y-109610213D01*
X142078386Y-109459890D01*
X141906420Y-109334951D01*
X141717014Y-109238444D01*
X141717013Y-109238443D01*
X141717012Y-109238443D01*
X141514843Y-109172754D01*
X141514841Y-109172753D01*
X141514840Y-109172753D01*
X141353557Y-109147208D01*
X141304887Y-109139500D01*
X141092313Y-109139500D01*
X141043642Y-109147208D01*
X140882360Y-109172753D01*
X140680185Y-109238444D01*
X140490779Y-109334951D01*
X140318813Y-109459890D01*
X140168490Y-109610213D01*
X140043549Y-109782182D01*
X140039084Y-109790946D01*
X139991109Y-109841742D01*
X139923288Y-109858536D01*
X139857153Y-109835998D01*
X139818116Y-109790946D01*
X139813650Y-109782182D01*
X139688709Y-109610213D01*
X139538386Y-109459890D01*
X139366420Y-109334951D01*
X139177014Y-109238444D01*
X139177013Y-109238443D01*
X139177012Y-109238443D01*
X138974843Y-109172754D01*
X138974841Y-109172753D01*
X138974840Y-109172753D01*
X138813557Y-109147208D01*
X138764887Y-109139500D01*
X138552313Y-109139500D01*
X138503642Y-109147208D01*
X138342360Y-109172753D01*
X138140185Y-109238444D01*
X137950779Y-109334951D01*
X137778815Y-109459889D01*
X137665273Y-109573431D01*
X137603950Y-109606915D01*
X137534258Y-109601931D01*
X137478325Y-109560059D01*
X137461410Y-109529082D01*
X137412397Y-109397671D01*
X137412393Y-109397664D01*
X137326147Y-109282455D01*
X137326144Y-109282452D01*
X137210935Y-109196206D01*
X137210928Y-109196202D01*
X137076082Y-109145908D01*
X137076083Y-109145908D01*
X137016483Y-109139501D01*
X137016481Y-109139500D01*
X137016473Y-109139500D01*
X137016464Y-109139500D01*
X135220729Y-109139500D01*
X135220723Y-109139501D01*
X135161116Y-109145908D01*
X135026271Y-109196202D01*
X135026264Y-109196206D01*
X134911055Y-109282452D01*
X134911052Y-109282455D01*
X134824806Y-109397664D01*
X134824802Y-109397671D01*
X134774508Y-109532517D01*
X134768101Y-109592116D01*
X134768100Y-109592135D01*
X120200500Y-109592135D01*
X120200500Y-108720945D01*
X120200500Y-108720943D01*
X120159577Y-108568216D01*
X120159573Y-108568209D01*
X120080524Y-108431290D01*
X120080521Y-108431286D01*
X120080520Y-108431284D01*
X119968716Y-108319480D01*
X119968715Y-108319479D01*
X119964385Y-108315149D01*
X119964374Y-108315139D01*
X111092953Y-99443718D01*
X111059468Y-99382395D01*
X111064452Y-99312703D01*
X111080314Y-99283153D01*
X111135051Y-99207816D01*
X111139514Y-99199054D01*
X111187488Y-99148259D01*
X111255308Y-99131463D01*
X111321444Y-99153999D01*
X111360486Y-99199056D01*
X111364951Y-99207820D01*
X111489890Y-99379786D01*
X111640213Y-99530109D01*
X111812179Y-99655048D01*
X111812181Y-99655049D01*
X111812184Y-99655051D01*
X112001588Y-99751557D01*
X112203757Y-99817246D01*
X112413713Y-99850500D01*
X112413714Y-99850500D01*
X112626286Y-99850500D01*
X112626287Y-99850500D01*
X112836243Y-99817246D01*
X113038412Y-99751557D01*
X113227816Y-99655051D01*
X113314478Y-99592088D01*
X113399786Y-99530109D01*
X113399788Y-99530106D01*
X113399792Y-99530104D01*
X113550104Y-99379792D01*
X113550106Y-99379788D01*
X113550109Y-99379786D01*
X113675048Y-99207820D01*
X113675047Y-99207820D01*
X113675051Y-99207816D01*
X113679514Y-99199054D01*
X113727488Y-99148259D01*
X113795308Y-99131463D01*
X113861444Y-99153999D01*
X113900486Y-99199056D01*
X113904951Y-99207820D01*
X114029890Y-99379786D01*
X114180213Y-99530109D01*
X114352179Y-99655048D01*
X114352181Y-99655049D01*
X114352184Y-99655051D01*
X114541588Y-99751557D01*
X114743757Y-99817246D01*
X114953713Y-99850500D01*
X114953714Y-99850500D01*
X115166286Y-99850500D01*
X115166287Y-99850500D01*
X115376243Y-99817246D01*
X115578412Y-99751557D01*
X115767816Y-99655051D01*
X115854478Y-99592088D01*
X115939784Y-99530110D01*
X115939784Y-99530109D01*
X115939792Y-99530104D01*
X116053717Y-99416178D01*
X116115036Y-99382696D01*
X116184728Y-99387680D01*
X116240662Y-99429551D01*
X116257577Y-99460528D01*
X116306646Y-99592088D01*
X116306649Y-99592093D01*
X116392809Y-99707187D01*
X116392812Y-99707190D01*
X116507906Y-99793350D01*
X116507913Y-99793354D01*
X116642620Y-99843596D01*
X116642627Y-99843598D01*
X116702155Y-99849999D01*
X116702172Y-99850000D01*
X117350000Y-99850000D01*
X117350000Y-98933012D01*
X117407007Y-98965925D01*
X117534174Y-99000000D01*
X117665826Y-99000000D01*
X117792993Y-98965925D01*
X117850000Y-98933012D01*
X117850000Y-99850000D01*
X118497828Y-99850000D01*
X118497844Y-99849999D01*
X118557372Y-99843598D01*
X118557379Y-99843596D01*
X118692086Y-99793354D01*
X118692093Y-99793350D01*
X118807187Y-99707190D01*
X118807190Y-99707187D01*
X118893350Y-99592093D01*
X118893354Y-99592086D01*
X118943596Y-99457379D01*
X118943598Y-99457372D01*
X118949999Y-99397844D01*
X118950000Y-99397827D01*
X118950000Y-98750000D01*
X118033012Y-98750000D01*
X118065925Y-98692993D01*
X118100000Y-98565826D01*
X118100000Y-98434174D01*
X118065925Y-98307007D01*
X118033012Y-98250000D01*
X118950000Y-98250000D01*
X118950000Y-97602172D01*
X118949999Y-97602155D01*
X118943598Y-97542627D01*
X118943596Y-97542620D01*
X118893354Y-97407913D01*
X118893350Y-97407906D01*
X118807190Y-97292812D01*
X118807187Y-97292809D01*
X118692093Y-97206649D01*
X118692086Y-97206645D01*
X118557379Y-97156403D01*
X118557372Y-97156401D01*
X118497844Y-97150000D01*
X117850000Y-97150000D01*
X117850000Y-98066988D01*
X117792993Y-98034075D01*
X117665826Y-98000000D01*
X117534174Y-98000000D01*
X117407007Y-98034075D01*
X117350000Y-98066988D01*
X117350000Y-97150000D01*
X116702155Y-97150000D01*
X116642627Y-97156401D01*
X116642620Y-97156403D01*
X116507913Y-97206645D01*
X116507906Y-97206649D01*
X116392812Y-97292809D01*
X116392809Y-97292812D01*
X116306649Y-97407906D01*
X116306646Y-97407912D01*
X116257577Y-97539471D01*
X116215705Y-97595404D01*
X116150241Y-97619821D01*
X116081968Y-97604969D01*
X116053714Y-97583818D01*
X115939786Y-97469890D01*
X115767815Y-97344948D01*
X115767814Y-97344947D01*
X115728205Y-97324765D01*
X115677409Y-97276791D01*
X115660500Y-97214281D01*
X115660500Y-96840097D01*
X115680185Y-96773058D01*
X115696819Y-96752416D01*
X118188417Y-94260819D01*
X118249740Y-94227334D01*
X118276098Y-94224500D01*
X119628696Y-94224500D01*
X119695735Y-94244185D01*
X119741490Y-94296989D01*
X119744050Y-94303010D01*
X119761137Y-94346339D01*
X119761138Y-94346341D01*
X119852577Y-94466922D01*
X119973156Y-94558360D01*
X119973157Y-94558360D01*
X119973158Y-94558361D01*
X120113936Y-94613877D01*
X120202398Y-94624500D01*
X120746000Y-94624500D01*
X120813039Y-94644185D01*
X120858794Y-94696989D01*
X120870000Y-94748500D01*
X120870000Y-95292102D01*
X120875626Y-95338954D01*
X120880622Y-95380561D01*
X120936139Y-95521343D01*
X121027577Y-95641922D01*
X121148158Y-95733361D01*
X121148160Y-95733362D01*
X121206411Y-95756334D01*
X121261555Y-95799240D01*
X121284748Y-95865147D01*
X121282539Y-95895877D01*
X121279500Y-95911156D01*
X121279500Y-96068846D01*
X121310261Y-96223489D01*
X121310264Y-96223501D01*
X121370602Y-96369172D01*
X121370609Y-96369185D01*
X121458210Y-96500288D01*
X121458213Y-96500292D01*
X121569707Y-96611786D01*
X121569711Y-96611789D01*
X121700814Y-96699390D01*
X121700827Y-96699397D01*
X121785372Y-96734416D01*
X121846503Y-96759737D01*
X121992285Y-96788735D01*
X122001153Y-96790499D01*
X122001156Y-96790500D01*
X122001158Y-96790500D01*
X122158844Y-96790500D01*
X122158845Y-96790499D01*
X122313497Y-96759737D01*
X122459179Y-96699394D01*
X122513376Y-96663181D01*
X122590875Y-96611398D01*
X122608921Y-96605747D01*
X122624831Y-96595523D01*
X122655792Y-96591071D01*
X122657553Y-96590520D01*
X122659766Y-96590500D01*
X122793331Y-96590500D01*
X122793347Y-96590501D01*
X122800943Y-96590501D01*
X122959053Y-96590501D01*
X122959057Y-96590501D01*
X123047142Y-96566898D01*
X123116988Y-96568561D01*
X123166915Y-96598993D01*
X123198972Y-96631051D01*
X123198976Y-96631054D01*
X123330079Y-96718655D01*
X123330092Y-96718662D01*
X123461418Y-96773058D01*
X123475768Y-96779002D01*
X123616648Y-96807025D01*
X123630418Y-96809764D01*
X123630421Y-96809765D01*
X123630423Y-96809765D01*
X123788106Y-96809765D01*
X123788107Y-96809765D01*
X123801879Y-96807025D01*
X123871468Y-96813248D01*
X123926648Y-96856108D01*
X123929177Y-96859750D01*
X123951863Y-96893702D01*
X123951866Y-96893706D01*
X124063360Y-97005200D01*
X124063364Y-97005203D01*
X124194467Y-97092804D01*
X124194480Y-97092811D01*
X124332549Y-97150000D01*
X124340156Y-97153151D01*
X124430428Y-97171107D01*
X124499691Y-97184885D01*
X124561602Y-97217270D01*
X124596176Y-97277985D01*
X124599500Y-97306502D01*
X124599500Y-107620234D01*
X124579815Y-107687273D01*
X124578602Y-107689125D01*
X124490609Y-107820814D01*
X124490602Y-107820827D01*
X124430264Y-107966498D01*
X124430261Y-107966510D01*
X124399500Y-108121153D01*
X124399500Y-108278846D01*
X124430261Y-108433489D01*
X124430264Y-108433501D01*
X124490602Y-108579172D01*
X124490609Y-108579185D01*
X124578210Y-108710288D01*
X124578213Y-108710292D01*
X124689707Y-108821786D01*
X124689711Y-108821789D01*
X124820814Y-108909390D01*
X124820827Y-108909397D01*
X124966498Y-108969735D01*
X124966503Y-108969737D01*
X125121153Y-109000499D01*
X125121156Y-109000500D01*
X125121158Y-109000500D01*
X125278844Y-109000500D01*
X125278845Y-109000499D01*
X125433497Y-108969737D01*
X125579179Y-108909394D01*
X125710289Y-108821789D01*
X125821789Y-108710289D01*
X125909394Y-108579179D01*
X125969737Y-108433497D01*
X126000500Y-108278842D01*
X126000500Y-108121158D01*
X126000500Y-108121155D01*
X126000499Y-108121153D01*
X125969738Y-107966510D01*
X125969737Y-107966503D01*
X125969735Y-107966498D01*
X125909397Y-107820827D01*
X125909390Y-107820814D01*
X125821398Y-107689125D01*
X125800520Y-107622447D01*
X125800500Y-107620234D01*
X125800500Y-97041097D01*
X125820185Y-96974058D01*
X125836819Y-96953416D01*
X126269417Y-96520818D01*
X126751020Y-96039216D01*
X126830077Y-95902284D01*
X126845288Y-95845513D01*
X126881651Y-95785856D01*
X126919571Y-95762254D01*
X126992842Y-95733361D01*
X127113422Y-95641922D01*
X127204861Y-95521342D01*
X127204860Y-95521342D01*
X127209986Y-95514584D01*
X127212012Y-95516120D01*
X127252692Y-95476438D01*
X127310763Y-95462000D01*
X128609932Y-95462000D01*
X128676971Y-95481685D01*
X128697613Y-95498319D01*
X135163668Y-101964374D01*
X135163678Y-101964385D01*
X135168008Y-101968715D01*
X135168009Y-101968716D01*
X135279813Y-102080520D01*
X135351294Y-102121789D01*
X135416744Y-102159577D01*
X135569472Y-102200500D01*
X135727586Y-102200500D01*
X143657790Y-102200500D01*
X143657806Y-102200501D01*
X143665402Y-102200501D01*
X143823513Y-102200501D01*
X143823516Y-102200501D01*
X143976244Y-102159577D01*
X144041694Y-102121789D01*
X144113175Y-102080520D01*
X144224979Y-101968716D01*
X144224979Y-101968714D01*
X144235183Y-101958511D01*
X144235187Y-101958506D01*
X146158506Y-100035187D01*
X146158511Y-100035183D01*
X146168714Y-100024979D01*
X146168716Y-100024979D01*
X146280520Y-99913175D01*
X146345986Y-99799784D01*
X146359577Y-99776244D01*
X146400501Y-99623516D01*
X146400501Y-99465402D01*
X146400501Y-99457807D01*
X146400500Y-99457789D01*
X146400500Y-95349097D01*
X146420185Y-95282058D01*
X146472989Y-95236303D01*
X146542147Y-95226359D01*
X146605703Y-95255384D01*
X146612179Y-95261414D01*
X149131284Y-97780520D01*
X149131286Y-97780521D01*
X149131290Y-97780524D01*
X149234316Y-97840005D01*
X149268216Y-97859577D01*
X149420943Y-97900501D01*
X149420945Y-97900501D01*
X149586654Y-97900501D01*
X149586670Y-97900500D01*
X153492594Y-97900500D01*
X153559633Y-97920185D01*
X153605388Y-97972989D01*
X153607156Y-97977049D01*
X153614898Y-97995742D01*
X153614902Y-97995750D01*
X153680720Y-98109749D01*
X153680732Y-98109767D01*
X153737508Y-98183757D01*
X153761059Y-98214449D01*
X153854151Y-98307541D01*
X153854154Y-98307543D01*
X153854155Y-98307544D01*
X153958832Y-98387867D01*
X153958836Y-98387869D01*
X153958843Y-98387875D01*
X153958850Y-98387879D01*
X154072848Y-98453696D01*
X154072849Y-98453697D01*
X154072852Y-98453698D01*
X154072857Y-98453701D01*
X154194771Y-98504200D01*
X154321938Y-98538275D01*
X154452774Y-98555500D01*
X154452781Y-98555500D01*
X155018600Y-98555500D01*
X155085254Y-98550733D01*
X155098414Y-98553595D01*
X155111747Y-98551679D01*
X155131890Y-98560878D01*
X155153527Y-98565585D01*
X155163050Y-98575108D01*
X155175303Y-98580704D01*
X155187275Y-98599333D01*
X155202932Y-98614990D01*
X155206618Y-98629431D01*
X155213077Y-98639482D01*
X155218100Y-98674417D01*
X155218100Y-98759744D01*
X155198415Y-98826783D01*
X155145611Y-98872538D01*
X155129039Y-98878720D01*
X155113669Y-98883233D01*
X155090007Y-98890181D01*
X155090004Y-98890183D01*
X154968969Y-98967967D01*
X154968965Y-98967971D01*
X154874750Y-99076700D01*
X154874744Y-99076709D01*
X154814976Y-99207580D01*
X154814975Y-99207585D01*
X154794500Y-99349999D01*
X154794500Y-100850002D01*
X154799644Y-100921940D01*
X154840182Y-101059994D01*
X154917967Y-101181030D01*
X154917971Y-101181034D01*
X155026700Y-101275249D01*
X155026706Y-101275254D01*
X155067174Y-101293735D01*
X155157580Y-101335023D01*
X155157583Y-101335023D01*
X155157584Y-101335024D01*
X155300000Y-101355500D01*
X155300003Y-101355500D01*
X155865819Y-101355500D01*
X155865826Y-101355500D01*
X155996662Y-101338275D01*
X156123829Y-101304200D01*
X156245743Y-101253701D01*
X156359757Y-101187875D01*
X156464449Y-101107541D01*
X156557541Y-101014449D01*
X156637875Y-100909757D01*
X156703701Y-100795743D01*
X156754200Y-100673829D01*
X156788275Y-100546662D01*
X156805500Y-100415826D01*
X156805500Y-99784174D01*
X156788275Y-99653338D01*
X156754200Y-99526171D01*
X156703701Y-99404257D01*
X156703698Y-99404252D01*
X156703697Y-99404249D01*
X156703696Y-99404248D01*
X156637879Y-99290250D01*
X156637875Y-99290243D01*
X156626374Y-99275255D01*
X156557544Y-99185555D01*
X156557541Y-99185551D01*
X156464449Y-99092459D01*
X156464443Y-99092454D01*
X156461398Y-99089784D01*
X156462750Y-99088242D01*
X156426397Y-99038421D01*
X156419100Y-98996512D01*
X156419100Y-98417761D01*
X156438785Y-98350722D01*
X156467614Y-98319385D01*
X156483046Y-98307543D01*
X156483049Y-98307541D01*
X156576141Y-98214449D01*
X156656475Y-98109757D01*
X156722301Y-97995743D01*
X156772800Y-97873829D01*
X156806875Y-97746662D01*
X156824100Y-97615826D01*
X156824100Y-96984174D01*
X156806875Y-96853338D01*
X156772800Y-96726171D01*
X156722301Y-96604257D01*
X156722298Y-96604252D01*
X156722297Y-96604249D01*
X156722294Y-96604244D01*
X156667757Y-96509784D01*
X156662087Y-96499964D01*
X156645614Y-96432066D01*
X156668466Y-96366039D01*
X156681789Y-96350288D01*
X156721789Y-96310289D01*
X156809394Y-96179179D01*
X156869737Y-96033497D01*
X156900500Y-95878842D01*
X156900500Y-95721158D01*
X156900500Y-95721155D01*
X156900499Y-95721153D01*
X156897364Y-95705394D01*
X156869737Y-95566503D01*
X156844796Y-95506289D01*
X156815058Y-95434494D01*
X156807589Y-95365025D01*
X156838864Y-95302546D01*
X156882167Y-95272481D01*
X156885410Y-95271137D01*
X156885413Y-95271137D01*
X156957502Y-95241276D01*
X157031089Y-95210797D01*
X157031092Y-95210795D01*
X157031095Y-95210794D01*
X157162205Y-95123189D01*
X157273705Y-95011689D01*
X157361310Y-94880579D01*
X157363993Y-94874103D01*
X157410220Y-94762498D01*
X157421653Y-94734897D01*
X157452416Y-94580242D01*
X157452416Y-94422558D01*
X157452416Y-94422555D01*
X157452415Y-94422553D01*
X157442799Y-94374211D01*
X157421653Y-94267903D01*
X157387588Y-94185662D01*
X157361313Y-94122227D01*
X157361306Y-94122214D01*
X157336622Y-94085272D01*
X157315744Y-94018595D01*
X157334228Y-93951214D01*
X157336622Y-93947490D01*
X157409390Y-93838585D01*
X157409390Y-93838584D01*
X157409394Y-93838579D01*
X157469737Y-93692897D01*
X157500500Y-93538242D01*
X157500500Y-93380558D01*
X157500500Y-93380555D01*
X157500499Y-93380553D01*
X157496754Y-93361724D01*
X157469737Y-93225903D01*
X157468841Y-93223739D01*
X157409397Y-93080227D01*
X157409390Y-93080214D01*
X157321789Y-92949111D01*
X157321786Y-92949107D01*
X157210292Y-92837613D01*
X157210288Y-92837610D01*
X157079185Y-92750009D01*
X157079172Y-92750002D01*
X156933501Y-92689664D01*
X156933489Y-92689661D01*
X156778845Y-92658900D01*
X156778842Y-92658900D01*
X156621158Y-92658900D01*
X156621155Y-92658900D01*
X156466510Y-92689661D01*
X156466498Y-92689664D01*
X156320827Y-92750002D01*
X156320814Y-92750009D01*
X156189711Y-92837610D01*
X156189707Y-92837613D01*
X156078213Y-92949107D01*
X156078207Y-92949115D01*
X155990607Y-93080217D01*
X155985949Y-93091464D01*
X155976315Y-93104066D01*
X155971809Y-93116754D01*
X155955107Y-93131813D01*
X155947246Y-93142098D01*
X155940625Y-93147217D01*
X155877973Y-93183391D01*
X155823801Y-93237562D01*
X155817559Y-93242390D01*
X155792075Y-93252352D01*
X155768060Y-93265466D01*
X155754917Y-93266879D01*
X155752485Y-93267830D01*
X155750251Y-93267380D01*
X155741702Y-93268300D01*
X153477897Y-93268300D01*
X153410858Y-93248615D01*
X153390216Y-93231981D01*
X147836819Y-87678584D01*
X147803334Y-87617261D01*
X147800500Y-87590903D01*
X147800500Y-87391285D01*
X147820185Y-87324246D01*
X147872989Y-87278491D01*
X147942147Y-87268547D01*
X148005703Y-87297572D01*
X148043477Y-87356350D01*
X148046117Y-87367094D01*
X148048861Y-87380889D01*
X148048864Y-87380901D01*
X148109202Y-87526572D01*
X148109209Y-87526585D01*
X148196810Y-87657688D01*
X148196813Y-87657692D01*
X148308307Y-87769186D01*
X148308311Y-87769189D01*
X148439414Y-87856790D01*
X148439427Y-87856797D01*
X148585098Y-87917135D01*
X148585103Y-87917137D01*
X148715069Y-87942989D01*
X148739753Y-87947899D01*
X148739756Y-87947900D01*
X148739758Y-87947900D01*
X148897444Y-87947900D01*
X148897445Y-87947899D01*
X149052097Y-87917137D01*
X149197779Y-87856794D01*
X149328889Y-87769189D01*
X149440389Y-87657689D01*
X149527994Y-87526579D01*
X149588337Y-87380897D01*
X149619100Y-87226242D01*
X149619100Y-87068558D01*
X149619100Y-87068555D01*
X149619099Y-87068553D01*
X149608747Y-87016510D01*
X149588337Y-86913903D01*
X149572942Y-86876735D01*
X149527997Y-86768227D01*
X149527990Y-86768214D01*
X149439998Y-86636525D01*
X149419120Y-86569847D01*
X149419100Y-86567634D01*
X149419100Y-83855406D01*
X149438785Y-83788367D01*
X149491589Y-83742612D01*
X149495633Y-83740850D01*
X149514343Y-83733101D01*
X149515601Y-83732375D01*
X149525768Y-83726505D01*
X149628357Y-83667275D01*
X149733049Y-83586941D01*
X149826141Y-83493849D01*
X149906475Y-83389157D01*
X149972301Y-83275143D01*
X149974040Y-83270944D01*
X150017878Y-83216543D01*
X150084172Y-83194477D01*
X150151872Y-83211755D01*
X150199483Y-83262891D01*
X150203150Y-83270922D01*
X150204899Y-83275143D01*
X150204903Y-83275152D01*
X150270720Y-83389149D01*
X150270732Y-83389167D01*
X150337122Y-83475686D01*
X150351059Y-83493849D01*
X150444151Y-83586941D01*
X150444155Y-83586944D01*
X150548832Y-83667267D01*
X150548836Y-83667269D01*
X150548843Y-83667275D01*
X150548850Y-83667279D01*
X150662849Y-83733097D01*
X150662857Y-83733101D01*
X150681551Y-83740844D01*
X150735955Y-83784684D01*
X150758021Y-83850978D01*
X150758100Y-83855406D01*
X150758100Y-86567634D01*
X150738415Y-86634673D01*
X150737202Y-86636525D01*
X150649209Y-86768214D01*
X150649202Y-86768227D01*
X150588864Y-86913898D01*
X150588861Y-86913910D01*
X150558100Y-87068553D01*
X150558100Y-87226246D01*
X150588861Y-87380889D01*
X150588864Y-87380901D01*
X150649202Y-87526572D01*
X150649209Y-87526585D01*
X150736810Y-87657688D01*
X150736813Y-87657692D01*
X150848307Y-87769186D01*
X150848311Y-87769189D01*
X150979414Y-87856790D01*
X150979427Y-87856797D01*
X151125098Y-87917135D01*
X151125103Y-87917137D01*
X151255069Y-87942989D01*
X151279753Y-87947899D01*
X151279756Y-87947900D01*
X151279758Y-87947900D01*
X151437444Y-87947900D01*
X151437445Y-87947899D01*
X151592097Y-87917137D01*
X151737779Y-87856794D01*
X151868889Y-87769189D01*
X151980389Y-87657689D01*
X152067994Y-87526579D01*
X152128337Y-87380897D01*
X152159100Y-87226242D01*
X152159100Y-87068558D01*
X152159100Y-87068555D01*
X152159099Y-87068553D01*
X152148747Y-87016510D01*
X152128337Y-86913903D01*
X152112942Y-86876735D01*
X152067997Y-86768227D01*
X152067990Y-86768214D01*
X151979998Y-86636525D01*
X151959120Y-86569847D01*
X151959100Y-86567634D01*
X151959100Y-83855406D01*
X151978785Y-83788367D01*
X152031589Y-83742612D01*
X152035633Y-83740850D01*
X152054343Y-83733101D01*
X152055601Y-83732375D01*
X152065768Y-83726505D01*
X152168357Y-83667275D01*
X152273049Y-83586941D01*
X152366141Y-83493849D01*
X152446475Y-83389157D01*
X152512301Y-83275143D01*
X152514040Y-83270944D01*
X152557878Y-83216543D01*
X152624172Y-83194477D01*
X152691872Y-83211755D01*
X152739483Y-83262891D01*
X152743150Y-83270922D01*
X152744899Y-83275143D01*
X152744903Y-83275152D01*
X152810720Y-83389149D01*
X152810732Y-83389167D01*
X152877122Y-83475686D01*
X152891059Y-83493849D01*
X152984151Y-83586941D01*
X152984155Y-83586944D01*
X153088832Y-83667267D01*
X153088836Y-83667269D01*
X153088843Y-83667275D01*
X153088850Y-83667279D01*
X153202849Y-83733097D01*
X153202857Y-83733101D01*
X153221551Y-83740844D01*
X153275955Y-83784684D01*
X153298021Y-83850978D01*
X153298100Y-83855406D01*
X153298100Y-86567634D01*
X153278415Y-86634673D01*
X153277202Y-86636525D01*
X153189209Y-86768214D01*
X153189202Y-86768227D01*
X153128864Y-86913898D01*
X153128861Y-86913910D01*
X153098100Y-87068553D01*
X153098100Y-87226246D01*
X153128861Y-87380889D01*
X153128864Y-87380901D01*
X153189202Y-87526572D01*
X153189209Y-87526585D01*
X153276810Y-87657688D01*
X153276813Y-87657692D01*
X153388307Y-87769186D01*
X153388311Y-87769189D01*
X153519414Y-87856790D01*
X153519427Y-87856797D01*
X153665098Y-87917135D01*
X153665103Y-87917137D01*
X153795069Y-87942989D01*
X153819753Y-87947899D01*
X153819756Y-87947900D01*
X153819758Y-87947900D01*
X153977444Y-87947900D01*
X153977445Y-87947899D01*
X154132097Y-87917137D01*
X154277779Y-87856794D01*
X154408889Y-87769189D01*
X154520389Y-87657689D01*
X154607994Y-87526579D01*
X154668337Y-87380897D01*
X154699100Y-87226242D01*
X154699100Y-87068558D01*
X154699100Y-87068555D01*
X154699099Y-87068553D01*
X154688747Y-87016510D01*
X154668337Y-86913903D01*
X154652942Y-86876735D01*
X154607997Y-86768227D01*
X154607990Y-86768214D01*
X154519998Y-86636525D01*
X154499120Y-86569847D01*
X154499100Y-86567634D01*
X154499100Y-83855406D01*
X154518785Y-83788367D01*
X154571589Y-83742612D01*
X154575633Y-83740850D01*
X154594343Y-83733101D01*
X154595601Y-83732375D01*
X154605768Y-83726505D01*
X154708357Y-83667275D01*
X154813049Y-83586941D01*
X154906141Y-83493849D01*
X154986475Y-83389157D01*
X155052301Y-83275143D01*
X155054040Y-83270944D01*
X155097878Y-83216543D01*
X155164172Y-83194477D01*
X155231872Y-83211755D01*
X155279483Y-83262891D01*
X155283150Y-83270922D01*
X155284899Y-83275143D01*
X155284903Y-83275152D01*
X155350720Y-83389149D01*
X155350732Y-83389167D01*
X155417122Y-83475686D01*
X155431059Y-83493849D01*
X155524151Y-83586941D01*
X155524155Y-83586944D01*
X155628832Y-83667267D01*
X155628836Y-83667269D01*
X155628843Y-83667275D01*
X155628850Y-83667279D01*
X155742849Y-83733097D01*
X155742857Y-83733101D01*
X155761551Y-83740844D01*
X155815955Y-83784684D01*
X155838021Y-83850978D01*
X155838100Y-83855406D01*
X155838100Y-86567634D01*
X155818415Y-86634673D01*
X155817202Y-86636525D01*
X155729209Y-86768214D01*
X155729202Y-86768227D01*
X155668864Y-86913898D01*
X155668861Y-86913910D01*
X155638100Y-87068553D01*
X155638100Y-87226246D01*
X155668861Y-87380889D01*
X155668864Y-87380901D01*
X155729202Y-87526572D01*
X155729209Y-87526585D01*
X155816810Y-87657688D01*
X155816813Y-87657692D01*
X155928307Y-87769186D01*
X155928311Y-87769189D01*
X156059414Y-87856790D01*
X156059427Y-87856797D01*
X156205098Y-87917135D01*
X156205103Y-87917137D01*
X156335069Y-87942989D01*
X156359753Y-87947899D01*
X156359756Y-87947900D01*
X156359758Y-87947900D01*
X156517444Y-87947900D01*
X156517445Y-87947899D01*
X156672097Y-87917137D01*
X156817779Y-87856794D01*
X156948889Y-87769189D01*
X157060389Y-87657689D01*
X157147994Y-87526579D01*
X157208337Y-87380897D01*
X157239100Y-87226242D01*
X157239100Y-87068558D01*
X157239100Y-87068555D01*
X157239099Y-87068553D01*
X157228747Y-87016510D01*
X157208337Y-86913903D01*
X157192942Y-86876735D01*
X157147997Y-86768227D01*
X157147990Y-86768214D01*
X157059998Y-86636525D01*
X157039120Y-86569847D01*
X157039100Y-86567634D01*
X157039100Y-83855406D01*
X157058785Y-83788367D01*
X157111589Y-83742612D01*
X157115633Y-83740850D01*
X157134343Y-83733101D01*
X157135601Y-83732375D01*
X157145768Y-83726505D01*
X157248357Y-83667275D01*
X157353049Y-83586941D01*
X157446141Y-83493849D01*
X157526475Y-83389157D01*
X157592301Y-83275143D01*
X157594040Y-83270944D01*
X157637878Y-83216543D01*
X157704172Y-83194477D01*
X157771872Y-83211755D01*
X157819483Y-83262891D01*
X157823150Y-83270922D01*
X157824899Y-83275143D01*
X157824903Y-83275152D01*
X157890720Y-83389149D01*
X157890732Y-83389167D01*
X157957122Y-83475686D01*
X157971059Y-83493849D01*
X158064151Y-83586941D01*
X158064155Y-83586944D01*
X158168832Y-83667267D01*
X158168836Y-83667269D01*
X158168843Y-83667275D01*
X158168850Y-83667279D01*
X158282849Y-83733097D01*
X158282857Y-83733101D01*
X158301551Y-83740844D01*
X158355955Y-83784684D01*
X158378021Y-83850978D01*
X158378100Y-83855406D01*
X158378100Y-86567634D01*
X158358415Y-86634673D01*
X158357202Y-86636525D01*
X158269209Y-86768214D01*
X158269202Y-86768227D01*
X158208864Y-86913898D01*
X158208861Y-86913910D01*
X158178100Y-87068553D01*
X158178100Y-87226246D01*
X158208861Y-87380889D01*
X158208864Y-87380901D01*
X158269202Y-87526572D01*
X158269209Y-87526585D01*
X158356810Y-87657688D01*
X158356813Y-87657692D01*
X158468307Y-87769186D01*
X158468311Y-87769189D01*
X158599414Y-87856790D01*
X158599427Y-87856797D01*
X158745098Y-87917135D01*
X158745103Y-87917137D01*
X158875069Y-87942989D01*
X158899753Y-87947899D01*
X158899756Y-87947900D01*
X158899758Y-87947900D01*
X159057444Y-87947900D01*
X159057445Y-87947899D01*
X159212097Y-87917137D01*
X159357779Y-87856794D01*
X159488889Y-87769189D01*
X159600389Y-87657689D01*
X159687994Y-87526579D01*
X159748337Y-87380897D01*
X159779100Y-87226242D01*
X159779100Y-87068558D01*
X159779100Y-87068555D01*
X159779099Y-87068553D01*
X159768747Y-87016510D01*
X159748337Y-86913903D01*
X159732942Y-86876735D01*
X159687997Y-86768227D01*
X159687990Y-86768214D01*
X159599998Y-86636525D01*
X159579120Y-86569847D01*
X159579100Y-86567634D01*
X159579100Y-83855406D01*
X159598785Y-83788367D01*
X159651589Y-83742612D01*
X159655633Y-83740850D01*
X159674343Y-83733101D01*
X159675601Y-83732375D01*
X159685768Y-83726505D01*
X159788357Y-83667275D01*
X159893049Y-83586941D01*
X159986141Y-83493849D01*
X160066475Y-83389157D01*
X160132301Y-83275143D01*
X160134040Y-83270944D01*
X160177878Y-83216543D01*
X160244172Y-83194477D01*
X160311872Y-83211755D01*
X160359483Y-83262891D01*
X160363150Y-83270922D01*
X160364899Y-83275143D01*
X160364903Y-83275152D01*
X160430720Y-83389149D01*
X160430732Y-83389167D01*
X160497122Y-83475686D01*
X160511059Y-83493849D01*
X160604151Y-83586941D01*
X160604155Y-83586944D01*
X160708832Y-83667267D01*
X160708836Y-83667269D01*
X160708843Y-83667275D01*
X160708850Y-83667279D01*
X160822849Y-83733097D01*
X160822857Y-83733101D01*
X160841551Y-83740844D01*
X160895955Y-83784684D01*
X160918021Y-83850978D01*
X160918100Y-83855406D01*
X160918100Y-86313634D01*
X160898415Y-86380673D01*
X160897202Y-86382525D01*
X160809209Y-86514214D01*
X160809202Y-86514227D01*
X160748864Y-86659898D01*
X160748861Y-86659910D01*
X160718100Y-86814553D01*
X160718100Y-86972246D01*
X160748861Y-87126889D01*
X160748864Y-87126901D01*
X160809202Y-87272572D01*
X160809209Y-87272585D01*
X160896810Y-87403688D01*
X160896813Y-87403692D01*
X161008307Y-87515186D01*
X161008311Y-87515189D01*
X161139414Y-87602790D01*
X161139427Y-87602797D01*
X161285098Y-87663135D01*
X161285103Y-87663137D01*
X161378762Y-87681767D01*
X161439753Y-87693899D01*
X161439756Y-87693900D01*
X161439758Y-87693900D01*
X161597444Y-87693900D01*
X161597445Y-87693899D01*
X161752097Y-87663137D01*
X161897779Y-87602794D01*
X162028889Y-87515189D01*
X162140389Y-87403689D01*
X162227994Y-87272579D01*
X162288337Y-87126897D01*
X162319100Y-86972242D01*
X162319100Y-86814558D01*
X162319100Y-86814555D01*
X162319099Y-86814553D01*
X162309883Y-86768221D01*
X162288337Y-86659903D01*
X162278654Y-86636525D01*
X162227997Y-86514227D01*
X162227990Y-86514214D01*
X162139998Y-86382525D01*
X162119120Y-86315847D01*
X162119100Y-86313634D01*
X162119100Y-83855406D01*
X162138785Y-83788367D01*
X162191589Y-83742612D01*
X162195633Y-83740850D01*
X162214343Y-83733101D01*
X162215601Y-83732375D01*
X162225768Y-83726505D01*
X162328357Y-83667275D01*
X162433049Y-83586941D01*
X162526141Y-83493849D01*
X162606475Y-83389157D01*
X162672301Y-83275143D01*
X162722800Y-83153229D01*
X162756875Y-83026062D01*
X162774100Y-82895226D01*
X162774100Y-82329400D01*
X162768955Y-82257460D01*
X162767626Y-82252935D01*
X162749907Y-82192590D01*
X162728419Y-82119408D01*
X162676813Y-82039108D01*
X162650632Y-81998369D01*
X162650628Y-81998365D01*
X162541899Y-81904150D01*
X162541897Y-81904148D01*
X162541894Y-81904146D01*
X162541890Y-81904144D01*
X162411019Y-81844376D01*
X162411014Y-81844375D01*
X162268600Y-81823900D01*
X160768600Y-81823900D01*
X160768597Y-81823900D01*
X160696659Y-81829044D01*
X160558605Y-81869582D01*
X160437569Y-81947367D01*
X160437565Y-81947371D01*
X160339508Y-82060534D01*
X160280730Y-82098308D01*
X160210860Y-82098308D01*
X160152082Y-82060533D01*
X160141481Y-82046371D01*
X160110632Y-81998369D01*
X160110628Y-81998365D01*
X160001899Y-81904150D01*
X160001897Y-81904148D01*
X160001894Y-81904146D01*
X160001890Y-81904144D01*
X159871019Y-81844376D01*
X159871014Y-81844375D01*
X159728600Y-81823900D01*
X158228600Y-81823900D01*
X158228597Y-81823900D01*
X158156659Y-81829044D01*
X158018605Y-81869582D01*
X157897569Y-81947367D01*
X157897565Y-81947371D01*
X157799508Y-82060534D01*
X157740730Y-82098308D01*
X157670860Y-82098308D01*
X157612082Y-82060533D01*
X157601481Y-82046371D01*
X157570632Y-81998369D01*
X157570628Y-81998365D01*
X157461899Y-81904150D01*
X157461897Y-81904148D01*
X157461894Y-81904146D01*
X157461890Y-81904144D01*
X157331019Y-81844376D01*
X157331014Y-81844375D01*
X157188600Y-81823900D01*
X155688600Y-81823900D01*
X155688597Y-81823900D01*
X155616659Y-81829044D01*
X155478605Y-81869582D01*
X155357569Y-81947367D01*
X155357565Y-81947371D01*
X155259508Y-82060534D01*
X155200730Y-82098308D01*
X155130860Y-82098308D01*
X155072082Y-82060533D01*
X155061481Y-82046371D01*
X155030632Y-81998369D01*
X155030628Y-81998365D01*
X154921899Y-81904150D01*
X154921897Y-81904148D01*
X154921894Y-81904146D01*
X154921890Y-81904144D01*
X154791019Y-81844376D01*
X154791014Y-81844375D01*
X154648600Y-81823900D01*
X153148600Y-81823900D01*
X153148597Y-81823900D01*
X153076659Y-81829044D01*
X152938605Y-81869582D01*
X152817569Y-81947367D01*
X152817565Y-81947371D01*
X152719508Y-82060534D01*
X152660730Y-82098308D01*
X152590860Y-82098308D01*
X152532082Y-82060533D01*
X152521481Y-82046371D01*
X152490632Y-81998369D01*
X152490628Y-81998365D01*
X152381899Y-81904150D01*
X152381897Y-81904148D01*
X152381894Y-81904146D01*
X152381890Y-81904144D01*
X152251019Y-81844376D01*
X152251014Y-81844375D01*
X152108600Y-81823900D01*
X150608600Y-81823900D01*
X150608597Y-81823900D01*
X150536659Y-81829044D01*
X150398605Y-81869582D01*
X150277569Y-81947367D01*
X150277565Y-81947371D01*
X150179508Y-82060534D01*
X150120730Y-82098308D01*
X150050860Y-82098308D01*
X149992082Y-82060533D01*
X149981481Y-82046371D01*
X149950632Y-81998369D01*
X149950628Y-81998365D01*
X149841899Y-81904150D01*
X149841897Y-81904148D01*
X149841894Y-81904146D01*
X149841890Y-81904144D01*
X149711019Y-81844376D01*
X149711014Y-81844375D01*
X149568600Y-81823900D01*
X148068600Y-81823900D01*
X148068597Y-81823900D01*
X147996659Y-81829044D01*
X147858605Y-81869582D01*
X147737569Y-81947367D01*
X147737565Y-81947371D01*
X147643350Y-82056100D01*
X147643344Y-82056109D01*
X147583576Y-82186980D01*
X147583575Y-82186985D01*
X147563100Y-82329399D01*
X147563100Y-82895233D01*
X147580324Y-83026058D01*
X147580325Y-83026062D01*
X147590498Y-83064029D01*
X147614400Y-83153229D01*
X147664902Y-83275150D01*
X147664903Y-83275151D01*
X147730720Y-83389149D01*
X147730732Y-83389167D01*
X147797122Y-83475686D01*
X147811059Y-83493849D01*
X147904151Y-83586941D01*
X147904155Y-83586944D01*
X148008832Y-83667267D01*
X148008836Y-83667269D01*
X148008843Y-83667275D01*
X148008850Y-83667279D01*
X148122849Y-83733097D01*
X148122857Y-83733101D01*
X148141551Y-83740844D01*
X148195955Y-83784684D01*
X148218021Y-83850978D01*
X148218100Y-83855406D01*
X148218100Y-86567634D01*
X148198415Y-86634673D01*
X148197202Y-86636525D01*
X148109209Y-86768214D01*
X148109202Y-86768227D01*
X148048864Y-86913898D01*
X148048861Y-86913908D01*
X148046117Y-86927706D01*
X148013732Y-86989617D01*
X147953016Y-87024191D01*
X147883246Y-87020450D01*
X147826575Y-86979584D01*
X147800993Y-86914566D01*
X147800500Y-86903514D01*
X147800500Y-84128945D01*
X147800500Y-84128943D01*
X147759577Y-83976216D01*
X147757125Y-83971969D01*
X147680524Y-83839290D01*
X147680521Y-83839286D01*
X147680520Y-83839284D01*
X147568716Y-83727480D01*
X147568715Y-83727479D01*
X147564385Y-83723149D01*
X147564374Y-83723139D01*
X144371990Y-80530755D01*
X144371988Y-80530752D01*
X144253117Y-80411881D01*
X144253109Y-80411875D01*
X144146803Y-80350500D01*
X144146802Y-80350499D01*
X144146802Y-80350500D01*
X144116185Y-80332823D01*
X143963457Y-80291899D01*
X143805343Y-80291899D01*
X143797747Y-80291899D01*
X143797731Y-80291900D01*
X140931047Y-80291900D01*
X140864008Y-80272215D01*
X140818253Y-80219411D01*
X140808309Y-80150253D01*
X140827944Y-80099010D01*
X140841191Y-80079183D01*
X140841194Y-80079179D01*
X140901537Y-79933497D01*
X140932300Y-79778842D01*
X140932300Y-79621158D01*
X140932300Y-79621155D01*
X140932299Y-79621153D01*
X140923764Y-79578247D01*
X140901537Y-79466503D01*
X140898175Y-79458386D01*
X140841197Y-79320827D01*
X140841190Y-79320814D01*
X140753198Y-79189125D01*
X140732320Y-79122447D01*
X140732300Y-79120234D01*
X140732300Y-76847860D01*
X140732301Y-76847847D01*
X140732301Y-76679744D01*
X140732301Y-76679743D01*
X140691377Y-76527016D01*
X140659258Y-76471383D01*
X140612324Y-76390090D01*
X140612318Y-76390082D01*
X135860590Y-71638355D01*
X135860588Y-71638352D01*
X135741717Y-71519481D01*
X135741716Y-71519480D01*
X135654904Y-71469360D01*
X135654904Y-71469359D01*
X135654900Y-71469358D01*
X135604785Y-71440423D01*
X135452057Y-71399499D01*
X135293943Y-71399499D01*
X135286347Y-71399499D01*
X135286331Y-71399500D01*
X127554077Y-71399500D01*
X127487038Y-71379815D01*
X127441283Y-71327011D01*
X127431339Y-71257853D01*
X127460364Y-71194297D01*
X127466396Y-71187819D01*
X127526748Y-71127466D01*
X127526751Y-71127462D01*
X127636185Y-70963684D01*
X127636192Y-70963671D01*
X127711569Y-70781693D01*
X127711572Y-70781681D01*
X127749999Y-70588495D01*
X127750000Y-70588492D01*
X127750000Y-70440000D01*
X127050000Y-70440000D01*
X127050000Y-69940000D01*
X127750000Y-69940000D01*
X127750000Y-69791508D01*
X127749999Y-69791504D01*
X127711572Y-69598318D01*
X127711569Y-69598306D01*
X127636192Y-69416328D01*
X127636185Y-69416315D01*
X127526751Y-69252537D01*
X127526748Y-69252533D01*
X127387466Y-69113251D01*
X127387462Y-69113248D01*
X127223684Y-69003814D01*
X127223671Y-69003807D01*
X127041691Y-68928429D01*
X127041683Y-68928427D01*
X127000000Y-68920135D01*
X127000000Y-69723011D01*
X126990060Y-69705795D01*
X126934205Y-69649940D01*
X126865796Y-69610444D01*
X126789496Y-69590000D01*
X126710504Y-69590000D01*
X126634204Y-69610444D01*
X126565795Y-69649940D01*
X126509940Y-69705795D01*
X126500000Y-69723011D01*
X126500000Y-68920136D01*
X126499999Y-68920135D01*
X126458316Y-68928427D01*
X126458308Y-68928429D01*
X126276328Y-69003807D01*
X126276315Y-69003814D01*
X126112537Y-69113248D01*
X126112533Y-69113251D01*
X125973251Y-69252533D01*
X125973248Y-69252537D01*
X125863814Y-69416315D01*
X125863807Y-69416328D01*
X125788430Y-69598306D01*
X125788427Y-69598318D01*
X125750000Y-69791504D01*
X125750000Y-69940000D01*
X126450000Y-69940000D01*
X126450000Y-70440000D01*
X125750000Y-70440000D01*
X125750000Y-70588495D01*
X125788427Y-70781681D01*
X125788430Y-70781693D01*
X125863807Y-70963671D01*
X125863814Y-70963684D01*
X125973248Y-71127462D01*
X125973251Y-71127466D01*
X126033604Y-71187819D01*
X126067089Y-71249142D01*
X126062105Y-71318834D01*
X126020233Y-71374767D01*
X125954769Y-71399184D01*
X125945923Y-71399500D01*
X118914077Y-71399500D01*
X118847038Y-71379815D01*
X118801283Y-71327011D01*
X118791339Y-71257853D01*
X118820364Y-71194297D01*
X118826396Y-71187819D01*
X118886748Y-71127466D01*
X118886751Y-71127462D01*
X118996185Y-70963684D01*
X118996192Y-70963671D01*
X119071569Y-70781693D01*
X119071572Y-70781681D01*
X119109999Y-70588495D01*
X119110000Y-70588492D01*
X119110000Y-70440000D01*
X118410000Y-70440000D01*
X118410000Y-69940000D01*
X119110000Y-69940000D01*
X119110000Y-69791508D01*
X119109999Y-69791504D01*
X119071572Y-69598318D01*
X119071569Y-69598306D01*
X118996192Y-69416328D01*
X118996185Y-69416315D01*
X118886751Y-69252537D01*
X118886748Y-69252533D01*
X118747466Y-69113251D01*
X118747462Y-69113248D01*
X118583684Y-69003814D01*
X118583671Y-69003807D01*
X118401691Y-68928429D01*
X118401683Y-68928427D01*
X118360000Y-68920135D01*
X118360000Y-69723011D01*
X118350060Y-69705795D01*
X118294205Y-69649940D01*
X118225796Y-69610444D01*
X118149496Y-69590000D01*
X118070504Y-69590000D01*
X117994204Y-69610444D01*
X117925795Y-69649940D01*
X117869940Y-69705795D01*
X117860000Y-69723011D01*
X117860000Y-68920136D01*
X117859999Y-68920135D01*
X117818316Y-68928427D01*
X117818308Y-68928429D01*
X117636328Y-69003807D01*
X117636315Y-69003814D01*
X117472537Y-69113248D01*
X117472533Y-69113251D01*
X117333251Y-69252533D01*
X117333248Y-69252537D01*
X117223814Y-69416315D01*
X117223807Y-69416328D01*
X117148430Y-69598306D01*
X117148427Y-69598318D01*
X117110000Y-69791504D01*
X117110000Y-69940000D01*
X117810000Y-69940000D01*
X117810000Y-70440000D01*
X117110000Y-70440000D01*
X117110000Y-70588495D01*
X117148427Y-70781681D01*
X117148430Y-70781693D01*
X117223807Y-70963671D01*
X117223814Y-70963684D01*
X117333248Y-71127462D01*
X117333251Y-71127466D01*
X117393604Y-71187819D01*
X117427089Y-71249142D01*
X117422105Y-71318834D01*
X117380233Y-71374767D01*
X117314769Y-71399184D01*
X117305923Y-71399500D01*
X109018215Y-71399500D01*
X109018199Y-71399499D01*
X109010603Y-71399499D01*
X108852489Y-71399499D01*
X108745133Y-71428265D01*
X108699756Y-71440424D01*
X108699755Y-71440425D01*
X108649642Y-71469359D01*
X108649641Y-71469360D01*
X108606235Y-71494420D01*
X108562831Y-71519479D01*
X108562828Y-71519481D01*
X94309581Y-85772729D01*
X94248258Y-85806214D01*
X94178566Y-85801230D01*
X94122633Y-85759358D01*
X94098216Y-85693894D01*
X94097900Y-85685048D01*
X94097900Y-83793544D01*
X94117585Y-83726505D01*
X94170389Y-83680750D01*
X94174417Y-83678995D01*
X94259143Y-83643901D01*
X94373157Y-83578075D01*
X94477849Y-83497741D01*
X94570941Y-83404649D01*
X94651275Y-83299957D01*
X94717101Y-83185943D01*
X94767600Y-83064029D01*
X94801675Y-82936862D01*
X94818900Y-82806026D01*
X94818900Y-82240200D01*
X94813755Y-82168260D01*
X94773219Y-82030208D01*
X94745561Y-81987171D01*
X94695432Y-81909169D01*
X94695428Y-81909165D01*
X94586699Y-81814950D01*
X94586697Y-81814948D01*
X94586694Y-81814946D01*
X94586690Y-81814944D01*
X94455819Y-81755176D01*
X94455814Y-81755175D01*
X94313400Y-81734700D01*
X92813400Y-81734700D01*
X92813397Y-81734700D01*
X92741459Y-81739844D01*
X92603405Y-81780382D01*
X92482369Y-81858167D01*
X92482365Y-81858171D01*
X92388146Y-81966904D01*
X92385013Y-81971780D01*
X92332206Y-82017532D01*
X92263047Y-82027472D01*
X92199493Y-81998443D01*
X92176387Y-81971777D01*
X92155431Y-81939168D01*
X92120809Y-81909168D01*
X92046699Y-81844950D01*
X92046697Y-81844948D01*
X92046694Y-81844946D01*
X92045444Y-81844375D01*
X91915819Y-81785176D01*
X91915814Y-81785175D01*
X91773400Y-81764700D01*
X90273400Y-81764700D01*
X90273397Y-81764700D01*
X90201459Y-81769844D01*
X90063405Y-81810382D01*
X89942369Y-81888167D01*
X89942365Y-81888171D01*
X89844308Y-82001334D01*
X89785530Y-82039108D01*
X89715660Y-82039108D01*
X89656882Y-82001333D01*
X89646281Y-81987171D01*
X89615432Y-81939169D01*
X89615428Y-81939165D01*
X89506699Y-81844950D01*
X89506697Y-81844948D01*
X89506694Y-81844946D01*
X89505444Y-81844375D01*
X89375819Y-81785176D01*
X89375814Y-81785175D01*
X89233400Y-81764700D01*
X87733400Y-81764700D01*
X87733397Y-81764700D01*
X87661459Y-81769844D01*
X87523405Y-81810382D01*
X87402369Y-81888167D01*
X87402365Y-81888171D01*
X87304308Y-82001334D01*
X87245530Y-82039108D01*
X87175660Y-82039108D01*
X87116882Y-82001333D01*
X87106281Y-81987171D01*
X87075432Y-81939169D01*
X87075428Y-81939165D01*
X86966699Y-81844950D01*
X86966697Y-81844948D01*
X86966694Y-81844946D01*
X86965444Y-81844375D01*
X86835819Y-81785176D01*
X86835814Y-81785175D01*
X86693400Y-81764700D01*
X85193400Y-81764700D01*
X85193397Y-81764700D01*
X85121459Y-81769844D01*
X84983405Y-81810382D01*
X84862369Y-81888167D01*
X84862365Y-81888171D01*
X84764308Y-82001334D01*
X84705530Y-82039108D01*
X84635660Y-82039108D01*
X84576882Y-82001333D01*
X84566281Y-81987171D01*
X84535432Y-81939169D01*
X84535428Y-81939165D01*
X84426699Y-81844950D01*
X84426697Y-81844948D01*
X84426694Y-81844946D01*
X84425444Y-81844375D01*
X84295819Y-81785176D01*
X84295814Y-81785175D01*
X84153400Y-81764700D01*
X82653400Y-81764700D01*
X82653397Y-81764700D01*
X82581459Y-81769844D01*
X82443405Y-81810382D01*
X82322369Y-81888167D01*
X82322365Y-81888171D01*
X82224308Y-82001334D01*
X82165530Y-82039108D01*
X82095660Y-82039108D01*
X82036882Y-82001333D01*
X82026281Y-81987171D01*
X81995432Y-81939169D01*
X81995428Y-81939165D01*
X81886699Y-81844950D01*
X81886697Y-81844948D01*
X81886694Y-81844946D01*
X81885444Y-81844375D01*
X81755819Y-81785176D01*
X81755814Y-81785175D01*
X81613400Y-81764700D01*
X80113400Y-81764700D01*
X80113397Y-81764700D01*
X80041459Y-81769844D01*
X79903405Y-81810382D01*
X79782369Y-81888167D01*
X79782365Y-81888171D01*
X79688150Y-81996900D01*
X79688144Y-81996909D01*
X79628376Y-82127780D01*
X79628375Y-82127785D01*
X79607900Y-82270199D01*
X79607900Y-82836033D01*
X79621175Y-82936862D01*
X79625125Y-82966862D01*
X79659200Y-83094029D01*
X79697272Y-83185943D01*
X79709702Y-83215950D01*
X79709703Y-83215951D01*
X79775520Y-83329949D01*
X79775532Y-83329967D01*
X79855855Y-83434644D01*
X79855859Y-83434649D01*
X79948951Y-83527741D01*
X79948955Y-83527744D01*
X80053632Y-83608067D01*
X80053636Y-83608069D01*
X80053643Y-83608075D01*
X80134901Y-83654989D01*
X80183115Y-83705554D01*
X80196900Y-83762375D01*
X80196900Y-86618434D01*
X80177215Y-86685473D01*
X80176002Y-86687325D01*
X80088009Y-86819014D01*
X80088002Y-86819027D01*
X80027664Y-86964698D01*
X80027661Y-86964710D01*
X79996900Y-87119353D01*
X79996900Y-87277046D01*
X80027661Y-87431689D01*
X80027664Y-87431701D01*
X80088002Y-87577372D01*
X80088009Y-87577385D01*
X80175610Y-87708488D01*
X80175613Y-87708492D01*
X80287107Y-87819986D01*
X80287111Y-87819989D01*
X80418214Y-87907590D01*
X80418227Y-87907597D01*
X80515529Y-87947900D01*
X80563903Y-87967937D01*
X80718553Y-87998699D01*
X80718556Y-87998700D01*
X80718558Y-87998700D01*
X80876244Y-87998700D01*
X80876245Y-87998699D01*
X81030897Y-87967937D01*
X81176579Y-87907594D01*
X81307689Y-87819989D01*
X81419189Y-87708489D01*
X81506794Y-87577379D01*
X81507442Y-87575816D01*
X81557696Y-87454489D01*
X81567137Y-87431697D01*
X81597900Y-87277042D01*
X81597900Y-87119358D01*
X81597900Y-87119355D01*
X81597899Y-87119353D01*
X81587795Y-87068558D01*
X81567137Y-86964703D01*
X81559120Y-86945348D01*
X81506797Y-86819027D01*
X81506790Y-86819014D01*
X81418798Y-86687325D01*
X81397920Y-86620647D01*
X81397900Y-86618434D01*
X81397900Y-83823544D01*
X81417585Y-83756505D01*
X81470389Y-83710750D01*
X81474417Y-83708995D01*
X81559143Y-83673901D01*
X81673157Y-83608075D01*
X81777849Y-83527741D01*
X81870941Y-83434649D01*
X81951275Y-83329957D01*
X82017101Y-83215943D01*
X82018840Y-83211744D01*
X82062678Y-83157343D01*
X82128972Y-83135277D01*
X82196672Y-83152555D01*
X82244283Y-83203691D01*
X82247950Y-83211722D01*
X82249699Y-83215943D01*
X82249703Y-83215952D01*
X82315520Y-83329949D01*
X82315532Y-83329967D01*
X82395855Y-83434644D01*
X82395859Y-83434649D01*
X82488951Y-83527741D01*
X82488955Y-83527744D01*
X82593632Y-83608067D01*
X82593636Y-83608069D01*
X82593643Y-83608075D01*
X82674901Y-83654989D01*
X82723115Y-83705554D01*
X82736900Y-83762375D01*
X82736900Y-86618434D01*
X82717215Y-86685473D01*
X82716002Y-86687325D01*
X82628009Y-86819014D01*
X82628002Y-86819027D01*
X82567664Y-86964698D01*
X82567661Y-86964710D01*
X82536900Y-87119353D01*
X82536900Y-87277046D01*
X82567661Y-87431689D01*
X82567664Y-87431701D01*
X82628002Y-87577372D01*
X82628009Y-87577385D01*
X82715610Y-87708488D01*
X82715613Y-87708492D01*
X82827107Y-87819986D01*
X82827111Y-87819989D01*
X82958214Y-87907590D01*
X82958227Y-87907597D01*
X83055529Y-87947900D01*
X83103903Y-87967937D01*
X83258553Y-87998699D01*
X83258556Y-87998700D01*
X83258558Y-87998700D01*
X83416244Y-87998700D01*
X83416245Y-87998699D01*
X83570897Y-87967937D01*
X83716579Y-87907594D01*
X83847689Y-87819989D01*
X83959189Y-87708489D01*
X84046794Y-87577379D01*
X84047442Y-87575816D01*
X84097696Y-87454489D01*
X84107137Y-87431697D01*
X84137900Y-87277042D01*
X84137900Y-87119358D01*
X84137900Y-87119355D01*
X84137899Y-87119353D01*
X84127795Y-87068558D01*
X84107137Y-86964703D01*
X84099120Y-86945348D01*
X84046797Y-86819027D01*
X84046790Y-86819014D01*
X83958798Y-86687325D01*
X83937920Y-86620647D01*
X83937900Y-86618434D01*
X83937900Y-83823544D01*
X83957585Y-83756505D01*
X84010389Y-83710750D01*
X84014417Y-83708995D01*
X84099143Y-83673901D01*
X84213157Y-83608075D01*
X84317849Y-83527741D01*
X84410941Y-83434649D01*
X84491275Y-83329957D01*
X84557101Y-83215943D01*
X84558840Y-83211744D01*
X84602678Y-83157343D01*
X84668972Y-83135277D01*
X84736672Y-83152555D01*
X84784283Y-83203691D01*
X84787950Y-83211722D01*
X84789699Y-83215943D01*
X84789703Y-83215952D01*
X84855520Y-83329949D01*
X84855532Y-83329967D01*
X84935855Y-83434644D01*
X84935859Y-83434649D01*
X85028951Y-83527741D01*
X85028955Y-83527744D01*
X85133632Y-83608067D01*
X85133636Y-83608069D01*
X85133643Y-83608075D01*
X85214901Y-83654989D01*
X85263115Y-83705554D01*
X85276900Y-83762375D01*
X85276900Y-86618434D01*
X85257215Y-86685473D01*
X85256002Y-86687325D01*
X85168009Y-86819014D01*
X85168002Y-86819027D01*
X85107664Y-86964698D01*
X85107661Y-86964710D01*
X85076900Y-87119353D01*
X85076900Y-87277046D01*
X85107661Y-87431689D01*
X85107664Y-87431701D01*
X85168002Y-87577372D01*
X85168009Y-87577385D01*
X85255610Y-87708488D01*
X85255613Y-87708492D01*
X85367107Y-87819986D01*
X85367111Y-87819989D01*
X85498214Y-87907590D01*
X85498227Y-87907597D01*
X85595529Y-87947900D01*
X85643903Y-87967937D01*
X85798553Y-87998699D01*
X85798556Y-87998700D01*
X85798558Y-87998700D01*
X85956244Y-87998700D01*
X85956245Y-87998699D01*
X86110897Y-87967937D01*
X86256579Y-87907594D01*
X86387689Y-87819989D01*
X86499189Y-87708489D01*
X86586794Y-87577379D01*
X86587442Y-87575816D01*
X86637696Y-87454489D01*
X86647137Y-87431697D01*
X86677900Y-87277042D01*
X86677900Y-87119358D01*
X86677900Y-87119355D01*
X86677899Y-87119353D01*
X86667795Y-87068558D01*
X86647137Y-86964703D01*
X86639120Y-86945348D01*
X86586797Y-86819027D01*
X86586790Y-86819014D01*
X86498798Y-86687325D01*
X86477920Y-86620647D01*
X86477900Y-86618434D01*
X86477900Y-83823544D01*
X86497585Y-83756505D01*
X86550389Y-83710750D01*
X86554417Y-83708995D01*
X86639143Y-83673901D01*
X86753157Y-83608075D01*
X86857849Y-83527741D01*
X86950941Y-83434649D01*
X87031275Y-83329957D01*
X87097101Y-83215943D01*
X87098840Y-83211744D01*
X87142678Y-83157343D01*
X87208972Y-83135277D01*
X87276672Y-83152555D01*
X87324283Y-83203691D01*
X87327950Y-83211722D01*
X87329699Y-83215943D01*
X87329703Y-83215952D01*
X87395520Y-83329949D01*
X87395532Y-83329967D01*
X87475855Y-83434644D01*
X87475859Y-83434649D01*
X87568951Y-83527741D01*
X87568955Y-83527744D01*
X87673632Y-83608067D01*
X87673636Y-83608069D01*
X87673643Y-83608075D01*
X87754901Y-83654989D01*
X87803115Y-83705554D01*
X87816900Y-83762375D01*
X87816900Y-86618434D01*
X87797215Y-86685473D01*
X87796002Y-86687325D01*
X87708009Y-86819014D01*
X87708002Y-86819027D01*
X87647664Y-86964698D01*
X87647661Y-86964710D01*
X87616900Y-87119353D01*
X87616900Y-87277046D01*
X87647661Y-87431689D01*
X87647664Y-87431701D01*
X87708002Y-87577372D01*
X87708009Y-87577385D01*
X87795610Y-87708488D01*
X87795613Y-87708492D01*
X87907107Y-87819986D01*
X87907111Y-87819989D01*
X88038214Y-87907590D01*
X88038227Y-87907597D01*
X88135529Y-87947900D01*
X88183903Y-87967937D01*
X88338553Y-87998699D01*
X88338556Y-87998700D01*
X88338558Y-87998700D01*
X88496244Y-87998700D01*
X88496245Y-87998699D01*
X88650897Y-87967937D01*
X88796579Y-87907594D01*
X88927689Y-87819989D01*
X89039189Y-87708489D01*
X89126794Y-87577379D01*
X89127442Y-87575816D01*
X89177696Y-87454489D01*
X89187137Y-87431697D01*
X89217900Y-87277042D01*
X89217900Y-87119358D01*
X89217900Y-87119355D01*
X89217899Y-87119353D01*
X89207795Y-87068558D01*
X89187137Y-86964703D01*
X89179120Y-86945348D01*
X89126797Y-86819027D01*
X89126790Y-86819014D01*
X89038798Y-86687325D01*
X89017920Y-86620647D01*
X89017900Y-86618434D01*
X89017900Y-83823544D01*
X89037585Y-83756505D01*
X89090389Y-83710750D01*
X89094417Y-83708995D01*
X89179143Y-83673901D01*
X89293157Y-83608075D01*
X89397849Y-83527741D01*
X89490941Y-83434649D01*
X89571275Y-83329957D01*
X89637101Y-83215943D01*
X89638840Y-83211744D01*
X89682678Y-83157343D01*
X89748972Y-83135277D01*
X89816672Y-83152555D01*
X89864283Y-83203691D01*
X89867950Y-83211722D01*
X89869699Y-83215943D01*
X89869703Y-83215952D01*
X89935520Y-83329949D01*
X89935532Y-83329967D01*
X90015855Y-83434644D01*
X90015859Y-83434649D01*
X90108951Y-83527741D01*
X90108955Y-83527744D01*
X90213632Y-83608067D01*
X90213636Y-83608069D01*
X90213643Y-83608075D01*
X90294901Y-83654989D01*
X90343115Y-83705554D01*
X90356900Y-83762375D01*
X90356900Y-86618434D01*
X90337215Y-86685473D01*
X90336002Y-86687325D01*
X90248009Y-86819014D01*
X90248002Y-86819027D01*
X90187664Y-86964698D01*
X90187661Y-86964710D01*
X90156900Y-87119353D01*
X90156900Y-87277046D01*
X90187661Y-87431689D01*
X90187664Y-87431701D01*
X90248002Y-87577372D01*
X90248009Y-87577385D01*
X90335610Y-87708488D01*
X90335613Y-87708492D01*
X90447107Y-87819986D01*
X90447111Y-87819989D01*
X90578214Y-87907590D01*
X90578227Y-87907597D01*
X90675529Y-87947900D01*
X90723903Y-87967937D01*
X90878553Y-87998699D01*
X90878556Y-87998700D01*
X90878558Y-87998700D01*
X91036244Y-87998700D01*
X91036245Y-87998699D01*
X91190897Y-87967937D01*
X91336579Y-87907594D01*
X91467689Y-87819989D01*
X91579189Y-87708489D01*
X91666794Y-87577379D01*
X91667442Y-87575816D01*
X91717696Y-87454489D01*
X91727137Y-87431697D01*
X91757900Y-87277042D01*
X91757900Y-87119358D01*
X91757900Y-87119355D01*
X91757899Y-87119353D01*
X91747795Y-87068558D01*
X91727137Y-86964703D01*
X91719120Y-86945348D01*
X91666797Y-86819027D01*
X91666790Y-86819014D01*
X91578798Y-86687325D01*
X91557920Y-86620647D01*
X91557900Y-86618434D01*
X91557900Y-83823544D01*
X91577585Y-83756505D01*
X91630389Y-83710750D01*
X91634417Y-83708995D01*
X91719143Y-83673901D01*
X91833157Y-83608075D01*
X91937849Y-83527741D01*
X92030941Y-83434649D01*
X92111275Y-83329957D01*
X92177101Y-83215943D01*
X92185307Y-83196131D01*
X92229143Y-83141732D01*
X92295436Y-83119665D01*
X92363136Y-83136942D01*
X92406250Y-83183247D01*
X92407669Y-83182428D01*
X92475520Y-83299949D01*
X92475532Y-83299967D01*
X92543965Y-83389149D01*
X92555859Y-83404649D01*
X92648951Y-83497741D01*
X92648955Y-83497744D01*
X92753632Y-83578067D01*
X92753636Y-83578069D01*
X92753643Y-83578075D01*
X92834901Y-83624989D01*
X92883115Y-83675554D01*
X92896900Y-83732375D01*
X92896900Y-86364434D01*
X92877215Y-86431473D01*
X92876002Y-86433325D01*
X92788009Y-86565014D01*
X92788002Y-86565027D01*
X92727664Y-86710698D01*
X92727661Y-86710710D01*
X92696900Y-86865353D01*
X92696900Y-87023046D01*
X92727661Y-87177689D01*
X92727664Y-87177701D01*
X92788002Y-87323372D01*
X92788009Y-87323385D01*
X92864017Y-87437138D01*
X92884895Y-87503815D01*
X92866411Y-87571196D01*
X92848596Y-87593710D01*
X91089119Y-89353187D01*
X91063439Y-89372893D01*
X90979284Y-89421480D01*
X90979281Y-89421482D01*
X90867481Y-89533282D01*
X90867475Y-89533290D01*
X90788426Y-89670209D01*
X90788423Y-89670216D01*
X90747500Y-89822943D01*
X90747500Y-92658330D01*
X90747499Y-92658348D01*
X90747499Y-92824054D01*
X90747498Y-92824054D01*
X90788423Y-92976786D01*
X90788424Y-92976787D01*
X90809838Y-93013877D01*
X90848139Y-93080217D01*
X90867481Y-93113717D01*
X90986349Y-93232585D01*
X90986355Y-93232590D01*
X91088025Y-93334260D01*
X91121510Y-93395583D01*
X91121961Y-93397749D01*
X91152861Y-93553091D01*
X91152863Y-93553097D01*
X91163198Y-93578047D01*
X91170667Y-93647516D01*
X91139392Y-93709995D01*
X91079304Y-93745648D01*
X91048637Y-93749500D01*
X88317761Y-93749500D01*
X88250722Y-93729815D01*
X88219385Y-93700986D01*
X88207543Y-93685553D01*
X88169506Y-93647516D01*
X88114449Y-93592459D01*
X88095090Y-93577604D01*
X88009767Y-93512132D01*
X88009749Y-93512120D01*
X87895751Y-93446303D01*
X87895750Y-93446302D01*
X87773829Y-93395800D01*
X87716935Y-93380555D01*
X87646662Y-93361725D01*
X87646661Y-93361724D01*
X87646658Y-93361724D01*
X87515833Y-93344500D01*
X87515826Y-93344500D01*
X86884174Y-93344500D01*
X86884166Y-93344500D01*
X86753341Y-93361724D01*
X86626170Y-93395800D01*
X86504249Y-93446302D01*
X86504248Y-93446303D01*
X86390250Y-93512120D01*
X86390232Y-93512132D01*
X86285555Y-93592455D01*
X86285545Y-93592464D01*
X86192464Y-93685545D01*
X86192455Y-93685555D01*
X86112132Y-93790232D01*
X86112120Y-93790250D01*
X86046303Y-93904248D01*
X86046302Y-93904249D01*
X85995800Y-94026170D01*
X85961724Y-94153341D01*
X85944500Y-94284166D01*
X85944500Y-94850002D01*
X85949644Y-94921939D01*
X85960603Y-94959262D01*
X85964363Y-95011841D01*
X85944500Y-95149998D01*
X85944500Y-95715833D01*
X85961574Y-95845516D01*
X85961725Y-95846662D01*
X85995800Y-95973829D01*
X86023821Y-96041478D01*
X86046302Y-96095750D01*
X86046303Y-96095751D01*
X86112120Y-96209749D01*
X86112132Y-96209767D01*
X86175582Y-96292455D01*
X86192459Y-96314449D01*
X86285551Y-96407541D01*
X86285555Y-96407544D01*
X86390232Y-96487867D01*
X86390236Y-96487869D01*
X86390243Y-96487875D01*
X86394357Y-96490250D01*
X86504249Y-96553697D01*
X86504257Y-96553701D01*
X86522951Y-96561444D01*
X86577355Y-96605284D01*
X86599421Y-96671578D01*
X86599500Y-96676006D01*
X86599500Y-97357766D01*
X86579815Y-97424805D01*
X86537501Y-97465153D01*
X86456143Y-97512125D01*
X86456132Y-97512132D01*
X86351455Y-97592455D01*
X86351445Y-97592464D01*
X86258364Y-97685545D01*
X86258355Y-97685555D01*
X86178032Y-97790232D01*
X86178020Y-97790250D01*
X86112203Y-97904248D01*
X86112202Y-97904249D01*
X86061700Y-98026170D01*
X86027624Y-98153341D01*
X86010400Y-98284166D01*
X86010400Y-98850002D01*
X86015544Y-98921940D01*
X86056082Y-99059994D01*
X86133867Y-99181030D01*
X86133871Y-99181034D01*
X86206954Y-99244361D01*
X86242606Y-99275254D01*
X86259898Y-99283151D01*
X86373480Y-99335023D01*
X86373483Y-99335023D01*
X86373484Y-99335024D01*
X86515900Y-99355500D01*
X86515903Y-99355500D01*
X88015900Y-99355500D01*
X88087840Y-99350355D01*
X88225892Y-99309819D01*
X88346932Y-99232031D01*
X88441154Y-99123294D01*
X88497461Y-99000000D01*
X88500923Y-98992419D01*
X88500924Y-98992414D01*
X88521400Y-98850000D01*
X88521400Y-98284174D01*
X88504175Y-98153338D01*
X88470100Y-98026171D01*
X88447641Y-97971952D01*
X88440172Y-97902485D01*
X88471446Y-97840005D01*
X88531534Y-97804352D01*
X88562202Y-97800500D01*
X88578844Y-97800500D01*
X88578845Y-97800499D01*
X88733497Y-97769737D01*
X88879179Y-97709394D01*
X89010289Y-97621789D01*
X89121789Y-97510289D01*
X89209394Y-97379179D01*
X89218264Y-97357766D01*
X89224080Y-97343724D01*
X89269737Y-97233497D01*
X89300500Y-97078842D01*
X89300500Y-96921158D01*
X89300500Y-96921155D01*
X89300499Y-96921153D01*
X89288285Y-96859750D01*
X89269737Y-96766503D01*
X89266935Y-96759738D01*
X89209397Y-96620827D01*
X89209390Y-96620814D01*
X89121789Y-96489711D01*
X89121786Y-96489707D01*
X89010292Y-96378213D01*
X89010288Y-96378210D01*
X88879185Y-96290609D01*
X88879172Y-96290602D01*
X88733501Y-96230264D01*
X88733491Y-96230261D01*
X88640566Y-96211777D01*
X88623809Y-96203011D01*
X88605331Y-96198992D01*
X88580294Y-96180249D01*
X88578655Y-96179392D01*
X88577077Y-96177841D01*
X88448243Y-96049007D01*
X88414758Y-95987684D01*
X88416148Y-95929236D01*
X88438275Y-95846662D01*
X88455500Y-95715826D01*
X88455500Y-95150000D01*
X88450733Y-95083345D01*
X88465585Y-95015073D01*
X88514990Y-94965668D01*
X88574417Y-94950500D01*
X102563332Y-94950500D01*
X102563348Y-94950501D01*
X102570944Y-94950501D01*
X102729055Y-94950501D01*
X102729058Y-94950501D01*
X102881786Y-94909577D01*
X102943228Y-94874103D01*
X103018717Y-94830520D01*
X103130521Y-94718716D01*
X103130521Y-94718714D01*
X103140725Y-94708511D01*
X103140729Y-94708506D01*
X107268019Y-90581216D01*
X107329342Y-90547731D01*
X107399034Y-90552715D01*
X107454967Y-90594587D01*
X107479384Y-90660051D01*
X107479700Y-90668897D01*
X107479700Y-109575692D01*
X107460015Y-109642731D01*
X107407211Y-109688486D01*
X107338053Y-109698430D01*
X107274497Y-109669405D01*
X107255382Y-109648578D01*
X107227505Y-109610209D01*
X107077186Y-109459890D01*
X106905220Y-109334951D01*
X106715814Y-109238444D01*
X106715813Y-109238443D01*
X106715812Y-109238443D01*
X106513643Y-109172754D01*
X106513641Y-109172753D01*
X106513640Y-109172753D01*
X106352357Y-109147208D01*
X106303687Y-109139500D01*
X106091113Y-109139500D01*
X106042442Y-109147208D01*
X105881160Y-109172753D01*
X105678985Y-109238444D01*
X105489579Y-109334951D01*
X105317613Y-109459890D01*
X105167290Y-109610213D01*
X105042349Y-109782182D01*
X105037884Y-109790946D01*
X104989909Y-109841742D01*
X104922088Y-109858536D01*
X104855953Y-109835998D01*
X104816916Y-109790946D01*
X104812450Y-109782182D01*
X104687509Y-109610213D01*
X104537186Y-109459890D01*
X104365220Y-109334951D01*
X104175814Y-109238444D01*
X104175813Y-109238443D01*
X104175812Y-109238443D01*
X103973643Y-109172754D01*
X103973641Y-109172753D01*
X103973640Y-109172753D01*
X103812357Y-109147208D01*
X103763687Y-109139500D01*
X103551113Y-109139500D01*
X103502442Y-109147208D01*
X103341160Y-109172753D01*
X103138985Y-109238444D01*
X102949579Y-109334951D01*
X102777613Y-109459890D01*
X102627290Y-109610213D01*
X102502349Y-109782182D01*
X102497884Y-109790946D01*
X102449909Y-109841742D01*
X102382088Y-109858536D01*
X102315953Y-109835998D01*
X102276916Y-109790946D01*
X102272450Y-109782182D01*
X102147509Y-109610213D01*
X101997186Y-109459890D01*
X101825220Y-109334951D01*
X101635814Y-109238444D01*
X101635813Y-109238443D01*
X101635812Y-109238443D01*
X101433643Y-109172754D01*
X101433641Y-109172753D01*
X101433640Y-109172753D01*
X101272357Y-109147208D01*
X101223687Y-109139500D01*
X101011113Y-109139500D01*
X100962442Y-109147208D01*
X100801160Y-109172753D01*
X100598985Y-109238444D01*
X100409579Y-109334951D01*
X100237613Y-109459890D01*
X100087290Y-109610213D01*
X99962349Y-109782182D01*
X99957884Y-109790946D01*
X99909909Y-109841742D01*
X99842088Y-109858536D01*
X99775953Y-109835998D01*
X99736916Y-109790946D01*
X99732450Y-109782182D01*
X99607509Y-109610213D01*
X99457186Y-109459890D01*
X99285220Y-109334951D01*
X99095814Y-109238444D01*
X99095813Y-109238443D01*
X99095812Y-109238443D01*
X98893643Y-109172754D01*
X98893641Y-109172753D01*
X98893640Y-109172753D01*
X98732357Y-109147208D01*
X98683687Y-109139500D01*
X98471113Y-109139500D01*
X98422442Y-109147208D01*
X98261160Y-109172753D01*
X98058985Y-109238444D01*
X97869579Y-109334951D01*
X97697613Y-109459890D01*
X97547290Y-109610213D01*
X97422349Y-109782182D01*
X97417884Y-109790946D01*
X97369909Y-109841742D01*
X97302088Y-109858536D01*
X97235953Y-109835998D01*
X97196916Y-109790946D01*
X97192450Y-109782182D01*
X97067509Y-109610213D01*
X96917186Y-109459890D01*
X96745220Y-109334951D01*
X96555814Y-109238444D01*
X96555813Y-109238443D01*
X96555812Y-109238443D01*
X96353643Y-109172754D01*
X96353641Y-109172753D01*
X96353640Y-109172753D01*
X96192357Y-109147208D01*
X96143687Y-109139500D01*
X95931113Y-109139500D01*
X95882442Y-109147208D01*
X95721160Y-109172753D01*
X95518985Y-109238444D01*
X95329579Y-109334951D01*
X95157613Y-109459890D01*
X95007290Y-109610213D01*
X94882349Y-109782182D01*
X94877884Y-109790946D01*
X94829909Y-109841742D01*
X94762088Y-109858536D01*
X94695953Y-109835998D01*
X94656916Y-109790946D01*
X94652450Y-109782182D01*
X94527509Y-109610213D01*
X94377186Y-109459890D01*
X94205220Y-109334951D01*
X94015814Y-109238444D01*
X94015813Y-109238443D01*
X94015812Y-109238443D01*
X93813643Y-109172754D01*
X93813641Y-109172753D01*
X93813640Y-109172753D01*
X93652357Y-109147208D01*
X93603687Y-109139500D01*
X93391113Y-109139500D01*
X93342442Y-109147208D01*
X93181160Y-109172753D01*
X92978985Y-109238444D01*
X92789579Y-109334951D01*
X92617613Y-109459890D01*
X92467290Y-109610213D01*
X92342349Y-109782182D01*
X92337884Y-109790946D01*
X92289909Y-109841742D01*
X92222088Y-109858536D01*
X92155953Y-109835998D01*
X92116916Y-109790946D01*
X92112450Y-109782182D01*
X91987509Y-109610213D01*
X91837186Y-109459890D01*
X91665220Y-109334951D01*
X91475814Y-109238444D01*
X91475813Y-109238443D01*
X91475812Y-109238443D01*
X91273643Y-109172754D01*
X91273641Y-109172753D01*
X91273640Y-109172753D01*
X91112357Y-109147208D01*
X91063687Y-109139500D01*
X90851113Y-109139500D01*
X90802442Y-109147208D01*
X90641160Y-109172753D01*
X90438985Y-109238444D01*
X90249579Y-109334951D01*
X90077613Y-109459890D01*
X89927290Y-109610213D01*
X89802349Y-109782182D01*
X89797884Y-109790946D01*
X89749909Y-109841742D01*
X89682088Y-109858536D01*
X89615953Y-109835998D01*
X89576916Y-109790946D01*
X89572450Y-109782182D01*
X89447509Y-109610213D01*
X89297186Y-109459890D01*
X89125220Y-109334951D01*
X88935814Y-109238444D01*
X88935813Y-109238443D01*
X88935812Y-109238443D01*
X88733643Y-109172754D01*
X88733641Y-109172753D01*
X88733640Y-109172753D01*
X88572357Y-109147208D01*
X88523687Y-109139500D01*
X88311113Y-109139500D01*
X88262442Y-109147208D01*
X88101160Y-109172753D01*
X87898985Y-109238444D01*
X87709579Y-109334951D01*
X87537613Y-109459890D01*
X87387290Y-109610213D01*
X87262349Y-109782182D01*
X87257884Y-109790946D01*
X87209909Y-109841742D01*
X87142088Y-109858536D01*
X87075953Y-109835998D01*
X87036916Y-109790946D01*
X87032450Y-109782182D01*
X86907509Y-109610213D01*
X86757186Y-109459890D01*
X86585220Y-109334951D01*
X86395814Y-109238444D01*
X86395813Y-109238443D01*
X86395812Y-109238443D01*
X86193643Y-109172754D01*
X86193641Y-109172753D01*
X86193640Y-109172753D01*
X86032357Y-109147208D01*
X85983687Y-109139500D01*
X85771113Y-109139500D01*
X85722442Y-109147208D01*
X85561160Y-109172753D01*
X85358985Y-109238444D01*
X85169579Y-109334951D01*
X84997613Y-109459890D01*
X84847290Y-109610213D01*
X84722349Y-109782182D01*
X84717884Y-109790946D01*
X84669909Y-109841742D01*
X84602088Y-109858536D01*
X84535953Y-109835998D01*
X84496916Y-109790946D01*
X84492450Y-109782182D01*
X84367509Y-109610213D01*
X84217186Y-109459890D01*
X84045220Y-109334951D01*
X83855814Y-109238444D01*
X83855813Y-109238443D01*
X83855812Y-109238443D01*
X83653643Y-109172754D01*
X83653641Y-109172753D01*
X83653640Y-109172753D01*
X83492357Y-109147208D01*
X83443687Y-109139500D01*
X83231113Y-109139500D01*
X83182442Y-109147208D01*
X83021160Y-109172753D01*
X82818985Y-109238444D01*
X82629579Y-109334951D01*
X82457613Y-109459890D01*
X82307290Y-109610213D01*
X82182349Y-109782182D01*
X82177884Y-109790946D01*
X82129909Y-109841742D01*
X82062088Y-109858536D01*
X81995953Y-109835998D01*
X81956916Y-109790946D01*
X81952450Y-109782182D01*
X81827509Y-109610213D01*
X81677186Y-109459890D01*
X81505220Y-109334951D01*
X81315814Y-109238444D01*
X81315813Y-109238443D01*
X81315812Y-109238443D01*
X81113643Y-109172754D01*
X81113641Y-109172753D01*
X81113640Y-109172753D01*
X80952357Y-109147208D01*
X80903687Y-109139500D01*
X80691113Y-109139500D01*
X80642442Y-109147208D01*
X80481160Y-109172753D01*
X80278985Y-109238444D01*
X80089579Y-109334951D01*
X79917613Y-109459890D01*
X79767290Y-109610213D01*
X79642349Y-109782182D01*
X79637884Y-109790946D01*
X79589909Y-109841742D01*
X79522088Y-109858536D01*
X79455953Y-109835998D01*
X79416916Y-109790946D01*
X79412450Y-109782182D01*
X79287509Y-109610213D01*
X79137186Y-109459890D01*
X78965220Y-109334951D01*
X78775814Y-109238444D01*
X78775813Y-109238443D01*
X78775812Y-109238443D01*
X78573643Y-109172754D01*
X78573641Y-109172753D01*
X78573640Y-109172753D01*
X78412357Y-109147208D01*
X78363687Y-109139500D01*
X78151113Y-109139500D01*
X78102442Y-109147208D01*
X77941160Y-109172753D01*
X77738985Y-109238444D01*
X77549579Y-109334951D01*
X77377613Y-109459890D01*
X77227290Y-109610213D01*
X77102349Y-109782182D01*
X77097884Y-109790946D01*
X77049909Y-109841742D01*
X76982088Y-109858536D01*
X76915953Y-109835998D01*
X76876916Y-109790946D01*
X76872450Y-109782182D01*
X76747509Y-109610213D01*
X76597186Y-109459890D01*
X76425220Y-109334951D01*
X76235814Y-109238444D01*
X76235813Y-109238443D01*
X76235812Y-109238443D01*
X76033643Y-109172754D01*
X76033641Y-109172753D01*
X76033640Y-109172753D01*
X75872357Y-109147208D01*
X75823687Y-109139500D01*
X75611113Y-109139500D01*
X75562442Y-109147208D01*
X75401160Y-109172753D01*
X75198985Y-109238444D01*
X75009579Y-109334951D01*
X74837613Y-109459890D01*
X74687290Y-109610213D01*
X74562349Y-109782182D01*
X74557884Y-109790946D01*
X74509909Y-109841742D01*
X74442088Y-109858536D01*
X74375953Y-109835998D01*
X74336916Y-109790946D01*
X74332450Y-109782182D01*
X74207509Y-109610213D01*
X74057186Y-109459890D01*
X73885220Y-109334951D01*
X73695814Y-109238444D01*
X73695813Y-109238443D01*
X73695812Y-109238443D01*
X73493643Y-109172754D01*
X73493641Y-109172753D01*
X73493640Y-109172753D01*
X73332357Y-109147208D01*
X73283687Y-109139500D01*
X73071113Y-109139500D01*
X73022442Y-109147208D01*
X72861160Y-109172753D01*
X72658985Y-109238444D01*
X72469579Y-109334951D01*
X72297613Y-109459890D01*
X72147290Y-109610213D01*
X72022349Y-109782182D01*
X72017884Y-109790946D01*
X71969909Y-109841742D01*
X71902088Y-109858536D01*
X71835953Y-109835998D01*
X71796916Y-109790946D01*
X71792450Y-109782182D01*
X71667509Y-109610213D01*
X71517186Y-109459890D01*
X71345220Y-109334951D01*
X71155814Y-109238444D01*
X71155813Y-109238443D01*
X71155812Y-109238443D01*
X70953643Y-109172754D01*
X70953641Y-109172753D01*
X70953640Y-109172753D01*
X70792357Y-109147208D01*
X70743687Y-109139500D01*
X70531113Y-109139500D01*
X70482442Y-109147208D01*
X70321160Y-109172753D01*
X70118985Y-109238444D01*
X69929579Y-109334951D01*
X69757615Y-109459889D01*
X69644073Y-109573431D01*
X69582750Y-109606915D01*
X69513058Y-109601931D01*
X69457125Y-109560059D01*
X69440210Y-109529082D01*
X69391197Y-109397671D01*
X69391193Y-109397664D01*
X69304947Y-109282455D01*
X69304944Y-109282452D01*
X69189735Y-109196206D01*
X69189728Y-109196202D01*
X69054882Y-109145908D01*
X69054883Y-109145908D01*
X68995283Y-109139501D01*
X68995281Y-109139500D01*
X68995273Y-109139500D01*
X68995264Y-109139500D01*
X67199529Y-109139500D01*
X67199523Y-109139501D01*
X67139916Y-109145908D01*
X67005071Y-109196202D01*
X67005064Y-109196206D01*
X66889855Y-109282452D01*
X66889852Y-109282455D01*
X66803606Y-109397664D01*
X66803602Y-109397671D01*
X66753308Y-109532517D01*
X66746901Y-109592116D01*
X66746900Y-109592135D01*
X65500500Y-109592135D01*
X65500500Y-73152155D01*
X85250000Y-73152155D01*
X85250000Y-74200000D01*
X86291747Y-74200000D01*
X86278811Y-74231230D01*
X86249989Y-74376130D01*
X86249989Y-74523870D01*
X86278811Y-74668770D01*
X86291747Y-74700000D01*
X85250000Y-74700000D01*
X85250000Y-75747844D01*
X85256401Y-75807372D01*
X85256403Y-75807379D01*
X85306645Y-75942086D01*
X85306649Y-75942093D01*
X85392809Y-76057187D01*
X85392812Y-76057190D01*
X85507906Y-76143350D01*
X85507913Y-76143354D01*
X85642620Y-76193596D01*
X85642627Y-76193598D01*
X85702155Y-76199999D01*
X85702172Y-76200000D01*
X86750000Y-76200000D01*
X86750000Y-75158252D01*
X86781230Y-75171189D01*
X86926130Y-75200011D01*
X87073870Y-75200011D01*
X87218770Y-75171189D01*
X87250000Y-75158252D01*
X87250000Y-76200000D01*
X88297828Y-76200000D01*
X88297844Y-76199999D01*
X88357372Y-76193598D01*
X88357379Y-76193596D01*
X88492086Y-76143354D01*
X88492093Y-76143350D01*
X88607187Y-76057190D01*
X88607190Y-76057187D01*
X88693350Y-75942093D01*
X88693354Y-75942086D01*
X88743596Y-75807379D01*
X88743598Y-75807372D01*
X88749999Y-75747844D01*
X88750000Y-75747827D01*
X88750000Y-74700000D01*
X87708253Y-74700000D01*
X87721189Y-74668770D01*
X87750011Y-74523870D01*
X87750011Y-74376130D01*
X87741881Y-74335258D01*
X92749500Y-74335258D01*
X92749500Y-74564741D01*
X92767308Y-74700000D01*
X92779452Y-74792238D01*
X92806171Y-74891955D01*
X92838842Y-75013887D01*
X92926650Y-75225876D01*
X92926656Y-75225888D01*
X93041228Y-75424334D01*
X93041392Y-75424617D01*
X93181081Y-75606661D01*
X93181089Y-75606670D01*
X93343330Y-75768911D01*
X93343338Y-75768918D01*
X93343339Y-75768919D01*
X93378633Y-75796001D01*
X93525382Y-75908607D01*
X93525385Y-75908608D01*
X93525388Y-75908611D01*
X93724112Y-76023344D01*
X93724117Y-76023346D01*
X93724123Y-76023349D01*
X93760723Y-76038509D01*
X93936113Y-76111158D01*
X94157762Y-76170548D01*
X94367234Y-76198126D01*
X94381460Y-76199999D01*
X94385266Y-76200500D01*
X94385273Y-76200500D01*
X94614727Y-76200500D01*
X94614734Y-76200500D01*
X94842238Y-76170548D01*
X95063887Y-76111158D01*
X95275888Y-76023344D01*
X95474612Y-75908611D01*
X95656661Y-75768919D01*
X95656665Y-75768914D01*
X95656670Y-75768911D01*
X95818911Y-75606670D01*
X95818914Y-75606665D01*
X95818919Y-75606661D01*
X95958611Y-75424612D01*
X96073344Y-75225888D01*
X96161158Y-75013887D01*
X96220548Y-74792238D01*
X96250500Y-74564734D01*
X96250500Y-74335305D01*
X100250000Y-74335305D01*
X100250000Y-74564694D01*
X100250001Y-74564710D01*
X100279942Y-74792137D01*
X100339318Y-75013730D01*
X100427102Y-75225659D01*
X100427106Y-75225669D01*
X100541799Y-75424324D01*
X100541805Y-75424331D01*
X100598381Y-75498064D01*
X101322412Y-74774032D01*
X101335349Y-74805263D01*
X101417428Y-74928104D01*
X101521896Y-75032572D01*
X101644737Y-75114651D01*
X101675965Y-75127586D01*
X100951934Y-75851617D01*
X100951934Y-75851618D01*
X101025666Y-75908194D01*
X101224330Y-76022893D01*
X101224340Y-76022897D01*
X101436269Y-76110681D01*
X101657862Y-76170057D01*
X101885289Y-76199998D01*
X101885306Y-76200000D01*
X102114694Y-76200000D01*
X102114710Y-76199998D01*
X102342137Y-76170057D01*
X102563730Y-76110681D01*
X102775659Y-76022897D01*
X102775668Y-76022893D01*
X102974327Y-75908197D01*
X102974334Y-75908192D01*
X103048064Y-75851617D01*
X102324033Y-75127586D01*
X102355263Y-75114651D01*
X102478104Y-75032572D01*
X102582572Y-74928104D01*
X102664651Y-74805263D01*
X102677586Y-74774033D01*
X103401617Y-75498064D01*
X103458192Y-75424334D01*
X103458197Y-75424327D01*
X103572893Y-75225668D01*
X103572897Y-75225659D01*
X103660681Y-75013730D01*
X103720057Y-74792137D01*
X103749998Y-74564710D01*
X103750000Y-74564694D01*
X103750000Y-74335305D01*
X103749998Y-74335289D01*
X103720057Y-74107862D01*
X103660681Y-73886269D01*
X103572897Y-73674340D01*
X103572893Y-73674330D01*
X103458194Y-73475666D01*
X103401618Y-73401934D01*
X103401617Y-73401934D01*
X102677586Y-74125965D01*
X102664651Y-74094737D01*
X102582572Y-73971896D01*
X102478104Y-73867428D01*
X102355263Y-73785349D01*
X102324032Y-73772412D01*
X103048064Y-73048381D01*
X103048064Y-73048380D01*
X102974331Y-72991805D01*
X102974324Y-72991799D01*
X102775669Y-72877106D01*
X102775659Y-72877102D01*
X102563730Y-72789318D01*
X102342137Y-72729942D01*
X102114710Y-72700001D01*
X102114694Y-72700000D01*
X101885306Y-72700000D01*
X101885289Y-72700001D01*
X101657862Y-72729942D01*
X101436269Y-72789318D01*
X101224340Y-72877102D01*
X101224330Y-72877106D01*
X101025673Y-72991801D01*
X101025659Y-72991810D01*
X100951934Y-73048380D01*
X101675966Y-73772413D01*
X101644737Y-73785349D01*
X101521896Y-73867428D01*
X101417428Y-73971896D01*
X101335349Y-74094737D01*
X101322413Y-74125966D01*
X100598381Y-73401934D01*
X100598380Y-73401934D01*
X100541810Y-73475659D01*
X100541801Y-73475673D01*
X100427106Y-73674330D01*
X100427102Y-73674340D01*
X100339318Y-73886269D01*
X100279942Y-74107862D01*
X100250001Y-74335289D01*
X100250000Y-74335305D01*
X96250500Y-74335305D01*
X96250500Y-74335266D01*
X96220548Y-74107762D01*
X96161158Y-73886113D01*
X96092976Y-73721508D01*
X96073349Y-73674123D01*
X96073346Y-73674117D01*
X96073344Y-73674112D01*
X95958611Y-73475388D01*
X95958608Y-73475385D01*
X95958607Y-73475382D01*
X95848894Y-73332403D01*
X95818919Y-73293339D01*
X95818918Y-73293338D01*
X95818911Y-73293330D01*
X95656670Y-73131089D01*
X95656661Y-73131081D01*
X95474617Y-72991392D01*
X95275890Y-72876657D01*
X95275876Y-72876650D01*
X95063887Y-72788842D01*
X94842238Y-72729452D01*
X94804215Y-72724446D01*
X94614741Y-72699500D01*
X94614734Y-72699500D01*
X94385266Y-72699500D01*
X94385258Y-72699500D01*
X94168715Y-72728009D01*
X94157762Y-72729452D01*
X94110383Y-72742147D01*
X93936112Y-72788842D01*
X93724123Y-72876650D01*
X93724109Y-72876657D01*
X93525382Y-72991392D01*
X93343338Y-73131081D01*
X93181081Y-73293338D01*
X93041392Y-73475382D01*
X92926657Y-73674109D01*
X92926650Y-73674123D01*
X92838842Y-73886112D01*
X92779453Y-74107759D01*
X92779451Y-74107770D01*
X92749500Y-74335258D01*
X87741881Y-74335258D01*
X87721189Y-74231230D01*
X87708253Y-74200000D01*
X88750000Y-74200000D01*
X88750000Y-73152172D01*
X88749999Y-73152155D01*
X88743598Y-73092627D01*
X88743596Y-73092620D01*
X88693354Y-72957913D01*
X88693350Y-72957906D01*
X88607190Y-72842812D01*
X88607187Y-72842809D01*
X88492093Y-72756649D01*
X88492086Y-72756645D01*
X88357379Y-72706403D01*
X88357372Y-72706401D01*
X88297844Y-72700000D01*
X87250000Y-72700000D01*
X87250000Y-73741747D01*
X87218770Y-73728811D01*
X87073870Y-73699989D01*
X86926130Y-73699989D01*
X86781230Y-73728811D01*
X86750000Y-73741747D01*
X86750000Y-72700000D01*
X85702155Y-72700000D01*
X85642627Y-72706401D01*
X85642620Y-72706403D01*
X85507913Y-72756645D01*
X85507906Y-72756649D01*
X85392812Y-72842809D01*
X85392809Y-72842812D01*
X85306649Y-72957906D01*
X85306645Y-72957913D01*
X85256403Y-73092620D01*
X85256401Y-73092627D01*
X85250000Y-73152155D01*
X65500500Y-73152155D01*
X65500500Y-68624500D01*
X65520185Y-68557461D01*
X65572989Y-68511706D01*
X65624500Y-68500500D01*
X176375500Y-68500500D01*
X176442539Y-68520185D01*
G37*
%TD.AperFunction*%
%TD*%
M02*
