%TF.GenerationSoftware,KiCad,Pcbnew,9.0.0*%
%TF.CreationDate,2025-03-06T16:27:56+01:00*%
%TF.ProjectId,mcuDevBoard,6d637544-6576-4426-9f61-72642e6b6963,rev?*%
%TF.SameCoordinates,Original*%
%TF.FileFunction,Legend,Top*%
%TF.FilePolarity,Positive*%
%FSLAX46Y46*%
G04 Gerber Fmt 4.6, Leading zero omitted, Abs format (unit mm)*
G04 Created by KiCad (PCBNEW 9.0.0) date 2025-03-06 16:27:56*
%MOMM*%
%LPD*%
G01*
G04 APERTURE LIST*
%ADD10C,0.120000*%
%ADD11C,0.250000*%
G04 APERTURE END LIST*
D10*
%TO.C,C13*%
X130201248Y-93765000D02*
X130723752Y-93765000D01*
X130201248Y-95235000D02*
X130723752Y-95235000D01*
%TO.C,C12*%
X126238748Y-83365000D02*
X126761252Y-83365000D01*
X126238748Y-84835000D02*
X126761252Y-84835000D01*
%TO.C,R23*%
X168228600Y-104962336D02*
X168228600Y-106416464D01*
X170048600Y-104962336D02*
X170048600Y-106416464D01*
%TO.C,U4*%
X120840000Y-78842500D02*
X120840000Y-78042500D01*
X120840000Y-78842500D02*
X120840000Y-79642500D01*
X123960000Y-78842500D02*
X123960000Y-78042500D01*
X123960000Y-78842500D02*
X123960000Y-79642500D01*
X120890000Y-80142500D02*
X120560000Y-80382500D01*
X120560000Y-79902500D01*
X120890000Y-80142500D01*
G36*
X120890000Y-80142500D02*
G01*
X120560000Y-80382500D01*
X120560000Y-79902500D01*
X120890000Y-80142500D01*
G37*
%TO.C,C15*%
X128678748Y-95865000D02*
X129201252Y-95865000D01*
X128678748Y-97335000D02*
X129201252Y-97335000D01*
%TO.C,R73*%
X105287400Y-105013136D02*
X105287400Y-106467264D01*
X107107400Y-105013136D02*
X107107400Y-106467264D01*
%TO.C,R12*%
X140288600Y-104962336D02*
X140288600Y-106416464D01*
X142108600Y-104962336D02*
X142108600Y-106416464D01*
%TO.C,Q1*%
X120760000Y-107420000D02*
X121560000Y-107420000D01*
X120900000Y-110580000D02*
X122360000Y-110580000D01*
X122360000Y-107420000D02*
X121560000Y-107420000D01*
X122360000Y-108350000D02*
X122360000Y-107420000D01*
X122360000Y-109650000D02*
X122360000Y-110580000D01*
X120260000Y-107390000D02*
X120020000Y-107060000D01*
X120500000Y-107060000D01*
X120260000Y-107390000D01*
G36*
X120260000Y-107390000D02*
G01*
X120020000Y-107060000D01*
X120500000Y-107060000D01*
X120260000Y-107390000D01*
G37*
%TO.C,R58*%
X67318400Y-104988136D02*
X67318400Y-106442264D01*
X69138400Y-104988136D02*
X69138400Y-106442264D01*
%TO.C,C4*%
X130548752Y-88085000D02*
X130026248Y-88085000D01*
X130548752Y-89555000D02*
X130026248Y-89555000D01*
%TO.C,C1*%
X101000000Y-87223752D02*
X101000000Y-85801248D01*
X102820000Y-87223752D02*
X102820000Y-85801248D01*
%TO.C,R67*%
X90068400Y-105043136D02*
X90068400Y-106497264D01*
X91888400Y-105043136D02*
X91888400Y-106497264D01*
%TO.C,J1*%
X129734000Y-73346000D02*
X131064000Y-73346000D01*
X129734000Y-74676000D02*
X129734000Y-73346000D01*
X132334000Y-73346000D02*
X134934000Y-73346000D01*
X132334000Y-76006000D02*
X132334000Y-73346000D01*
X132334000Y-76006000D02*
X134934000Y-76006000D01*
X134934000Y-76006000D02*
X134934000Y-73346000D01*
%TO.C,C9*%
X130731252Y-91705000D02*
X130208748Y-91705000D01*
X130731252Y-93175000D02*
X130208748Y-93175000D01*
%TO.C,R8*%
X162315536Y-89666400D02*
X163769664Y-89666400D01*
X162315536Y-91486400D02*
X163769664Y-91486400D01*
%TO.C,R7*%
X162315536Y-94590000D02*
X163769664Y-94590000D01*
X162315536Y-96410000D02*
X163769664Y-96410000D01*
%TO.C,R35*%
X126246936Y-77169600D02*
X127701064Y-77169600D01*
X126246936Y-78989600D02*
X127701064Y-78989600D01*
%TO.C,U6*%
X84955900Y-92143200D02*
X84955900Y-92418200D01*
X84955900Y-102063200D02*
X84955900Y-101788200D01*
X87265900Y-92143200D02*
X84955900Y-92143200D01*
X87265900Y-92143200D02*
X89575900Y-92143200D01*
X87265900Y-102063200D02*
X84955900Y-102063200D01*
X87265900Y-102063200D02*
X89575900Y-102063200D01*
X89575900Y-92143200D02*
X89575900Y-92418200D01*
X89575900Y-102063200D02*
X89575900Y-101788200D01*
X84365900Y-92418200D02*
X84125900Y-92088200D01*
X84605900Y-92088200D01*
X84365900Y-92418200D01*
G36*
X84365900Y-92418200D02*
G01*
X84125900Y-92088200D01*
X84605900Y-92088200D01*
X84365900Y-92418200D01*
G37*
%TO.C,U3*%
X105812500Y-82919500D02*
X109572500Y-82919500D01*
X105812500Y-89739500D02*
X109572500Y-89739500D01*
X109572500Y-82919500D02*
X109572500Y-84179500D01*
X109572500Y-89739500D02*
X109572500Y-88479500D01*
X104532500Y-83019500D02*
X104292500Y-82689500D01*
X104772500Y-82689500D01*
X104532500Y-83019500D01*
G36*
X104532500Y-83019500D02*
G01*
X104292500Y-82689500D01*
X104772500Y-82689500D01*
X104532500Y-83019500D01*
G37*
%TO.C,R53*%
X94142936Y-94690000D02*
X95597064Y-94690000D01*
X94142936Y-96510000D02*
X95597064Y-96510000D01*
%TO.C,R10*%
X135208600Y-104962336D02*
X135208600Y-106416464D01*
X137028600Y-104962336D02*
X137028600Y-106416464D01*
%TO.C,R47*%
X79893400Y-87747264D02*
X79893400Y-86293136D01*
X81713400Y-87747264D02*
X81713400Y-86293136D01*
%TO.C,R33*%
X132267936Y-78719000D02*
X133722064Y-78719000D01*
X132267936Y-80539000D02*
X133722064Y-80539000D01*
%TO.C,J15*%
X113690000Y-112970000D02*
X113690000Y-115630000D01*
X118830000Y-112970000D02*
X113690000Y-112970000D01*
X118830000Y-112970000D02*
X118830000Y-115630000D01*
X118830000Y-115630000D02*
X113690000Y-115630000D01*
X121430000Y-114300000D02*
X121430000Y-115630000D01*
X121430000Y-115630000D02*
X120100000Y-115630000D01*
%TO.C,R34*%
X124700000Y-99377064D02*
X124700000Y-97922936D01*
X126520000Y-99377064D02*
X126520000Y-97922936D01*
%TO.C,R24*%
X170768600Y-104962336D02*
X170768600Y-106416464D01*
X172588600Y-104962336D02*
X172588600Y-106416464D01*
%TO.C,R38*%
X120677000Y-82768748D02*
X120677000Y-83291252D01*
X122147000Y-82768748D02*
X122147000Y-83291252D01*
%TO.C,R1*%
X158068600Y-87721464D02*
X158068600Y-86267336D01*
X159888600Y-87721464D02*
X159888600Y-86267336D01*
%TO.C,Y1*%
X127030000Y-97740000D02*
X127030000Y-101040000D01*
X127030000Y-101040000D02*
X131030000Y-101040000D01*
%TO.C,C16*%
X126484748Y-101373000D02*
X127007252Y-101373000D01*
X126484748Y-102843000D02*
X127007252Y-102843000D01*
%TO.C,R45*%
X84713400Y-87697264D02*
X84713400Y-86243136D01*
X86533400Y-87697264D02*
X86533400Y-86243136D01*
%TO.C,R36*%
X118481464Y-76915600D02*
X117027336Y-76915600D01*
X118481464Y-78735600D02*
X117027336Y-78735600D01*
%TO.C,R4*%
X150448600Y-87721464D02*
X150448600Y-86267336D01*
X152268600Y-87721464D02*
X152268600Y-86267336D01*
%TO.C,R9*%
X162315536Y-92079400D02*
X163769664Y-92079400D01*
X162315536Y-93899400D02*
X163769664Y-93899400D01*
%TO.C,R11*%
X137748600Y-104962336D02*
X137748600Y-106416464D01*
X139568600Y-104962336D02*
X139568600Y-106416464D01*
%TO.C,R18*%
X155528600Y-104962336D02*
X155528600Y-106416464D01*
X157348600Y-104962336D02*
X157348600Y-106416464D01*
%TO.C,R63*%
X79887400Y-105013136D02*
X79887400Y-106467264D01*
X81707400Y-105013136D02*
X81707400Y-106467264D01*
%TO.C,R59*%
X69743400Y-105013136D02*
X69743400Y-106467264D01*
X71563400Y-105013136D02*
X71563400Y-106467264D01*
%TO.C,U2*%
X152858600Y-92074400D02*
X152858600Y-92349400D01*
X152858600Y-101994400D02*
X152858600Y-101719400D01*
X155168600Y-92074400D02*
X152858600Y-92074400D01*
X155168600Y-92074400D02*
X157478600Y-92074400D01*
X155168600Y-101994400D02*
X152858600Y-101994400D01*
X155168600Y-101994400D02*
X157478600Y-101994400D01*
X157478600Y-92074400D02*
X157478600Y-92349400D01*
X157478600Y-101994400D02*
X157478600Y-101719400D01*
X152268600Y-92349400D02*
X152028600Y-92019400D01*
X152508600Y-92019400D01*
X152268600Y-92349400D01*
G36*
X152268600Y-92349400D02*
G01*
X152028600Y-92019400D01*
X152508600Y-92019400D01*
X152268600Y-92349400D01*
G37*
%TO.C,R3*%
X152988600Y-87721464D02*
X152988600Y-86267336D01*
X154808600Y-87721464D02*
X154808600Y-86267336D01*
%TO.C,R65*%
X84967400Y-105013136D02*
X84967400Y-106467264D01*
X86787400Y-105013136D02*
X86787400Y-106467264D01*
%TO.C,J5*%
X134788600Y-114360000D02*
X134788600Y-113030000D01*
X136118600Y-114360000D02*
X134788600Y-114360000D01*
X137388600Y-111700000D02*
X175548600Y-111700000D01*
X137388600Y-114360000D02*
X137388600Y-111700000D01*
X137388600Y-114360000D02*
X175548600Y-114360000D01*
X175548600Y-114360000D02*
X175548600Y-111700000D01*
%TO.C,R25*%
X173308600Y-104962336D02*
X173308600Y-106416464D01*
X175128600Y-104962336D02*
X175128600Y-106416464D01*
%TO.C,R13*%
X142828600Y-104962336D02*
X142828600Y-106416464D01*
X144648600Y-104962336D02*
X144648600Y-106416464D01*
%TO.C,F1*%
X118283264Y-79760400D02*
X117079136Y-79760400D01*
X118283264Y-81580400D02*
X117079136Y-81580400D01*
%TO.C,R71*%
X100207400Y-105013136D02*
X100207400Y-106467264D01*
X102027400Y-105013136D02*
X102027400Y-106467264D01*
%TO.C,J3*%
X117730000Y-69240000D02*
X117730000Y-67340000D01*
X117730000Y-73140000D02*
X117730000Y-71140000D01*
X127130000Y-67340000D02*
X117730000Y-67340000D01*
X127130000Y-69240000D02*
X127130000Y-67340000D01*
X127130000Y-73140000D02*
X127130000Y-71140000D01*
%TO.C,R57*%
X94122936Y-92190000D02*
X95577064Y-92190000D01*
X94122936Y-94010000D02*
X95577064Y-94010000D01*
%TO.C,R42*%
X116590000Y-110226264D02*
X116590000Y-108772136D01*
X118410000Y-110226264D02*
X118410000Y-108772136D01*
%TO.C,C11*%
X125490248Y-85371000D02*
X126012752Y-85371000D01*
X125490248Y-86841000D02*
X126012752Y-86841000D01*
%TO.C,J9*%
X66767400Y-114360000D02*
X66767400Y-113030000D01*
X68097400Y-114360000D02*
X66767400Y-114360000D01*
X69367400Y-111700000D02*
X107527400Y-111700000D01*
X69367400Y-114360000D02*
X69367400Y-111700000D01*
X69367400Y-114360000D02*
X107527400Y-114360000D01*
X107527400Y-114360000D02*
X107527400Y-111700000D01*
%TO.C,C3*%
X117621248Y-91685000D02*
X118143752Y-91685000D01*
X117621248Y-93155000D02*
X118143752Y-93155000D01*
%TO.C,C7*%
X117691248Y-88595000D02*
X118213752Y-88595000D01*
X117691248Y-90065000D02*
X118213752Y-90065000D01*
%TO.C,R41*%
X114090000Y-110277064D02*
X114090000Y-108822936D01*
X115910000Y-110277064D02*
X115910000Y-108822936D01*
%TO.C,R68*%
X92587400Y-105013136D02*
X92587400Y-106467264D01*
X94407400Y-105013136D02*
X94407400Y-106467264D01*
%TO.C,J4*%
X134788600Y-116900000D02*
X134788600Y-115570000D01*
X136118600Y-116900000D02*
X134788600Y-116900000D01*
X137388600Y-114240000D02*
X175548600Y-114240000D01*
X137388600Y-116900000D02*
X137388600Y-114240000D01*
X137388600Y-116900000D02*
X175548600Y-116900000D01*
X175548600Y-116900000D02*
X175548600Y-114240000D01*
%TO.C,JP19*%
X111450000Y-104800000D02*
X111450000Y-104200000D01*
X112150000Y-103500000D02*
X113550000Y-103500000D01*
X113550000Y-105500000D02*
X112150000Y-105500000D01*
X114250000Y-104200000D02*
X114250000Y-104800000D01*
X111450000Y-104200000D02*
G75*
G02*
X112150000Y-103500000I699999J1D01*
G01*
X112150000Y-105500000D02*
G75*
G02*
X111450000Y-104800000I-1J699999D01*
G01*
X113550000Y-103500000D02*
G75*
G02*
X114250000Y-104200000I0J-700000D01*
G01*
X114250000Y-104800000D02*
G75*
G02*
X113550000Y-105500000I-700000J0D01*
G01*
%TO.C,R62*%
X77393400Y-105013136D02*
X77393400Y-106467264D01*
X79213400Y-105013136D02*
X79213400Y-106467264D01*
%TO.C,C5*%
X122685000Y-98348752D02*
X122685000Y-97826248D01*
X124155000Y-98348752D02*
X124155000Y-97826248D01*
%TO.C,C6*%
X118191248Y-84475000D02*
X118713752Y-84475000D01*
X118191248Y-85945000D02*
X118713752Y-85945000D01*
%TO.C,R16*%
X150448600Y-104962336D02*
X150448600Y-106416464D01*
X152268600Y-104962336D02*
X152268600Y-106416464D01*
%TO.C,J13*%
X142270000Y-98298000D02*
X142270000Y-82998000D01*
X144930000Y-82998000D02*
X142270000Y-82998000D01*
X144930000Y-98298000D02*
X142270000Y-98298000D01*
X144930000Y-98298000D02*
X144930000Y-82998000D01*
X144930000Y-99568000D02*
X144930000Y-100898000D01*
X144930000Y-100898000D02*
X143600000Y-100898000D01*
%TO.C,R61*%
X74843400Y-105013136D02*
X74843400Y-106467264D01*
X76663400Y-105013136D02*
X76663400Y-106467264D01*
%TO.C,R2*%
X155528600Y-87721464D02*
X155528600Y-86267336D01*
X157348600Y-87721464D02*
X157348600Y-86267336D01*
%TO.C,JP15*%
X115450000Y-104800000D02*
X115450000Y-104200000D01*
X116150000Y-103500000D02*
X117550000Y-103500000D01*
X117550000Y-105500000D02*
X116150000Y-105500000D01*
X118250000Y-104200000D02*
X118250000Y-104800000D01*
X115450000Y-104200000D02*
G75*
G02*
X116150000Y-103500000I700000J0D01*
G01*
X116150000Y-105500000D02*
G75*
G02*
X115450000Y-104800000I0J700000D01*
G01*
X117550000Y-103500000D02*
G75*
G02*
X118250000Y-104200000I1J-699999D01*
G01*
X118250000Y-104800000D02*
G75*
G02*
X117550000Y-105500000I-699999J-1D01*
G01*
%TO.C,R6*%
X160608600Y-87721464D02*
X160608600Y-86267336D01*
X162428600Y-87721464D02*
X162428600Y-86267336D01*
%TO.C,R60*%
X72143400Y-105013136D02*
X72143400Y-106467264D01*
X73963400Y-105013136D02*
X73963400Y-106467264D01*
%TO.C,R64*%
X82427400Y-105013136D02*
X82427400Y-106467264D01*
X84247400Y-105013136D02*
X84247400Y-106467264D01*
%TO.C,J12*%
X137354000Y-98298000D02*
X137354000Y-82998000D01*
X140014000Y-82998000D02*
X137354000Y-82998000D01*
X140014000Y-98298000D02*
X137354000Y-98298000D01*
X140014000Y-98298000D02*
X140014000Y-82998000D01*
X140014000Y-99568000D02*
X140014000Y-100898000D01*
X140014000Y-100898000D02*
X138684000Y-100898000D01*
%TO.C,R37*%
X122709000Y-82758748D02*
X122709000Y-83281252D01*
X124179000Y-82758748D02*
X124179000Y-83281252D01*
%TO.C,J7*%
X66767400Y-111820000D02*
X66767400Y-110490000D01*
X68097400Y-111820000D02*
X66767400Y-111820000D01*
X69367400Y-109160000D02*
X107527400Y-109160000D01*
X69367400Y-111820000D02*
X69367400Y-109160000D01*
X69367400Y-111820000D02*
X107527400Y-111820000D01*
X107527400Y-111820000D02*
X107527400Y-109160000D01*
%TO.C,R5*%
X147908600Y-87721464D02*
X147908600Y-86267336D01*
X149728600Y-87721464D02*
X149728600Y-86267336D01*
%TO.C,C14*%
X129922600Y-84309852D02*
X129922600Y-83787348D01*
X131392600Y-84309852D02*
X131392600Y-83787348D01*
%TO.C,J10*%
X108650000Y-97170000D02*
X108650000Y-99830000D01*
X116330000Y-97170000D02*
X108650000Y-97170000D01*
X116330000Y-97170000D02*
X116330000Y-99830000D01*
X116330000Y-99830000D02*
X108650000Y-99830000D01*
X117600000Y-97170000D02*
X118930000Y-97170000D01*
X118930000Y-97170000D02*
X118930000Y-98500000D01*
%TO.C,J2*%
X134788600Y-111820000D02*
X134788600Y-110490000D01*
X136118600Y-111820000D02*
X134788600Y-111820000D01*
X137388600Y-109160000D02*
X175548600Y-109160000D01*
X137388600Y-111820000D02*
X137388600Y-109160000D01*
X137388600Y-111820000D02*
X175548600Y-111820000D01*
X175548600Y-111820000D02*
X175548600Y-109160000D01*
%TO.C,C2*%
X112684000Y-87223752D02*
X112684000Y-85801248D01*
X114504000Y-87223752D02*
X114504000Y-85801248D01*
%TO.C,R43*%
X89793400Y-87697264D02*
X89793400Y-86243136D01*
X91613400Y-87697264D02*
X91613400Y-86243136D01*
%TO.C,R19*%
X158068600Y-104962336D02*
X158068600Y-106416464D01*
X159888600Y-104962336D02*
X159888600Y-106416464D01*
%TO.C,R46*%
X82393400Y-87747264D02*
X82393400Y-86293136D01*
X84213400Y-87747264D02*
X84213400Y-86293136D01*
%TO.C,C8*%
X117691248Y-86535000D02*
X118213752Y-86535000D01*
X117691248Y-88005000D02*
X118213752Y-88005000D01*
%TO.C,R69*%
X95127400Y-105013136D02*
X95127400Y-106467264D01*
X96947400Y-105013136D02*
X96947400Y-106467264D01*
%TO.C,R20*%
X160608600Y-104962336D02*
X160608600Y-106416464D01*
X162428600Y-104962336D02*
X162428600Y-106416464D01*
%TO.C,J8*%
X66767400Y-116900000D02*
X66767400Y-115570000D01*
X68097400Y-116900000D02*
X66767400Y-116900000D01*
X69367400Y-114240000D02*
X107527400Y-114240000D01*
X69367400Y-116900000D02*
X69367400Y-114240000D01*
X69367400Y-116900000D02*
X107527400Y-116900000D01*
X107527400Y-116900000D02*
X107527400Y-114240000D01*
%TO.C,C10*%
X120435000Y-97478748D02*
X120435000Y-98001252D01*
X121905000Y-97478748D02*
X121905000Y-98001252D01*
%TO.C,R17*%
X152988600Y-104962336D02*
X152988600Y-106416464D01*
X154808600Y-104962336D02*
X154808600Y-106416464D01*
%TO.C,R66*%
X87507400Y-105013136D02*
X87507400Y-106467264D01*
X89327400Y-105013136D02*
X89327400Y-106467264D01*
%TO.C,R72*%
X102790000Y-105072936D02*
X102790000Y-106527064D01*
X104610000Y-105072936D02*
X104610000Y-106527064D01*
%TO.C,R15*%
X147908600Y-104962336D02*
X147908600Y-106416464D01*
X149728600Y-104962336D02*
X149728600Y-106416464D01*
%TO.C,R56*%
X94102936Y-89790000D02*
X95557064Y-89790000D01*
X94102936Y-91610000D02*
X95557064Y-91610000D01*
%TO.C,R21*%
X163148600Y-104962336D02*
X163148600Y-106416464D01*
X164968600Y-104962336D02*
X164968600Y-106416464D01*
%TO.C,R48*%
X92593400Y-87747264D02*
X92593400Y-86293136D01*
X94413400Y-87747264D02*
X94413400Y-86293136D01*
%TO.C,R22*%
X165688600Y-104962336D02*
X165688600Y-106416464D01*
X167508600Y-104962336D02*
X167508600Y-106416464D01*
%TO.C,R14*%
X145368600Y-104962336D02*
X145368600Y-106416464D01*
X147188600Y-104962336D02*
X147188600Y-106416464D01*
D11*
%TO.C,J6*%
X82650000Y-69050000D02*
X82650000Y-79450000D01*
X82650000Y-69050000D02*
X113250000Y-69050000D01*
X82650000Y-71930000D02*
X113250000Y-71930000D01*
X82650000Y-76980000D02*
X113250000Y-76980000D01*
X82650000Y-79450000D02*
X113250000Y-79450000D01*
X85510000Y-69050000D02*
X85510000Y-71450000D01*
X85510000Y-71450000D02*
X88500000Y-71450000D01*
X86950000Y-69250000D02*
X86950000Y-71150000D01*
X86950000Y-71150000D02*
X86450000Y-70650000D01*
X86950000Y-71150000D02*
X87450000Y-70650000D01*
X88500000Y-71450000D02*
X88500000Y-69050000D01*
X93010000Y-69050000D02*
X93010000Y-71450000D01*
X93010000Y-71450000D02*
X96000000Y-71450000D01*
X94450000Y-69250000D02*
X94450000Y-71150000D01*
X94450000Y-71150000D02*
X93950000Y-70650000D01*
X94450000Y-71150000D02*
X94950000Y-70650000D01*
X96000000Y-71450000D02*
X96000000Y-69050000D01*
X100510000Y-69050000D02*
X100510000Y-71450000D01*
X100510000Y-71450000D02*
X103500000Y-71450000D01*
X101950000Y-69250000D02*
X101950000Y-71150000D01*
X101950000Y-71150000D02*
X101450000Y-70650000D01*
X101950000Y-71150000D02*
X102450000Y-70650000D01*
X103500000Y-71450000D02*
X103500000Y-69050000D01*
X108010000Y-69050000D02*
X108010000Y-71450000D01*
X108010000Y-71450000D02*
X111000000Y-71450000D01*
X109450000Y-69250000D02*
X109450000Y-71150000D01*
X109450000Y-71150000D02*
X108950000Y-70650000D01*
X109450000Y-71150000D02*
X109950000Y-70650000D01*
X111000000Y-71450000D02*
X111000000Y-69050000D01*
X113250000Y-69050000D02*
X113250000Y-79450000D01*
X113250000Y-70640000D02*
X113650000Y-70640000D01*
X113250000Y-77520000D02*
X113650000Y-77520000D01*
X113650000Y-70640000D02*
X113650000Y-71350000D01*
X113650000Y-71350000D02*
X113250000Y-71350000D01*
X113650000Y-77520000D02*
X113650000Y-78350000D01*
X113650000Y-78350000D02*
X113250000Y-78350000D01*
D10*
%TO.C,R70*%
X97667400Y-105013136D02*
X97667400Y-106467264D01*
X99487400Y-105013136D02*
X99487400Y-106467264D01*
%TO.C,R44*%
X87253400Y-87697264D02*
X87253400Y-86243136D01*
X89073400Y-87697264D02*
X89073400Y-86243136D01*
%TD*%
M02*
