M48
; DRILL file {KiCad 9.0.0} date 2025-03-06T16:28:07+0100
; FORMAT={-:-/ absolute / metric / decimal}
; #@! TF.CreationDate,2025-03-06T16:28:07+01:00
; #@! TF.GenerationSoftware,Kicad,Pcbnew,9.0.0
; #@! TF.FileFunction,MixedPlating,1,2
FMAT,2
METRIC
; #@! TA.AperFunction,Plated,PTH,ViaDrill
T1C0.300
; #@! TA.AperFunction,Plated,PTH,ComponentDrill
T2C0.600
; #@! TA.AperFunction,Plated,PTH,ComponentDrill
T3C1.000
; #@! TA.AperFunction,Plated,PTH,ComponentDrill
T4C1.500
; #@! TA.AperFunction,NonPlated,NPTH,ComponentDrill
T5C0.650
%
G90
G05
T1
X80.797Y-87.198
X83.337Y-87.198
X85.877Y-87.198
X88.417Y-87.198
X88.5Y-97.0
X90.957Y-87.198
X91.923Y-93.32
X91.948Y-90.399
X93.497Y-86.944
X101.0Y-90.7
X106.25Y-87.25
X107.48Y-88.5
X110.5Y-103.0
X111.0Y-91.0
X119.6Y-111.8
X119.813Y-92.414
X120.23Y-88.42
X120.77Y-87.8
X120.91Y-87.21
X121.799Y-93.801
X121.88Y-91.64
X122.07Y-86.804
X122.08Y-95.99
X122.25Y-85.37
X123.32Y-85.35
X123.701Y-86.912
X123.709Y-96.009
X123.761Y-78.869
X124.574Y-96.383
X125.12Y-95.799
X125.2Y-108.2
X126.12Y-89.44
X126.17Y-90.35
X127.91Y-88.29
X128.778Y-81.483
X130.4Y-92.1
X131.978Y-101.473
X132.94Y-86.27
X134.2Y-92.9
X135.128Y-94.996
X135.3Y-92.3
X135.839Y-79.172
X137.085Y-92.04
X140.132Y-79.7
X144.28Y-82.236
X148.819Y-87.147
X151.359Y-87.147
X151.968Y-102.413
X153.899Y-87.147
X155.0Y-98.8
X155.384Y-93.269
X156.1Y-95.8
X156.439Y-87.147
X156.652Y-94.501
X156.7Y-93.459
X158.979Y-87.147
X161.519Y-86.893
T3
X68.097Y-110.49
X68.097Y-113.03
X68.097Y-115.57
X70.637Y-110.49
X70.637Y-113.03
X70.637Y-115.57
X73.177Y-110.49
X73.177Y-113.03
X73.177Y-115.57
X75.717Y-110.49
X75.717Y-113.03
X75.717Y-115.57
X78.257Y-110.49
X78.257Y-113.03
X78.257Y-115.57
X80.797Y-110.49
X80.797Y-113.03
X80.797Y-115.57
X83.337Y-110.49
X83.337Y-113.03
X83.337Y-115.57
X85.877Y-110.49
X85.877Y-113.03
X85.877Y-115.57
X88.417Y-110.49
X88.417Y-113.03
X88.417Y-115.57
X90.957Y-110.49
X90.957Y-113.03
X90.957Y-115.57
X93.497Y-110.49
X93.497Y-113.03
X93.497Y-115.57
X96.037Y-110.49
X96.037Y-113.03
X96.037Y-115.57
X98.577Y-110.49
X98.577Y-113.03
X98.577Y-115.57
X101.117Y-110.49
X101.117Y-113.03
X101.117Y-115.57
X103.657Y-110.49
X103.657Y-113.03
X103.657Y-115.57
X106.197Y-110.49
X106.197Y-113.03
X106.197Y-115.57
X109.98Y-98.5
X112.52Y-98.5
X115.02Y-114.3
X115.06Y-98.5
X117.56Y-114.3
X117.6Y-98.5
X120.1Y-114.3
X131.064Y-74.676
X133.604Y-74.676
X136.119Y-110.49
X136.119Y-113.03
X136.119Y-115.57
X138.659Y-110.49
X138.659Y-113.03
X138.659Y-115.57
X138.684Y-84.328
X138.684Y-86.868
X138.684Y-89.408
X138.684Y-91.948
X138.684Y-94.488
X138.684Y-97.028
X138.684Y-99.568
X141.199Y-110.49
X141.199Y-113.03
X141.199Y-115.57
X143.6Y-84.328
X143.6Y-86.868
X143.6Y-89.408
X143.6Y-91.948
X143.6Y-94.488
X143.6Y-97.028
X143.6Y-99.568
X143.739Y-110.49
X143.739Y-113.03
X143.739Y-115.57
X146.279Y-110.49
X146.279Y-113.03
X146.279Y-115.57
X148.819Y-110.49
X148.819Y-113.03
X148.819Y-115.57
X151.359Y-110.49
X151.359Y-113.03
X151.359Y-115.57
X153.899Y-110.49
X153.899Y-113.03
X153.899Y-115.57
X156.439Y-110.49
X156.439Y-113.03
X156.439Y-115.57
X158.979Y-110.49
X158.979Y-113.03
X158.979Y-115.57
X161.519Y-110.49
X161.519Y-113.03
X161.519Y-115.57
X164.059Y-110.49
X164.059Y-113.03
X164.059Y-115.57
X166.599Y-110.49
X166.599Y-113.03
X166.599Y-115.57
X169.139Y-110.49
X169.139Y-113.03
X169.139Y-115.57
X171.679Y-110.49
X171.679Y-113.03
X171.679Y-115.57
X174.219Y-110.49
X174.219Y-113.03
X174.219Y-115.57
T4
X87.0Y-74.45
X94.5Y-74.45
X102.0Y-74.45
X109.5Y-74.45
T5
X119.54Y-73.84
X125.32Y-73.84
T2
G00X118.11Y-70.49
M15
G01X118.11Y-69.89
M16
G05
G00X118.11Y-74.92
M15
G01X118.11Y-73.82
M16
G05
G00X126.75Y-70.49
M15
G01X126.75Y-69.89
M16
G05
G00X126.75Y-74.92
M15
G01X126.75Y-73.82
M16
G05
M30
