%TF.GenerationSoftware,KiCad,Pcbnew,9.0.0*%
%TF.CreationDate,2025-03-06T16:27:56+01:00*%
%TF.ProjectId,mcuDevBoard,6d637544-6576-4426-9f61-72642e6b6963,rev?*%
%TF.SameCoordinates,Original*%
%TF.FileFunction,Legend,Bot*%
%TF.FilePolarity,Positive*%
%FSLAX46Y46*%
G04 Gerber Fmt 4.6, Leading zero omitted, Abs format (unit mm)*
G04 Created by KiCad (PCBNEW 9.0.0) date 2025-03-06 16:27:56*
%MOMM*%
%LPD*%
G01*
G04 APERTURE LIST*
%ADD10C,0.150000*%
%ADD11C,0.120000*%
G04 APERTURE END LIST*
D10*
X123161904Y-88554819D02*
X123161904Y-89364342D01*
X123161904Y-89364342D02*
X123114285Y-89459580D01*
X123114285Y-89459580D02*
X123066666Y-89507200D01*
X123066666Y-89507200D02*
X122971428Y-89554819D01*
X122971428Y-89554819D02*
X122780952Y-89554819D01*
X122780952Y-89554819D02*
X122685714Y-89507200D01*
X122685714Y-89507200D02*
X122638095Y-89459580D01*
X122638095Y-89459580D02*
X122590476Y-89364342D01*
X122590476Y-89364342D02*
X122590476Y-88554819D01*
X121590476Y-89554819D02*
X122161904Y-89554819D01*
X121876190Y-89554819D02*
X121876190Y-88554819D01*
X121876190Y-88554819D02*
X121971428Y-88697676D01*
X121971428Y-88697676D02*
X122066666Y-88792914D01*
X122066666Y-88792914D02*
X122161904Y-88840533D01*
D11*
%TO.C,JP12*%
X160518600Y-82879400D02*
X160518600Y-81479400D01*
X161218600Y-80779400D02*
X161818600Y-80779400D01*
X161818600Y-83579400D02*
X161218600Y-83579400D01*
X162518600Y-81479400D02*
X162518600Y-82879400D01*
X160518600Y-81479400D02*
G75*
G02*
X161218600Y-80779400I700000J0D01*
G01*
X161218600Y-83579400D02*
G75*
G02*
X160518600Y-82879400I-1J699999D01*
G01*
X161818600Y-80779400D02*
G75*
G02*
X162518600Y-81479400I0J-700000D01*
G01*
X162518600Y-82879400D02*
G75*
G02*
X161818600Y-83579400I-699999J-1D01*
G01*
%TO.C,U5*%
X128085000Y-81170000D02*
X130810000Y-81170000D01*
X128085000Y-81430000D02*
X128085000Y-81170000D01*
X128085000Y-86360000D02*
X128085000Y-86620000D01*
X128085000Y-86620000D02*
X130810000Y-86620000D01*
X133535000Y-81170000D02*
X130810000Y-81170000D01*
X133535000Y-81430000D02*
X133535000Y-81170000D01*
X133535000Y-86360000D02*
X133535000Y-86620000D01*
X133535000Y-86620000D02*
X130810000Y-86620000D01*
X134317500Y-81430000D02*
X134077500Y-81100000D01*
X134557500Y-81100000D01*
X134317500Y-81430000D01*
G36*
X134317500Y-81430000D02*
G01*
X134077500Y-81100000D01*
X134557500Y-81100000D01*
X134317500Y-81430000D01*
G37*
%TO.C,JP4*%
X90023400Y-82820200D02*
X90023400Y-81420200D01*
X90723400Y-80720200D02*
X91323400Y-80720200D01*
X91323400Y-83520200D02*
X90723400Y-83520200D01*
X92023400Y-81420200D02*
X92023400Y-82820200D01*
X90023400Y-81420200D02*
G75*
G02*
X90723400Y-80720200I700000J0D01*
G01*
X90723400Y-83520200D02*
G75*
G02*
X90023400Y-82820200I-1J699999D01*
G01*
X91323400Y-80720200D02*
G75*
G02*
X92023400Y-81420200I0J-700000D01*
G01*
X92023400Y-82820200D02*
G75*
G02*
X91323400Y-83520200I-699999J-1D01*
G01*
%TO.C,JP11*%
X92563400Y-82790200D02*
X92563400Y-81390200D01*
X93263400Y-80690200D02*
X93863400Y-80690200D01*
X93863400Y-83490200D02*
X93263400Y-83490200D01*
X94563400Y-81390200D02*
X94563400Y-82790200D01*
X92563400Y-81390200D02*
G75*
G02*
X93263400Y-80690200I700000J0D01*
G01*
X93263400Y-83490200D02*
G75*
G02*
X92563400Y-82790200I-1J699999D01*
G01*
X93863400Y-80690200D02*
G75*
G02*
X94563400Y-81390200I0J-700000D01*
G01*
X94563400Y-82790200D02*
G75*
G02*
X93863400Y-83490200I-699999J-1D01*
G01*
%TO.C,JP2*%
X155438600Y-82879400D02*
X155438600Y-81479400D01*
X156138600Y-80779400D02*
X156738600Y-80779400D01*
X156738600Y-83579400D02*
X156138600Y-83579400D01*
X157438600Y-81479400D02*
X157438600Y-82879400D01*
X155438600Y-81479400D02*
G75*
G02*
X156138600Y-80779400I700000J0D01*
G01*
X156138600Y-83579400D02*
G75*
G02*
X155438600Y-82879400I-1J699999D01*
G01*
X156738600Y-80779400D02*
G75*
G02*
X157438600Y-81479400I0J-700000D01*
G01*
X157438600Y-82879400D02*
G75*
G02*
X156738600Y-83579400I-699999J-1D01*
G01*
%TO.C,JP13*%
X86200000Y-94300000D02*
X86200000Y-95700000D01*
X86900000Y-96400000D02*
X87500000Y-96400000D01*
X87500000Y-93600000D02*
X86900000Y-93600000D01*
X88200000Y-95700000D02*
X88200000Y-94300000D01*
X86200000Y-94300000D02*
G75*
G02*
X86900000Y-93600000I700000J0D01*
G01*
X86900000Y-96400000D02*
G75*
G02*
X86200000Y-95700000I-1J699999D01*
G01*
X87500000Y-93600000D02*
G75*
G02*
X88200000Y-94300000I0J-700000D01*
G01*
X88200000Y-95700000D02*
G75*
G02*
X87500000Y-96400000I-699999J-1D01*
G01*
%TO.C,JP14*%
X153768600Y-97000000D02*
X153768600Y-97600000D01*
X154468600Y-98300000D02*
X155868600Y-98300000D01*
X155868600Y-96300000D02*
X154468600Y-96300000D01*
X156568600Y-97600000D02*
X156568600Y-97000000D01*
X153768600Y-97000000D02*
G75*
G02*
X154468600Y-96300000I700000J0D01*
G01*
X154468600Y-98300000D02*
G75*
G02*
X153768600Y-97600000I0J700000D01*
G01*
X155868600Y-96300000D02*
G75*
G02*
X156568600Y-97000000I1J-699999D01*
G01*
X156568600Y-97600000D02*
G75*
G02*
X155868600Y-98300000I-699999J-1D01*
G01*
%TO.C,JP9*%
X79863400Y-82820200D02*
X79863400Y-81420200D01*
X80563400Y-80720200D02*
X81163400Y-80720200D01*
X81163400Y-83520200D02*
X80563400Y-83520200D01*
X81863400Y-81420200D02*
X81863400Y-82820200D01*
X79863400Y-81420200D02*
G75*
G02*
X80563400Y-80720200I700000J0D01*
G01*
X80563400Y-83520200D02*
G75*
G02*
X79863400Y-82820200I-1J699999D01*
G01*
X81163400Y-80720200D02*
G75*
G02*
X81863400Y-81420200I0J-700000D01*
G01*
X81863400Y-82820200D02*
G75*
G02*
X81163400Y-83520200I-699999J-1D01*
G01*
%TO.C,JP1*%
X157978600Y-82879400D02*
X157978600Y-81479400D01*
X158678600Y-80779400D02*
X159278600Y-80779400D01*
X159278600Y-83579400D02*
X158678600Y-83579400D01*
X159978600Y-81479400D02*
X159978600Y-82879400D01*
X157978600Y-81479400D02*
G75*
G02*
X158678600Y-80779400I700000J0D01*
G01*
X158678600Y-83579400D02*
G75*
G02*
X157978600Y-82879400I-1J699999D01*
G01*
X159278600Y-80779400D02*
G75*
G02*
X159978600Y-81479400I0J-700000D01*
G01*
X159978600Y-82879400D02*
G75*
G02*
X159278600Y-83579400I-699999J-1D01*
G01*
%TO.C,JP6*%
X152898600Y-82879400D02*
X152898600Y-81479400D01*
X153598600Y-80779400D02*
X154198600Y-80779400D01*
X154198600Y-83579400D02*
X153598600Y-83579400D01*
X154898600Y-81479400D02*
X154898600Y-82879400D01*
X152898600Y-81479400D02*
G75*
G02*
X153598600Y-80779400I700000J0D01*
G01*
X153598600Y-83579400D02*
G75*
G02*
X152898600Y-82879400I-1J699999D01*
G01*
X154198600Y-80779400D02*
G75*
G02*
X154898600Y-81479400I0J-700000D01*
G01*
X154898600Y-82879400D02*
G75*
G02*
X154198600Y-83579400I-699999J-1D01*
G01*
%TO.C,JP3*%
X87483400Y-82820200D02*
X87483400Y-81420200D01*
X88183400Y-80720200D02*
X88783400Y-80720200D01*
X88783400Y-83520200D02*
X88183400Y-83520200D01*
X89483400Y-81420200D02*
X89483400Y-82820200D01*
X87483400Y-81420200D02*
G75*
G02*
X88183400Y-80720200I700000J0D01*
G01*
X88183400Y-83520200D02*
G75*
G02*
X87483400Y-82820200I-1J699999D01*
G01*
X88783400Y-80720200D02*
G75*
G02*
X89483400Y-81420200I0J-700000D01*
G01*
X89483400Y-82820200D02*
G75*
G02*
X88783400Y-83520200I-699999J-1D01*
G01*
%TO.C,JP7*%
X82403400Y-82820200D02*
X82403400Y-81420200D01*
X83103400Y-80720200D02*
X83703400Y-80720200D01*
X83703400Y-83520200D02*
X83103400Y-83520200D01*
X84403400Y-81420200D02*
X84403400Y-82820200D01*
X82403400Y-81420200D02*
G75*
G02*
X83103400Y-80720200I700000J0D01*
G01*
X83103400Y-83520200D02*
G75*
G02*
X82403400Y-82820200I-1J699999D01*
G01*
X83703400Y-80720200D02*
G75*
G02*
X84403400Y-81420200I0J-700000D01*
G01*
X84403400Y-82820200D02*
G75*
G02*
X83703400Y-83520200I-699999J-1D01*
G01*
%TO.C,JP18*%
X153750000Y-99800000D02*
X153750000Y-100400000D01*
X154450000Y-101100000D02*
X155850000Y-101100000D01*
X155850000Y-99100000D02*
X154450000Y-99100000D01*
X156550000Y-100400000D02*
X156550000Y-99800000D01*
X153750000Y-99800000D02*
G75*
G02*
X154450000Y-99100000I700000J0D01*
G01*
X154450000Y-101100000D02*
G75*
G02*
X153750000Y-100400000I0J700000D01*
G01*
X155850000Y-99100000D02*
G75*
G02*
X156550000Y-99800000I1J-699999D01*
G01*
X156550000Y-100400000D02*
G75*
G02*
X155850000Y-101100000I-699999J-1D01*
G01*
%TO.C,JP5*%
X84943400Y-82820200D02*
X84943400Y-81420200D01*
X85643400Y-80720200D02*
X86243400Y-80720200D01*
X86243400Y-83520200D02*
X85643400Y-83520200D01*
X86943400Y-81420200D02*
X86943400Y-82820200D01*
X84943400Y-81420200D02*
G75*
G02*
X85643400Y-80720200I700000J0D01*
G01*
X85643400Y-83520200D02*
G75*
G02*
X84943400Y-82820200I-1J699999D01*
G01*
X86243400Y-80720200D02*
G75*
G02*
X86943400Y-81420200I0J-700000D01*
G01*
X86943400Y-82820200D02*
G75*
G02*
X86243400Y-83520200I-699999J-1D01*
G01*
%TO.C,R32*%
X136504000Y-77758936D02*
X136504000Y-79213064D01*
X138324000Y-77758936D02*
X138324000Y-79213064D01*
%TO.C,JP8*%
X150358600Y-82879400D02*
X150358600Y-81479400D01*
X151058600Y-80779400D02*
X151658600Y-80779400D01*
X151658600Y-83579400D02*
X151058600Y-83579400D01*
X152358600Y-81479400D02*
X152358600Y-82879400D01*
X150358600Y-81479400D02*
G75*
G02*
X151058600Y-80779400I700000J0D01*
G01*
X151058600Y-83579400D02*
G75*
G02*
X150358600Y-82879400I-1J699999D01*
G01*
X151658600Y-80779400D02*
G75*
G02*
X152358600Y-81479400I0J-700000D01*
G01*
X152358600Y-82879400D02*
G75*
G02*
X151658600Y-83579400I-699999J-1D01*
G01*
%TO.C,U1*%
X120460500Y-87814000D02*
X121110500Y-87814000D01*
X120460500Y-88464000D02*
X120460500Y-87814000D01*
X120460500Y-94384000D02*
X120460500Y-95034000D01*
X120460500Y-95034000D02*
X121110500Y-95034000D01*
X127380500Y-87814000D02*
X127030500Y-87814000D01*
X127680500Y-88054000D02*
X127680500Y-88464000D01*
X127680500Y-94384000D02*
X127680500Y-95034000D01*
X127680500Y-95034000D02*
X127030500Y-95034000D01*
X127680500Y-87814000D02*
X127440500Y-87484000D01*
X127920500Y-87484000D01*
X127680500Y-87814000D01*
G36*
X127680500Y-87814000D02*
G01*
X127440500Y-87484000D01*
X127920500Y-87484000D01*
X127680500Y-87814000D01*
G37*
%TO.C,JP17*%
X86265900Y-98300000D02*
X86265900Y-99700000D01*
X86965900Y-100400000D02*
X87565900Y-100400000D01*
X87565900Y-97600000D02*
X86965900Y-97600000D01*
X88265900Y-99700000D02*
X88265900Y-98300000D01*
X86265900Y-98300000D02*
G75*
G02*
X86965900Y-97600000I699999J1D01*
G01*
X86965900Y-100400000D02*
G75*
G02*
X86265900Y-99700000I0J700000D01*
G01*
X87565900Y-97600000D02*
G75*
G02*
X88265900Y-98300000I1J-699999D01*
G01*
X88265900Y-99700000D02*
G75*
G02*
X87565900Y-100400000I-700000J0D01*
G01*
%TO.C,JP10*%
X147818600Y-82879400D02*
X147818600Y-81479400D01*
X148518600Y-80779400D02*
X149118600Y-80779400D01*
X149118600Y-83579400D02*
X148518600Y-83579400D01*
X149818600Y-81479400D02*
X149818600Y-82879400D01*
X147818600Y-81479400D02*
G75*
G02*
X148518600Y-80779400I700000J0D01*
G01*
X148518600Y-83579400D02*
G75*
G02*
X147818600Y-82879400I-1J699999D01*
G01*
X149118600Y-80779400D02*
G75*
G02*
X149818600Y-81479400I0J-700000D01*
G01*
X149818600Y-82879400D02*
G75*
G02*
X149118600Y-83579400I-699999J-1D01*
G01*
%TD*%
M02*
