%TF.GenerationSoftware,KiCad,Pcbnew,9.0.0*%
%TF.CreationDate,2025-03-06T16:27:56+01:00*%
%TF.ProjectId,mcuDevBoard,6d637544-6576-4426-9f61-72642e6b6963,rev?*%
%TF.SameCoordinates,Original*%
%TF.FileFunction,Paste,Bot*%
%TF.FilePolarity,Positive*%
%FSLAX46Y46*%
G04 Gerber Fmt 4.6, Leading zero omitted, Abs format (unit mm)*
G04 Created by KiCad (PCBNEW 9.0.0) date 2025-03-06 16:27:56*
%MOMM*%
%LPD*%
G01*
G04 APERTURE LIST*
G04 Aperture macros list*
%AMRoundRect*
0 Rectangle with rounded corners*
0 $1 Rounding radius*
0 $2 $3 $4 $5 $6 $7 $8 $9 X,Y pos of 4 corners*
0 Add a 4 corners polygon primitive as box body*
4,1,4,$2,$3,$4,$5,$6,$7,$8,$9,$2,$3,0*
0 Add four circle primitives for the rounded corners*
1,1,$1+$1,$2,$3*
1,1,$1+$1,$4,$5*
1,1,$1+$1,$6,$7*
1,1,$1+$1,$8,$9*
0 Add four rect primitives between the rounded corners*
20,1,$1+$1,$2,$3,$4,$5,0*
20,1,$1+$1,$4,$5,$6,$7,0*
20,1,$1+$1,$6,$7,$8,$9,0*
20,1,$1+$1,$8,$9,$2,$3,0*%
G04 Aperture macros list end*
%ADD10RoundRect,0.150000X0.650000X0.150000X-0.650000X0.150000X-0.650000X-0.150000X0.650000X-0.150000X0*%
%ADD11RoundRect,0.250000X0.625000X-0.400000X0.625000X0.400000X-0.625000X0.400000X-0.625000X-0.400000X0*%
%ADD12RoundRect,0.249999X0.395001X0.395001X-0.395001X0.395001X-0.395001X-0.395001X0.395001X-0.395001X0*%
%ADD13RoundRect,0.050000X0.387500X0.050000X-0.387500X0.050000X-0.387500X-0.050000X0.387500X-0.050000X0*%
%ADD14RoundRect,0.050000X0.050000X0.387500X-0.050000X0.387500X-0.050000X-0.387500X0.050000X-0.387500X0*%
G04 APERTURE END LIST*
D10*
%TO.C,U5*%
X134410000Y-81990000D03*
X134410000Y-83260000D03*
X134410000Y-84530000D03*
X134410000Y-85800000D03*
X127210000Y-85800000D03*
X127210000Y-84530000D03*
X127210000Y-83260000D03*
X127210000Y-81990000D03*
%TD*%
D11*
%TO.C,R32*%
X137414000Y-80036000D03*
X137414000Y-76936000D03*
%TD*%
D12*
%TO.C,U1*%
X124870500Y-92224000D03*
X124870500Y-90624000D03*
X123270500Y-92224000D03*
X123270500Y-90624000D03*
D13*
X127508000Y-88824000D03*
X127508000Y-89224000D03*
X127508000Y-89624000D03*
X127508000Y-90024000D03*
X127508000Y-90424000D03*
X127508000Y-90824000D03*
X127508000Y-91224000D03*
X127508000Y-91624000D03*
X127508000Y-92024000D03*
X127508000Y-92424000D03*
X127508000Y-92824000D03*
X127508000Y-93224000D03*
X127508000Y-93624000D03*
X127508000Y-94024000D03*
D14*
X126670500Y-94861500D03*
X126270500Y-94861500D03*
X125870500Y-94861500D03*
X125470500Y-94861500D03*
X125070500Y-94861500D03*
X124670500Y-94861500D03*
X124270500Y-94861500D03*
X123870500Y-94861500D03*
X123470500Y-94861500D03*
X123070500Y-94861500D03*
X122670500Y-94861500D03*
X122270500Y-94861500D03*
X121870500Y-94861500D03*
X121470500Y-94861500D03*
D13*
X120633000Y-94024000D03*
X120633000Y-93624000D03*
X120633000Y-93224000D03*
X120633000Y-92824000D03*
X120633000Y-92424000D03*
X120633000Y-92024000D03*
X120633000Y-91624000D03*
X120633000Y-91224000D03*
X120633000Y-90824000D03*
X120633000Y-90424000D03*
X120633000Y-90024000D03*
X120633000Y-89624000D03*
X120633000Y-89224000D03*
X120633000Y-88824000D03*
D14*
X121470500Y-87986500D03*
X121870500Y-87986500D03*
X122270500Y-87986500D03*
X122670500Y-87986500D03*
X123070500Y-87986500D03*
X123470500Y-87986500D03*
X123870500Y-87986500D03*
X124270500Y-87986500D03*
X124670500Y-87986500D03*
X125070500Y-87986500D03*
X125470500Y-87986500D03*
X125870500Y-87986500D03*
X126270500Y-87986500D03*
X126670500Y-87986500D03*
%TD*%
M02*
