%TF.GenerationSoftware,KiCad,Pcbnew,9.0.0*%
%TF.CreationDate,2025-03-06T16:27:56+01:00*%
%TF.ProjectId,mcuDevBoard,6d637544-6576-4426-9f61-72642e6b6963,rev?*%
%TF.SameCoordinates,Original*%
%TF.FileFunction,Soldermask,Bot*%
%TF.FilePolarity,Negative*%
%FSLAX46Y46*%
G04 Gerber Fmt 4.6, Leading zero omitted, Abs format (unit mm)*
G04 Created by KiCad (PCBNEW 9.0.0) date 2025-03-06 16:27:56*
%MOMM*%
%LPD*%
G01*
G04 APERTURE LIST*
G04 Aperture macros list*
%AMRoundRect*
0 Rectangle with rounded corners*
0 $1 Rounding radius*
0 $2 $3 $4 $5 $6 $7 $8 $9 X,Y pos of 4 corners*
0 Add a 4 corners polygon primitive as box body*
4,1,4,$2,$3,$4,$5,$6,$7,$8,$9,$2,$3,0*
0 Add four circle primitives for the rounded corners*
1,1,$1+$1,$2,$3*
1,1,$1+$1,$4,$5*
1,1,$1+$1,$6,$7*
1,1,$1+$1,$8,$9*
0 Add four rect primitives between the rounded corners*
20,1,$1+$1,$2,$3,$4,$5,0*
20,1,$1+$1,$4,$5,$6,$7,0*
20,1,$1+$1,$6,$7,$8,$9,0*
20,1,$1+$1,$8,$9,$2,$3,0*%
%AMFreePoly0*
4,1,23,0.500000,-0.750000,0.000000,-0.750000,0.000000,-0.745722,-0.065263,-0.745722,-0.191342,-0.711940,-0.304381,-0.646677,-0.396677,-0.554381,-0.461940,-0.441342,-0.495722,-0.315263,-0.495722,-0.250000,-0.500000,-0.250000,-0.500000,0.250000,-0.495722,0.250000,-0.495722,0.315263,-0.461940,0.441342,-0.396677,0.554381,-0.304381,0.646677,-0.191342,0.711940,-0.065263,0.745722,0.000000,0.745722,
0.000000,0.750000,0.500000,0.750000,0.500000,-0.750000,0.500000,-0.750000,$1*%
%AMFreePoly1*
4,1,23,0.000000,0.745722,0.065263,0.745722,0.191342,0.711940,0.304381,0.646677,0.396677,0.554381,0.461940,0.441342,0.495722,0.315263,0.495722,0.250000,0.500000,0.250000,0.500000,-0.250000,0.495722,-0.250000,0.495722,-0.315263,0.461940,-0.441342,0.396677,-0.554381,0.304381,-0.646677,0.191342,-0.711940,0.065263,-0.745722,0.000000,-0.745722,0.000000,-0.750000,-0.500000,-0.750000,
-0.500000,0.750000,0.000000,0.750000,0.000000,0.745722,0.000000,0.745722,$1*%
G04 Aperture macros list end*
%ADD10R,1.700000X1.700000*%
%ADD11O,1.700000X1.700000*%
%ADD12C,0.650000*%
%ADD13O,1.000000X2.100000*%
%ADD14O,1.000000X1.600000*%
%ADD15R,2.500000X2.500000*%
%ADD16C,2.500000*%
%ADD17FreePoly0,90.000000*%
%ADD18FreePoly1,90.000000*%
%ADD19RoundRect,0.150000X0.650000X0.150000X-0.650000X0.150000X-0.650000X-0.150000X0.650000X-0.150000X0*%
%ADD20FreePoly0,180.000000*%
%ADD21FreePoly1,180.000000*%
%ADD22RoundRect,0.250000X0.625000X-0.400000X0.625000X0.400000X-0.625000X0.400000X-0.625000X-0.400000X0*%
%ADD23RoundRect,0.050000X0.387500X0.050000X-0.387500X0.050000X-0.387500X-0.050000X0.387500X-0.050000X0*%
%ADD24RoundRect,0.050000X0.050000X0.387500X-0.050000X0.387500X-0.050000X-0.387500X0.050000X-0.387500X0*%
%ADD25R,3.200000X3.200000*%
%ADD26FreePoly0,270.000000*%
%ADD27FreePoly1,270.000000*%
G04 APERTURE END LIST*
D10*
%TO.C,J1*%
X131064000Y-74676000D03*
D11*
X133604000Y-74676000D03*
%TD*%
D10*
%TO.C,J15*%
X120100000Y-114300000D03*
D11*
X117560000Y-114300000D03*
X115020000Y-114300000D03*
%TD*%
D10*
%TO.C,J5*%
X136118600Y-113030000D03*
D11*
X138658600Y-113030000D03*
X141198600Y-113030000D03*
X143738600Y-113030000D03*
X146278600Y-113030000D03*
X148818600Y-113030000D03*
X151358600Y-113030000D03*
X153898600Y-113030000D03*
X156438600Y-113030000D03*
X158978600Y-113030000D03*
X161518600Y-113030000D03*
X164058600Y-113030000D03*
X166598600Y-113030000D03*
X169138600Y-113030000D03*
X171678600Y-113030000D03*
X174218600Y-113030000D03*
%TD*%
D12*
%TO.C,J3*%
X125320000Y-73840000D03*
X119540000Y-73840000D03*
D13*
X126750000Y-74370000D03*
D14*
X126750000Y-70190000D03*
D13*
X118110000Y-74370000D03*
D14*
X118110000Y-70190000D03*
%TD*%
D10*
%TO.C,J9*%
X68097400Y-113030000D03*
D11*
X70637400Y-113030000D03*
X73177400Y-113030000D03*
X75717400Y-113030000D03*
X78257400Y-113030000D03*
X80797400Y-113030000D03*
X83337400Y-113030000D03*
X85877400Y-113030000D03*
X88417400Y-113030000D03*
X90957400Y-113030000D03*
X93497400Y-113030000D03*
X96037400Y-113030000D03*
X98577400Y-113030000D03*
X101117400Y-113030000D03*
X103657400Y-113030000D03*
X106197400Y-113030000D03*
%TD*%
D10*
%TO.C,J4*%
X136118600Y-115570000D03*
D11*
X138658600Y-115570000D03*
X141198600Y-115570000D03*
X143738600Y-115570000D03*
X146278600Y-115570000D03*
X148818600Y-115570000D03*
X151358600Y-115570000D03*
X153898600Y-115570000D03*
X156438600Y-115570000D03*
X158978600Y-115570000D03*
X161518600Y-115570000D03*
X164058600Y-115570000D03*
X166598600Y-115570000D03*
X169138600Y-115570000D03*
X171678600Y-115570000D03*
X174218600Y-115570000D03*
%TD*%
D10*
%TO.C,J13*%
X143600000Y-99568000D03*
D11*
X143600000Y-97028000D03*
X143600000Y-94488000D03*
X143600000Y-91948000D03*
X143600000Y-89408000D03*
X143600000Y-86868000D03*
X143600000Y-84328000D03*
%TD*%
D10*
%TO.C,J12*%
X138684000Y-99568000D03*
D11*
X138684000Y-97028000D03*
X138684000Y-94488000D03*
X138684000Y-91948000D03*
X138684000Y-89408000D03*
X138684000Y-86868000D03*
X138684000Y-84328000D03*
%TD*%
D10*
%TO.C,J7*%
X68097400Y-110490000D03*
D11*
X70637400Y-110490000D03*
X73177400Y-110490000D03*
X75717400Y-110490000D03*
X78257400Y-110490000D03*
X80797400Y-110490000D03*
X83337400Y-110490000D03*
X85877400Y-110490000D03*
X88417400Y-110490000D03*
X90957400Y-110490000D03*
X93497400Y-110490000D03*
X96037400Y-110490000D03*
X98577400Y-110490000D03*
X101117400Y-110490000D03*
X103657400Y-110490000D03*
X106197400Y-110490000D03*
%TD*%
D10*
%TO.C,J10*%
X117600000Y-98500000D03*
D11*
X115060000Y-98500000D03*
X112520000Y-98500000D03*
X109980000Y-98500000D03*
%TD*%
D10*
%TO.C,J2*%
X136118600Y-110490000D03*
D11*
X138658600Y-110490000D03*
X141198600Y-110490000D03*
X143738600Y-110490000D03*
X146278600Y-110490000D03*
X148818600Y-110490000D03*
X151358600Y-110490000D03*
X153898600Y-110490000D03*
X156438600Y-110490000D03*
X158978600Y-110490000D03*
X161518600Y-110490000D03*
X164058600Y-110490000D03*
X166598600Y-110490000D03*
X169138600Y-110490000D03*
X171678600Y-110490000D03*
X174218600Y-110490000D03*
%TD*%
D10*
%TO.C,J8*%
X68097400Y-115570000D03*
D11*
X70637400Y-115570000D03*
X73177400Y-115570000D03*
X75717400Y-115570000D03*
X78257400Y-115570000D03*
X80797400Y-115570000D03*
X83337400Y-115570000D03*
X85877400Y-115570000D03*
X88417400Y-115570000D03*
X90957400Y-115570000D03*
X93497400Y-115570000D03*
X96037400Y-115570000D03*
X98577400Y-115570000D03*
X101117400Y-115570000D03*
X103657400Y-115570000D03*
X106197400Y-115570000D03*
%TD*%
D15*
%TO.C,J6*%
X87000000Y-74450000D03*
D16*
X94500000Y-74450000D03*
X102000000Y-74450000D03*
X109500000Y-74450000D03*
%TD*%
D17*
%TO.C,JP12*%
X161518600Y-82829400D03*
D18*
X161518600Y-81529400D03*
%TD*%
D19*
%TO.C,U5*%
X134410000Y-81990000D03*
X134410000Y-83260000D03*
X134410000Y-84530000D03*
X134410000Y-85800000D03*
X127210000Y-85800000D03*
X127210000Y-84530000D03*
X127210000Y-83260000D03*
X127210000Y-81990000D03*
%TD*%
D17*
%TO.C,JP4*%
X91023400Y-82770200D03*
D18*
X91023400Y-81470200D03*
%TD*%
D17*
%TO.C,JP11*%
X93563400Y-82740200D03*
D18*
X93563400Y-81440200D03*
%TD*%
D17*
%TO.C,JP2*%
X156438600Y-82829400D03*
D18*
X156438600Y-81529400D03*
%TD*%
D17*
%TO.C,JP13*%
X87200000Y-95650000D03*
D18*
X87200000Y-94350000D03*
%TD*%
D20*
%TO.C,JP14*%
X155818600Y-97300000D03*
D21*
X154518600Y-97300000D03*
%TD*%
D17*
%TO.C,JP9*%
X80863400Y-82770200D03*
D18*
X80863400Y-81470200D03*
%TD*%
D17*
%TO.C,JP1*%
X158978600Y-82829400D03*
D18*
X158978600Y-81529400D03*
%TD*%
D17*
%TO.C,JP6*%
X153898600Y-82829400D03*
D18*
X153898600Y-81529400D03*
%TD*%
D17*
%TO.C,JP3*%
X88483400Y-82770200D03*
D18*
X88483400Y-81470200D03*
%TD*%
D17*
%TO.C,JP7*%
X83403400Y-82770200D03*
D18*
X83403400Y-81470200D03*
%TD*%
D20*
%TO.C,JP18*%
X155800000Y-100100000D03*
D21*
X154500000Y-100100000D03*
%TD*%
D17*
%TO.C,JP5*%
X85943400Y-82770200D03*
D18*
X85943400Y-81470200D03*
%TD*%
D22*
%TO.C,R32*%
X137414000Y-80036000D03*
X137414000Y-76936000D03*
%TD*%
D17*
%TO.C,JP8*%
X151358600Y-82829400D03*
D18*
X151358600Y-81529400D03*
%TD*%
D23*
%TO.C,U1*%
X127508000Y-88824000D03*
X127508000Y-89224000D03*
X127508000Y-89624000D03*
X127508000Y-90024000D03*
X127508000Y-90424000D03*
X127508000Y-90824000D03*
X127508000Y-91224000D03*
X127508000Y-91624000D03*
X127508000Y-92024000D03*
X127508000Y-92424000D03*
X127508000Y-92824000D03*
X127508000Y-93224000D03*
X127508000Y-93624000D03*
X127508000Y-94024000D03*
D24*
X126670500Y-94861500D03*
X126270500Y-94861500D03*
X125870500Y-94861500D03*
X125470500Y-94861500D03*
X125070500Y-94861500D03*
X124670500Y-94861500D03*
X124270500Y-94861500D03*
X123870500Y-94861500D03*
X123470500Y-94861500D03*
X123070500Y-94861500D03*
X122670500Y-94861500D03*
X122270500Y-94861500D03*
X121870500Y-94861500D03*
X121470500Y-94861500D03*
D23*
X120633000Y-94024000D03*
X120633000Y-93624000D03*
X120633000Y-93224000D03*
X120633000Y-92824000D03*
X120633000Y-92424000D03*
X120633000Y-92024000D03*
X120633000Y-91624000D03*
X120633000Y-91224000D03*
X120633000Y-90824000D03*
X120633000Y-90424000D03*
X120633000Y-90024000D03*
X120633000Y-89624000D03*
X120633000Y-89224000D03*
X120633000Y-88824000D03*
D24*
X121470500Y-87986500D03*
X121870500Y-87986500D03*
X122270500Y-87986500D03*
X122670500Y-87986500D03*
X123070500Y-87986500D03*
X123470500Y-87986500D03*
X123870500Y-87986500D03*
X124270500Y-87986500D03*
X124670500Y-87986500D03*
X125070500Y-87986500D03*
X125470500Y-87986500D03*
X125870500Y-87986500D03*
X126270500Y-87986500D03*
X126670500Y-87986500D03*
D25*
X124070500Y-91424000D03*
%TD*%
D26*
%TO.C,JP17*%
X87265900Y-98350000D03*
D27*
X87265900Y-99650000D03*
%TD*%
D17*
%TO.C,JP10*%
X148818600Y-82829400D03*
D18*
X148818600Y-81529400D03*
%TD*%
M02*
